<?xml version="1.0" encoding="UTF-8"?>
<svg width="40px" height="40px" viewBox="0 0 40 40" version="1.1" xmlns="http://www.w3.org/2000/svg" xmlns:xlink="http://www.w3.org/1999/xlink">
    <title>icon/40/active/支付寶</title>
    <g id="icon/40/active/支付寶" stroke="none" stroke-width="1" fill="none" fill-rule="evenodd">
        <g id="支付宝支付备份">
            <circle id="椭圆形备份" fill="#4279DF" cx="20" cy="20" r="20"></circle>
            <path d="M23.4679691,22.5919869 C25.1837313,19.4521668 25.7988158,16.4595258 25.7988158,16.4595258 L20.0364448,16.4595258 L20.0364448,14.2518397 L26.883307,14.2518397 L26.883307,13.3033524 L20.0364448,13.3033524 L20.0364448,10 L16.9124628,10 L16.9124628,13.3033524 L10.6806852,13.3033524 L10.6806852,14.2518397 L16.9124628,14.2518397 L16.9124628,16.4595258 L11.6194985,16.4595258 L11.6194985,17.4080131 L22.3672915,17.4080131 C22.3672915,17.5715454 22.3672915,17.5715454 22.2054272,17.7187244 C22.2054272,18.8143908 21.4284783,20.3843009 20.7972073,21.6598528 C12.865854,18.5036795 10.5188209,20.4006541 9.90373635,20.7113655 C4.61077201,24.4889616 9.59619408,29.215045 10.373143,29.0515127 C15.9736496,30.3107114 19.5670382,27.9558463 22.0597492,24.9632052 C22.2216136,25.1267375 22.3672915,25.1267375 22.5291559,25.1267375 C24.244918,26.0752249 32.5,30 32.5,30 L32.5,25.2739166 C31.2536445,25.2575634 26.737629,23.6876533 23.4679691,22.5919869 L23.4679691,22.5919869 Z M19.4213603,23.9983647 C15.5204294,29.0351594 10.858736,27.4652494 10.0817871,27.1381848 C8.22034708,26.6639411 7.5890761,23.1970564 9.91992278,22.10139 C13.8208537,20.8421913 17.2361915,22.2649223 19.7289026,23.524121 C19.5670382,23.8511856 19.4213603,23.9983647 19.4213603,23.9983647 L19.4213603,23.9983647 Z" id="形状" fill="#FFFFFF" fill-rule="nonzero"></path>
        </g>
    </g>
</svg>