<?xml version="1.0" encoding="UTF-8"?>
<svg width="40px" height="40px" viewBox="0 0 40 40" version="1.1" xmlns="http://www.w3.org/2000/svg" xmlns:xlink="http://www.w3.org/1999/xlink">
    <title>icon/40/active/ae</title>
    <defs>
        <circle id="path-1" cx="20" cy="20" r="20"></circle>
    </defs>
    <g id="icon/40/active/ae" stroke="none" stroke-width="1" fill="none" fill-rule="evenodd">
        <g id="icon">
            <mask id="mask-2" fill="white">
                <use xlink:href="#path-1"></use>
            </mask>
            <use id="蒙版" fill="#F7F8F8" xlink:href="#path-1"></use>
            <path d="M38.2323107,27.4158922 L36.0768128,27.4158922 L36.0768128,26.4259187 L38.2323107,26.4259187 C38.3848243,26.4421147 38.538258,26.4052279 38.6667435,26.321477 C38.7501229,26.2449563 38.800351,26.1389194 38.8067398,26.0259294 C38.8094157,25.9000032 38.7585336,25.7788555 38.6667435,25.692605 C38.5536069,25.6044802 38.4102689,25.5645532 38.2678653,25.5814968 C37.2423372,25.5470533 35.9345934,25.6170514 35.9345934,24.137091 C35.934445,23.730514 36.11064,23.3438577 36.4175691,23.077213 C36.7244982,22.8105684 37.131987,22.6901494 37.5345516,22.7471282 L39.7567144,22.7471282 L39.7567144,23.7371017 L37.7056581,23.7371017 C37.5570911,23.7146009 37.4052061,23.7390734 37.2712253,23.8070998 C37.1631347,23.8976528 37.0995212,24.0305525 37.0967855,24.1715345 C37.0926622,24.3185284 37.1817293,24.452129 37.3190018,24.5048589 C37.460357,24.5459212 37.6063105,24.5690647 37.7534346,24.573746 L38.3623072,24.573746 C38.8262509,24.5381213 39.2878595,24.6675921 39.6656057,24.9392918 C39.8942954,25.2241894 40.0126353,25.5819702 39.9989301,25.9470426 C40.0100409,26.9470159 39.3667248,27.4158922 38.2323107,27.4158922 Z M34.0124235,24.5826347 L33.4046621,24.5826347 C33.2575379,24.5779533 33.1115845,24.5548098 32.9702292,24.5137476 C32.8329567,24.4610176 32.7438897,24.327417 32.748013,24.1804232 C32.7350528,24.0361698 32.80197,23.8963683 32.9224527,23.8159885 C33.0564335,23.7479621 33.2083185,23.7234896 33.3568855,23.7459904 L35.4079418,23.7459904 L35.4079418,22.7560169 L33.185779,22.7560169 C31.9858111,22.7560169 31.5858218,23.4859973 31.5858218,24.1459797 C31.5858218,25.6237179 32.8902314,25.5537198 33.9190927,25.5903854 C34.0617708,25.5743422 34.2051194,25.6141613 34.319082,25.7014936 C34.4097681,25.7884176 34.4601019,25.9092187 34.4579672,26.034818 C34.4515246,26.1475598 34.4017638,26.2534506 34.319082,26.3303656 C34.1886611,26.409523 34.0367988,26.4460321 33.8846492,26.4348073 L31.7280403,26.4348073 L31.7280403,27.4247808 L33.8846492,27.4247808 C35.0135079,27.4247808 35.656824,26.9559045 35.656824,25.9648199 C35.6705292,25.5997475 35.5521894,25.2419667 35.3234996,24.957069 C34.9387451,24.6763144 34.4767299,24.54684 34.0124235,24.5826347 Z M28.4159066,26.4603622 L28.4159066,25.5214984 L30.98806,25.5214984 L30.98806,24.5826347 L28.4159066,24.5826347 L28.4159066,23.7315463 L31.0402808,23.7315463 L31.0402808,22.758239 L27.3226025,22.758239 L27.3226025,27.4158922 L31.042503,27.4158922 L31.042503,26.4603622 L28.4159066,26.4603622 Z M24.748227,22.7615722 L22.1927397,22.7615722 L22.1927397,27.4192255 L23.3227095,27.4192255 L23.3227095,25.7159377 L24.5215663,25.7159377 C24.9215556,25.7159377 25.1471051,25.7503812 25.3215449,25.924821 C25.4840488,26.2092713 25.5510317,26.5383443 25.5126509,26.8636847 L25.5126509,27.4192255 L26.6237323,27.4192255 L26.6237323,26.5159163 C26.6542951,26.2208169 26.5938102,25.9234326 26.4504036,25.6637168 C26.3050774,25.4744979 26.104841,25.334798 25.8770856,25.2637275 C26.3774315,25.0629823 26.6973311,24.5691178 26.6759531,24.0304272 C26.7195483,23.6021655 26.5000799,23.1900039 26.1204124,22.9871217 C25.6883342,22.8001998 25.2172083,22.7239659 24.748227,22.7615722 Z M16.2295659,22.7615722 L14.7851601,24.2904202 L13.4296408,22.7615722 L8.9264279,22.7615722 L8.9264279,27.4192255 L13.3596426,27.4192255 L14.7851601,25.8903774 L16.1584567,27.4192255 L18.3139546,27.4192255 L18.3139546,25.8548228 L19.7216947,25.8548228 C20.6783358,25.8548228 21.6516431,25.5937187 21.6516431,24.2904202 C21.6516431,23.0215653 20.6605585,22.7615722 19.7916929,22.7615722 L16.2295659,22.7615722 Z M24.6782288,24.7604076 L23.3227095,24.7948512 L23.3227095,23.7348795 L24.6782288,23.7348795 C24.8623673,23.7152221 25.0484133,23.7451429 25.2171033,23.8215439 C25.3630604,23.8999068 25.4498944,24.0562081 25.4393195,24.2215332 C25.4463013,24.4047442 25.3633317,24.57981 25.2171033,24.6904095 C25.04413,24.7502402 24.8607474,24.7740611 24.6782288,24.7604076 Z M19.793915,24.9126258 L18.3161767,24.9126258 L18.3161767,23.7304352 L19.793915,23.7304352 C20.1939043,23.7304352 20.4538974,23.8870977 20.4538974,24.2859759 C20.4645192,24.461193 20.3971535,24.6321455 20.2698559,24.7530139 C20.1425584,24.8738823 19.968347,24.932306 19.793915,24.9126258 Z M15.4995854,25.0859545 L17.2206505,23.2604478 L17.2206505,27.0147918 L15.4995854,25.0859545 Z M10.0241763,26.4592511 L10.0241763,25.5203873 L12.4929992,25.5203873 L12.4929992,24.5815236 L10.0241763,24.5815236 L10.0241763,23.7304352 L12.8229903,23.7304352 L14.0574018,25.0859545 L12.7885469,26.4592511 L10.0241763,26.4592511 Z M35.3168331,19.3838848 L33.2135561,15.8906449 L33.2135561,19.3838848 L30.9536165,19.3838848 L30.5191837,18.3583567 L28.1859127,18.3583567 L27.75148,19.3838848 L26.4481815,19.3838848 C25.8577472,19.4177953 25.2756244,19.2321967 24.8137807,18.8627877 C24.0365309,17.7847555 24.0509383,16.3264604 24.8493353,15.263995 C25.3200259,14.859916 25.9351677,14.6653016 26.5526231,14.7251205 L27.6125947,14.7251205 L27.6125947,15.7339824 L26.5526231,15.7339824 C26.2402585,15.7048389 25.9287727,15.7980456 25.6837575,15.9939755 C25.4529278,16.2967733 25.3467769,16.6764515 25.3870987,17.0550582 C25.3510277,17.4488856 25.4561779,17.8427069 25.6837575,18.1661396 C25.9037174,18.3293942 26.1749807,18.4082498 26.4481815,18.3883559 L26.9526124,18.3883559 L28.5514586,14.7217873 L30.2025255,14.7217873 L32.080253,19.1205585 L32.080253,14.7217873 L33.8013181,14.7217873 L35.76571,17.9550341 L35.76571,14.7217873 L36.912346,14.7217873 L36.912346,19.3805515 L35.3168331,19.3838848 Z M23.6871442,14.7251205 L22.5571744,14.7251205 L22.5571744,19.3838848 L23.6871442,19.3838848 L23.6871442,14.7251205 Z M19.9905764,14.7251205 L17.4350892,14.7251205 L17.4350892,19.3838848 L18.5306155,19.3838848 L18.5306155,17.6994854 L19.7294723,17.6994854 C20.0216076,17.6593829 20.3183326,17.7273412 20.5638944,17.8905914 C20.7090382,18.1679893 20.7638146,18.4838278 20.7205569,18.7939006 L20.7205569,19.3849959 L21.868304,19.3849959 L21.868304,18.4639094 C21.9043979,18.1694993 21.8299662,17.8721687 21.6594206,17.6294873 C21.5158333,17.4534409 21.3306245,17.3159663 21.1205462,17.229498 C21.6133946,17.0191372 21.9293913,16.5308586 21.9194137,15.9950866 C21.9459971,15.5570074 21.7157615,15.1433638 21.3294295,14.9351149 C20.9057258,14.7477211 20.4456603,14.6756442 19.9905764,14.7251205 Z M14.0218472,18.4283548 L14.0218472,17.4894911 L16.5951117,17.4894911 L16.5951117,16.53285 L14.0218472,16.53285 L14.0218472,15.6984278 L16.6295552,15.6984278 L16.6295552,14.7251205 L12.8929885,14.7251205 L12.8929885,19.3838848 L16.6295552,19.3838848 L16.6295552,18.4283548 L14.0218472,18.4283548 Z M10.2330596,14.7251205 L8.85976301,17.8894804 L7.39980207,14.7251205 L5.60873891,14.7251205 L5.60873891,19.1238917 L3.69656779,14.7251205 L2.04550088,14.7251205 L0.0455543804,19.3838848 L1.24441118,19.3838848 L1.6621778,18.3583567 L4.0087817,18.3583567 L4.42543722,19.3838848 L6.70315403,19.3838848 L6.70315403,15.7339824 L8.33644368,19.3838848 L9.29308476,19.3838848 L10.9274855,15.7339824 L10.9274855,19.3838848 L12.0574553,19.3838848 L12.0574553,14.7251205 L10.2330596,14.7251205 Z M30.1191944,17.3672721 L29.3547704,15.5250991 L28.5892353,17.3672721 L30.1191944,17.3672721 Z M19.8972456,16.725067 L18.523949,16.725067 L18.523949,15.6984278 L19.8972456,15.6984278 C20.0852598,15.6837087 20.2742998,15.7075278 20.4527862,15.768426 C20.5978015,15.8631099 20.67827,16.0304671 20.6616696,16.2028588 C20.6824218,16.371455 20.6001145,16.5360695 20.4527862,16.6206254 C20.2821269,16.7099514 20.0886932,16.746317 19.8972456,16.725067 Z M2.061056,17.3672721 L2.838813,15.5250991 L3.60434805,17.3672721 L2.061056,17.3672721 Z M0.00555545036,0.106622691 L0.00555545036,16.8995068 L1.36218583,13.8051451 L4.2643304,13.8051451 L4.6643197,14.5706802 L4.6643197,13.8051451 L8.05422903,13.8051451 L8.81865305,15.4562121 L9.56641078,13.8051451 L20.3794549,13.8051451 C20.8326107,13.7703709 21.2831109,13.900156 21.6483099,14.1706909 L21.6483099,13.8051451 L24.6204526,13.8051451 L24.6204526,14.1706909 C25.1992934,13.8927496 25.8394282,13.7669406 26.4804028,13.8051451 L30.7747324,13.8051451 L31.1736106,14.5706802 L31.1736106,13.8051451 L34.3379704,13.8051451 L34.8068468,14.5706802 L34.8068468,13.8051451 L37.9012085,13.8051451 L37.9012085,20.3216375 L34.7724032,20.3216375 L34.1635306,19.3305529 L34.1635306,20.3216375 L30.2747458,20.3216375 L29.8403129,19.2616659 L28.8836719,19.2616659 L28.449239,20.3216375 L26.4159601,20.3216375 C25.795372,20.3351632 25.1807689,20.1979069 24.6248969,19.9216482 L24.6248969,20.3216375 L19.7928039,20.3216375 L19.7928039,18.827233 C19.7928039,18.6183497 19.7572493,18.5839062 19.6183642,18.5839062 L19.4617017,18.5839062 L19.4617017,20.3216375 L10.128618,20.3216375 L10.128618,19.4872154 L9.79529359,20.3216375 L7.83090167,20.3216375 L7.49757725,19.5216589 L7.49757725,20.3216375 L3.7199005,20.3216375 L3.3210223,19.2616659 L2.36438122,19.2616659 L1.92994838,20.3216375 L4.33431069e-13,20.3216375 L4.33431069e-13,40 L39.7211598,40 L39.7211598,28.0592083 C39.20767,28.2655284 38.6578104,28.3660525 38.1045364,28.354756 L35.2112804,28.354756 L35.2112804,27.9547667 C34.7649028,28.2357993 34.2439555,28.375235 33.7168759,28.354756 L24.5904534,28.354756 L24.5904534,26.8603515 C24.5904534,26.6514682 24.5548988,26.6514682 24.3815701,26.6514682 L24.2249076,26.6514682 L24.2249076,28.354756 L21.2183214,28.354756 L21.2183214,26.5770257 C20.7220869,26.7758411 20.1870965,26.8590534 19.6539188,26.8203525 L19.3205943,26.8203525 L19.3205943,28.3492006 L15.6562479,28.3492006 L14.7873823,27.3414497 L13.8307412,28.3492006 L7.94200983,28.3492006 L7.94200983,21.8138198 L13.9418493,21.8138198 L14.7940487,22.8215706 L15.7329125,21.8138198 L19.7650269,21.8138198 C20.3166523,21.7713619 20.8668889,21.9119476 21.3305406,22.2138091 L21.3305406,21.8138198 L24.9282221,21.8138198 C25.4656036,21.8012401 25.9957167,21.9398317 26.4581812,22.2138091 L26.4581812,21.8138198 L31.8813695,21.8138198 L31.8813695,22.2138091 C32.2847509,21.937408 32.7659539,21.7972518 33.2546661,21.8138198 L36.2790296,21.8138198 L36.2790296,22.2138091 C36.6972044,21.9406646 37.1885634,21.801162 37.6878808,21.8138198 L39.738937,21.8138198 L39.738937,0.107733729 L0.00555545036,0.106622691 Z" id="形状" fill="#147591" fill-rule="nonzero" mask="url(#mask-2)"></path>
        </g>
    </g>
</svg>