<?xml version="1.0" encoding="UTF-8"?>
<svg width="40px" height="40px" viewBox="0 0 40 40" version="1.1" xmlns="http://www.w3.org/2000/svg" xmlns:xlink="http://www.w3.org/1999/xlink">
    <title>icon/40/active/db</title>
    <g id="icon/40/active/db" stroke="none" stroke-width="1" fill="none" fill-rule="evenodd">
        <g id="icon" transform="translate(-33.333333, 0.000000)" fill-rule="nonzero">
            <path d="M53.3333333,40 C64.3790283,40 73.3333333,31.045695 73.3333333,20 C73.3333333,8.954305 64.3790283,0 53.3333333,0 C42.2876383,0 33.3333333,8.954305 33.3333333,20 C33.3333333,31.045695 42.2876383,40 53.3333333,40 Z" id="路径" fill="#F7F8F8"></path>
            <path d="M52.0933333,32.3332931 C45.716,32.3639598 40.4666667,26.9866264 40.4666667,20.4372931 C40.4666667,13.2812931 45.716,8.33062643 52.0933333,8.33313311 L55.08,8.33313311 C61.3826667,8.33195976 67.1333333,13.2799598 67.1333333,20.4372931 C67.1333333,26.9839598 61.3826667,32.3332931 55.08,32.3332931 L52.0933333,32.3332931 Z M41.7373333,20.3132931 C41.7373333,26.3119598 46.3586667,31.2012931 52.12,31.2986286 C57.88,31.2012931 62.5026667,26.3119598 62.5026667,20.3119598 C62.5026667,14.3132931 57.8813333,9.42395976 52.12,9.32662858 C46.36,9.42395976 41.7373333,14.3132931 41.7373333,20.3132931 Z M49.724,13.8132953 C47.1413333,14.8479598 45.4346667,17.4306264 45.4306667,20.3119598 C45.4346667,23.1919598 47.14,25.7746264 49.724,26.8092931 L49.724,13.8132953 Z M58.8066667,20.3132931 C58.804,17.4306264 57.096,14.8466264 54.5106667,13.8146286 L54.5106667,26.8132953 C57.096,25.7799598 58.804,23.1972931 58.8066667,20.3132931 Z" id="形状" fill="#004A97"></path>
        </g>
    </g>
</svg>