<?xml version="1.0" encoding="UTF-8"?>
<svg width="40px" height="40px" viewBox="0 0 40 40" version="1.1" xmlns="http://www.w3.org/2000/svg" xmlns:xlink="http://www.w3.org/1999/xlink">
    <title>icon/40/active/jcb</title>
    <g id="icon/40/active/jcb" stroke="none" stroke-width="1" fill="none" fill-rule="evenodd">
        <g id="icon" fill-rule="nonzero">
            <path d="M20,40 C31.045695,40 40,31.045695 40,20 C40,8.954305 31.045695,0 20,0 C8.954305,0 0,8.954305 0,20 C0,31.045695 8.954305,40 20,40 Z" id="路径备份" fill="#F7F8F8"></path>
            <path d="M33.1232474,10.0078919 L28.4926466,10.0078919 C28.3339171,9.99736937 28.1746649,9.99736937 28.0159354,10.0078919 C26.3888786,10.1698647 25.1440177,11.5297226 25.1262608,13.1647653 L25.1262608,16.133829 C25.1262608,16.3649504 25.1262608,16.3649504 25.3718507,16.3649504 L30.0169201,16.3649504 C30.3015,16.3749093 30.5833553,16.4235763 30.8548759,16.5094482 C31.5856328,16.6127012 32.0944756,17.2888721 31.9912226,18.0197229 C31.9825737,18.0805554 31.9697981,18.1407294 31.9529842,18.1998284 C31.805964,18.6798153 31.4202895,19.0490554 30.9343591,19.1750478 C30.7970956,19.2183595 30.6598321,19.2472967 30.4792568,19.2978427 C30.5584581,19.3357992 30.64433,19.3579719 30.731987,19.3628573 C31.0990873,19.404263 31.4521692,19.5277261 31.7650807,19.7241019 C32.376049,20.1237727 32.5473231,20.9431261 32.1476523,21.5541884 C32.0624545,21.6844173 31.954918,21.7985694 31.8300013,21.8913813 C31.395959,22.1987068 30.8734653,22.3559596 30.3418993,22.3392494 L25.2851333,22.3392494 C25.0683865,22.3392494 25.0683865,22.3392494 25.0683865,22.5415275 L25.0683865,28.5230608 C25.0683865,28.7324793 25.0683865,28.7324793 25.2922736,28.7324793 L29.9952173,28.7324793 C31.7602891,28.7199837 33.2119379,27.3379532 33.311057,25.575512 L33.311057,10.1957015 C33.3544627,10.0078919 33.3544627,10.0078919 33.1232474,10.0078919 Z M26.8961242,21.4218103 L28.774314,21.4218103 C29.0305241,21.4235699 29.2721419,21.302761 29.4244603,21.0967372 C29.6289775,20.8531393 29.66339,20.5091267 29.5111777,20.2298443 C29.3517196,19.9225979 29.0259278,19.7384419 28.6804562,19.7602733 L26.8961242,19.7602733 C26.7805636,19.7602733 26.7372518,19.7964448 26.7372518,19.9119115 L26.7372518,21.2772186 C26.7372518,21.4001075 26.7877039,21.436091 26.9178271,21.436091 L26.8961242,21.4218103 L26.8961242,21.4218103 Z M26.8961242,18.8573029 L28.5358644,18.8573029 C28.9659516,18.8827205 29.3392392,18.5637021 29.3811485,18.1349077 C29.3951919,17.9347036 29.3253156,17.7376809 29.1882678,17.5910629 C29.05122,17.4444449 28.8593548,17.3614485 28.6586594,17.3619665 C28.0735278,17.3113265 27.4811619,17.3619665 26.888796,17.3619665 C26.7732353,17.3619665 26.7659071,17.4342154 26.7659071,17.5136986 L26.7659071,18.7634451 C26.7659071,18.8717715 26.8092188,18.9151772 26.9247795,18.9079429 L26.8961242,18.8573029 L26.8961242,18.8573029 Z" id="形状" fill="#00AE20"></path>
            <path d="M24.1437132,17.8820835 L24.1437132,25.3010788 C24.1725423,25.8199086 24.0836043,26.3385369 23.8835608,26.818118 C23.3845542,27.9184683 22.3221094,28.6563604 21.1167752,28.7397136 C20.9676737,28.7488269 20.8180085,28.7488269 20.6689071,28.7397136 L16.1322581,28.7397136 C15.8939024,28.7397136 15.8939024,28.7397136 15.8939024,28.5229668 L15.8939024,21.5733545 C15.8939024,21.5589799 15.9589171,21.5733545 15.9878542,21.5733545 C16.1712525,21.7075551 16.3672101,21.8236886 16.5729858,21.9201305 C17.1980166,22.1987201 17.8639999,22.3743613 18.5451274,22.4402475 C19.2290023,22.5115569 19.9173869,22.5283743 20.6039864,22.4907936 C21.4186027,22.4483362 22.2281795,22.3371722 23.02409,22.1584862 C23.0639399,22.1550162 23.1005585,22.1351512 23.1251953,22.1036382 C23.1498322,22.0721251 23.1602739,22.031795 23.1540253,21.9922855 L23.1540253,21.0098318 C23.1540253,20.8581937 23.1540253,20.8509594 22.9951529,20.915974 C22.4396697,21.1749235 21.8515662,21.357167 21.2469923,21.4576999 C20.5820029,21.5929002 19.8948118,21.5731615 19.2386793,21.4000135 C18.4378343,21.1829281 17.8596414,20.4862242 17.793889,19.6590873 C17.7396696,19.2260773 17.8046039,18.7864798 17.9816986,18.387638 C18.2885204,17.7452047 18.9064231,17.3077266 19.6142985,17.2317494 C20.5450103,17.0983408 21.494348,17.2027059 22.3738498,17.5351196 C22.6050651,17.6146028 22.8290461,17.7084607 23.0530272,17.8096467 C23.1541193,17.8529585 23.1830564,17.8096467 23.1830564,17.7301635 L23.1830564,16.704586 C23.1830564,16.6106342 23.1469789,16.5673225 23.0530272,16.5528539 C22.4608821,16.427675 21.8630252,16.3312303 21.2615548,16.2638583 C20.6374333,16.2009106 20.0097415,16.1839993 19.3832711,16.2132183 C18.4562642,16.2188573 17.5390007,16.4028076 16.6815001,16.7550381 C16.4608658,16.8520456 16.2503612,16.9706256 16.0530567,17.1090484 C16.009745,17.1090484 15.9735735,17.2030001 15.9157932,17.174063 C15.8580129,17.1451259 15.9157932,17.0801112 15.9157932,17.0295652 L15.9157932,12.9986585 C16.0248712,11.4895113 17.1761562,10.262877 18.6753445,10.0585319 C18.914712,10.0252628 19.1560716,10.0083748 19.3977397,10.0079858 L23.8766084,10.0079858 C24.114964,10.0079858 24.114964,10.0079858 24.114964,10.2391072 L24.1437132,17.8820835 Z" id="路径" fill="#F80233"></path>
            <path d="M14.9186831,17.9543324 L14.9186831,25.553997 C14.9375275,26.4677327 14.5385502,27.3401626 13.8350434,27.9235545 C13.2322973,28.4738196 12.4477937,28.7824762 11.6316865,28.7904475 L6.87829077,28.7904475 C6.66877832,28.7904475 6.66877832,28.7904475 6.66877832,28.5592322 L6.66877832,22.3537179 C6.66877832,22.1586741 6.66877832,22.1515337 6.88552505,22.2019858 C8.16836756,22.4812677 9.48237323,22.5905944 10.7937307,22.5271529 C11.5421689,22.5203701 12.2807156,22.3554161 12.9609161,22.0431134 C13.694242,21.7273886 14.176658,21.0136345 14.196194,20.2154696 C14.24674,18.9945664 14.196194,17.7737571 14.196194,16.5600882 C14.196194,16.4445275 14.1528822,16.4012158 14.0299933,16.4083561 L11.545063,16.4083561 C11.4005652,16.4083561 11.371722,16.4661364 11.371722,16.5817911 L11.371722,19.977114 C11.3787682,20.2514617 11.314028,20.5228913 11.1839124,20.7645238 C10.8842288,21.2749277 10.3307945,21.5820913 9.73912211,21.5664021 C8.79634375,21.588214 7.86069403,21.398111 7.00117968,21.0101137 C6.61832623,20.843913 6.66887228,20.9378648 6.66887228,20.5261681 L6.66887228,13.1647653 C6.66143835,12.2787365 7.05105264,11.4359108 7.73080911,10.8675506 C8.29497058,10.3572989 9.0159262,10.0541397 9.77519958,10.0078919 L14.7092646,10.0078919 C14.9115427,10.0078919 14.918777,10.0078919 14.918777,10.2029358 L14.918777,17.9543324 L14.9186831,17.9543324 Z" id="路径" fill="#0166B3"></path>
        </g>
    </g>
</svg>