<?xml version="1.0" encoding="UTF-8"?>
<svg width="40px" height="40px" viewBox="0 0 40 40" version="1.1" xmlns="http://www.w3.org/2000/svg" xmlns:xlink="http://www.w3.org/1999/xlink">
    <title>icon/40/active/云闪付</title>
    <g id="icon/40/active/云闪付" stroke="none" stroke-width="1" fill="none" fill-rule="evenodd">
        <g id="云闪付">
            <circle id="椭圆形" stroke="#D82A29" stroke-width="0.833333333" fill="#FFFFFF" cx="20" cy="20" r="19.5833333"></circle>
            <path d="M32.7510888,4.5925787 C38.716257,9.52949733 41.2956864,17.466311 39.3726716,24.966849 C33.3249799,27.8614192 26.7043384,29.3605769 19.9996338,29.3536442 C13.2949292,29.3605769 6.67428772,27.8614192 0.626595947,24.966849 C0.210309457,23.3351098 0,21.6576982 0,19.9736949 C0.0100064504,12.2304035 4.48903583,5.1887553 11.4978633,1.89707597 C18.5066907,-1.39440324 26.7857205,-0.344339923 32.7510888,4.5925787 Z M28.8660347,21.653556 L28.1461799,21.653556 L28.5328242,24.2670069 L27.899424,25.3068638 L28.5660451,25.3068638 L30.7660349,21.6669645 L30.0261675,21.6669645 L29.1596201,23.3070005 C29.0887766,23.4397882 29.0285507,23.5779731 28.9795063,23.7202616 C28.9888806,23.5826674 28.9888806,23.4445947 28.9795063,23.3070005 L28.8660347,21.653556 L28.8660347,21.653556 Z M26.7260829,21.5869139 C26.3801342,21.590654 26.0374006,21.6538123 25.7128428,21.7736319 L25.7728807,22.220314 C26.0214087,22.1304059 26.2821376,22.0787189 26.5461692,22.0670172 C26.8461587,22.0670172 27.0060597,22.1670804 26.9462219,22.440253 L26.9462219,22.5735372 C26.1461165,22.6203668 25.3662238,22.7602551 25.2061227,23.4737058 C25.0860469,24.0068426 25.4062491,24.3202406 26.1927459,24.3202406 L26.1863419,24.3202406 L26.2535844,24.3200404 C26.5443681,24.3144369 26.8319497,24.2600025 27.104722,24.1587385 L27.1861735,24.1269184 L27.5528051,22.5136994 C27.7061019,21.8468782 27.392704,21.5871141 26.726283,21.5871141 L26.7260829,21.5869139 Z M18.4128314,21.6137309 C17.6621936,21.6484815 17.0388799,22.2050444 16.9196882,22.9469731 C16.7395744,23.7268657 17.0263556,24.3202406 17.7930399,24.3202406 C18.5545028,24.2769163 19.1795306,23.7021454 19.2863832,22.9469731 C19.4662969,22.1936972 19.1729116,21.6137309 18.4130315,21.6137309 L18.4128314,21.6137309 Z M11.0131571,20.7471835 L10.346536,20.7471835 L9.77977796,23.2203458 C9.62648113,23.9135837 10.0665591,24.3070322 10.7331802,24.3070322 C11.401311,24.3225432 11.989819,23.8700371 12.146473,23.2203458 L12.7064267,20.7469834 L12.0398056,20.7469834 L11.4730476,23.2269499 C11.396415,23.5119649 11.1414913,23.7126633 10.8464518,23.7202616 C10.7181077,23.736805 10.5903527,23.6856877 10.508844,23.5851779 C10.4273352,23.4846681 10.4037053,23.3491102 10.4463991,23.2269499 L11.0131571,20.7469834 L11.0131571,20.7471835 Z M21.172975,21.5868874 C20.8026371,21.5854012 20.4348814,21.6485901 20.0862885,21.7736319 L19.5195305,24.2602026 L20.1863517,24.2602026 L20.6596507,22.1802888 C20.7909301,22.137134 20.9281207,22.1146515 21.0663076,22.1136467 C21.3662971,22.1136467 21.4929771,22.2737478 21.4329392,22.533712 L21.0396908,24.2602026 L21.6929034,24.2602026 L22.1061645,22.4670699 C22.2328445,21.9069161 21.9460633,21.5868874 21.172975,21.5868874 L21.172975,21.5868874 Z M16.6797366,21.6469519 L16.0131155,21.6469519 L15.4131365,24.2602026 L16.0795575,24.2602026 L16.6797366,21.6469519 Z M14.2463995,21.5868874 C13.8760616,21.5854012 13.5083059,21.6485901 13.1597131,21.7736319 L12.5931552,24.2602026 L13.2595761,24.2602026 L13.7330752,22.1802888 C13.8643547,22.137134 14.0015453,22.1146515 14.1397321,22.1136467 C14.4397216,22.1136467 14.5664016,22.2737478 14.5063637,22.533712 L14.1131153,24.2602026 L14.7663279,24.2602026 L15.1797891,22.4670699 C15.3064691,21.9069161 15.019688,21.5868874 14.2463995,21.5868874 Z M24.1994868,20.6803413 C23.8377928,20.6777404 23.4786471,20.7410113 23.1396173,20.8670592 L22.3663288,24.2535985 L23.0327498,24.2535985 L23.3395436,22.9203563 C23.4458946,22.9319745 23.5531947,22.9319745 23.6595457,22.9203563 L23.6661499,22.913552 C24.4054738,22.9898243 25.092279,22.5225467 25.2927774,21.8068529 C25.4462744,21.1204193 25.0662343,20.6803413 24.1994868,20.6803413 L24.1994868,20.6803413 Z M26.8595672,22.9869984 L26.6794534,23.7802995 C26.5536542,23.8158401 26.4235323,23.8337554 26.2928092,23.8335352 C25.9461902,23.8335352 25.7860891,23.6934446 25.846127,23.4468889 C25.9327817,23.0536405 26.3728597,22.9869984 26.8595672,22.9869984 L26.8595672,22.9869984 Z M18.2929557,22.1070425 C18.6663916,22.1070425 18.746242,22.4270446 18.6263663,22.9469731 C18.5062905,23.4669015 18.2463262,23.7802995 17.9129156,23.7802995 C17.5797051,23.7802995 17.4596293,23.4737058 17.5797051,22.9469731 C17.699781,22.4202403 17.9463367,22.1070425 18.2929557,22.1070425 Z M24.0796111,21.2136782 C24.519489,21.2136782 24.7060068,21.4070003 24.6195522,21.7802361 C24.5188614,22.1693585 24.1450521,22.423333 23.7462005,22.3736109 C23.6510629,22.3858091 23.554757,22.3858091 23.4596194,22.3736109 L23.7129795,21.2669118 C23.8316245,21.2299726 23.9553599,21.2120066 24.0796111,21.2136782 L24.0796111,21.2136782 Z M16.6303054,20.5120289 L16.5996861,20.513636 C16.3851941,20.5171753 16.1983126,20.6607303 16.1395954,20.8670592 C16.1153791,20.9571315 16.1365111,21.0533541 16.1962412,21.1249904 C16.2559714,21.1966267 16.3468266,21.2347142 16.4397851,21.2270866 C16.6553419,21.2204434 16.8415981,21.0745508 16.8996756,20.8668591 C16.924397,20.7774292 16.9032413,20.6815606 16.8431791,20.6108402 C16.7831168,20.5401198 16.6919387,20.5037208 16.5996861,20.513636 L16.6303054,20.5120289 Z M34.1929997,8.73059266 C33.9737063,8.88653081 33.8696677,9.15902051 33.929233,9.42142906 L33.9392394,9.46045371 L33.9392394,10.3670264 L29.8460537,10.3670264 L29.8056282,10.3686274 C29.4867203,10.3895465 29.2387492,10.6543165 29.2387492,10.9739098 C29.2387492,11.293503 29.4867203,11.558273 29.8056282,11.5791921 L29.8460537,11.580593 L33.9394395,11.580593 L33.9394395,16.6071683 L33.9382387,16.6375875 C33.9231493,16.848671 33.7556186,17.0167978 33.5445901,17.032637 L33.5125698,17.0336377 L32.9726288,17.0336377 L32.9320031,17.0308359 C32.710181,17.0227736 32.5016698,17.1365157 32.3883658,17.3273881 C32.2750618,17.5182605 32.2750618,17.7557772 32.3883658,17.9466495 C32.5016698,18.1375219 32.710181,18.251264 32.9320031,18.2432017 L32.9726288,18.2404 L33.8659931,18.2404 L33.9248303,18.2389991 C34.6150004,18.2085603 35.1675958,17.655965 35.1980345,16.9657948 L35.1992353,16.9071578 L35.1992353,11.5737887 L35.9993407,11.5737887 L36.0349632,11.5727881 C36.3546318,11.5526475 36.6035921,11.2875079 36.6035921,10.9672055 C36.6035921,10.6469031 36.3546318,10.3817635 36.0349632,10.361623 L35.9993407,10.3606223 L35.9993407,10.3672265 L35.2192479,10.3672265 L35.2192479,9.46065384 L35.2294544,9.42142906 C35.2907588,9.15177554 35.1792143,8.87227145 34.9490964,8.71891879 C34.7189786,8.56556614 34.4180747,8.57021076 34.1927995,8.73059266 L34.1929997,8.73059266 Z M24.5062806,14.5272544 L23.226272,15.8140673 L23.2528889,16.6005641 L23.2518882,16.6309833 C23.2367862,16.8421369 23.0691461,17.0102881 22.8580394,17.0260328 L22.8262193,17.0272336 L22.2862783,17.0272336 L22.2456526,17.0244318 C22.0238305,17.0163696 21.8153193,17.1301117 21.7020153,17.3209841 C21.5887113,17.5118564 21.5887113,17.7493731 21.7020153,17.9402455 C21.8153193,18.1311178 22.0238305,18.2448599 22.2456526,18.2367977 L22.2862783,18.2339959 L23.1728383,18.2339959 L23.2316755,18.232595 C23.9218456,18.2021563 24.474441,17.6495609 24.5048797,16.9593908 L24.5062806,16.9005536 L24.5062806,14.5272544 L24.5062806,14.5272544 Z M13.2343602,12.5241891 L13.192934,12.527191 L4.30652054,12.527191 L4.27049778,12.531994 C3.9709058,12.5812252 3.75103954,12.8401704 3.75103954,13.1437805 C3.75103954,13.4473905 3.9709058,13.7063357 4.27049778,13.7555669 L4.30652054,13.7603699 L5.74663025,13.7603699 L4.70657325,16.3870292 L4.68776136,16.4408632 C4.55830943,16.8384115 4.62284233,17.2736624 4.86207531,17.6165473 C5.1013083,17.9594322 5.4875326,18.170237 5.9053305,18.1859656 L5.95996501,18.1869662 L11.7930497,18.1869662 L11.8528875,18.1857654 C12.6194686,18.153594 13.2233316,17.5209083 13.219751,16.7536608 C13.2224401,16.5782287 13.1904761,16.4039909 13.1256916,16.2409369 L13.0996751,16.1804987 L12.619772,15.1470459 L12.5951564,15.1170269 C12.4004834,14.892622 12.0808108,14.824118 11.8112778,14.9490462 C11.5417447,15.0739744 11.3874072,15.3621815 11.4328222,15.6557673 L11.4398266,15.6937913 L11.7730371,16.4202502 L11.7878464,16.4504693 C11.8050573,16.4914952 11.8138629,16.5357231 11.8130624,16.5805514 C11.8130624,16.7766753 11.6615667,16.9377771 11.4688449,16.9527866 L11.4398266,16.9537872 L6.48669774,16.9537872 L6.4560784,16.9525865 C6.23285265,16.9366311 6.05988842,16.7509129 6.05982809,16.5271177 C6.06102885,16.4858916 6.06763302,16.4450659 6.07944048,16.4058411 L6.0932492,16.3670166 L7.1265019,13.7603699 L13.1931342,13.7603699 L13.2345603,13.7633718 C13.4612306,13.7715207 13.6742586,13.6552418 13.7900116,13.4601853 C13.9057646,13.2651288 13.9057646,13.0224321 13.7900116,12.8273756 C13.6742586,12.6323191 13.4612306,12.5160403 13.2345603,12.5241891 L13.2343602,12.5241891 Z M28.3192893,10.7470665 L27.0392807,12.027075 L27.0392807,17.5937915 L27.0512883,17.6302145 C27.1457865,17.8959778 27.3973212,18.0735015 27.6793851,18.0735015 C27.9614489,18.0735015 28.2129836,17.8959778 28.3074818,17.6302145 L28.3192893,17.5937915 L28.3192893,10.7472666 L28.3192893,10.7470665 Z M15.5398165,10.9439909 C15.3205232,11.099929 15.2164845,11.3724187 15.2760499,11.6348273 L15.2860563,11.6738519 L15.2860563,17.5935914 L15.2980638,17.6302145 C15.392562,17.8959778 15.6440967,18.0735015 15.9261606,18.0735015 C16.2082245,18.0735015 16.4597592,17.8959778 16.5542574,17.6302145 L16.566265,17.5937915 L16.566265,11.6738519 L16.5762713,11.6348273 C16.6375757,11.3651737 16.5260311,11.0856696 16.2959133,10.932317 C16.0657955,10.7789643 15.7648916,10.7836089 15.5396164,10.9439909 L15.5398165,10.9439909 Z M29.917699,12.2968454 C29.643344,12.3413613 29.4254009,12.5514296 29.3708233,12.8239615 C29.3162456,13.0964933 29.4364886,13.3742873 29.6725441,13.5210188 L29.7059652,13.540431 L31.5659402,15.4004059 L31.5963594,15.4298245 C31.846887,15.6556459 32.2312164,15.6426433 32.4659087,15.4004059 C32.7068269,15.154698 32.7211335,14.7659927 32.4989295,14.5032392 L32.4725128,14.4738206 L30.6125379,12.6406626 L30.5933258,12.6068413 C30.4519237,12.375957 30.1849225,12.2535287 29.917699,12.2970456 L29.917699,12.2968454 Z M16.5096292,8.7816249 C16.3449251,8.7816249 16.1874256,8.84866725 16.0729533,8.96714209 C15.8436833,9.19814325 15.8320605,9.56710224 16.0463365,9.81207583 L16.0729533,9.84049378 L16.4864145,10.253955 L16.5264398,10.2877763 C16.6901519,10.4188784 16.8909403,10.4951892 17.1004024,10.5059141 L17.1530356,10.5071149 L22.8196152,10.5071149 L22.8500344,10.5083156 C23.0611179,10.5234051 23.2292447,10.6909358 23.2450839,10.9019643 L23.2462847,10.9339845 L23.2462847,13.3070836 L22.6194887,13.9338796 L20.5595875,11.8737782 L20.5283678,11.8469613 C20.2840117,11.649771 19.9351948,11.649771 19.6908387,11.8469613 L19.659619,11.8737782 L19.2249444,12.3084528 L19.219541,12.2938436 L17.1596398,14.3537448 L17.1416284,14.3909683 C17.0285848,14.643321 17.0830688,14.9392635 17.2785725,15.1348117 C17.4740762,15.3303598 17.7700063,15.3849111 18.0223848,15.2719248 L18.0596083,15.2539134 L19.6996443,13.6070731 L19.2387531,12.3462767 L22.0463267,15.1538502 L22.0791474,15.1850699 C22.3829359,15.4572154 22.8428332,15.4572154 23.1466217,15.1850699 L23.1796426,15.1538502 L28.339502,9.97377798 L28.366319,9.94275838 C28.5636169,9.69836532 28.5636169,9.34942226 28.366319,9.10502919 L28.339502,9.07380947 L28.339502,9.08721794 L28.3084824,9.06080126 C28.0652838,8.8669283 27.7203559,8.8669283 27.4771573,9.06080126 L27.4461377,9.08721794 L24.5328974,11.9738414 L24.5328974,10.6405992 L24.5320969,10.5937696 C24.5075199,9.89406803 23.9459863,9.33253439 23.2462847,9.30795738 L23.1996552,9.30715688 L17.4530251,9.30715688 L17.4184032,9.30515561 C17.3383527,9.29715056 17.2623046,9.26653121 17.1992648,9.21649961 L17.1730483,9.19388532 L16.946305,8.96714209 L16.9168864,8.93872414 C16.8053321,8.83763489 16.6601729,8.7816249 16.5096292,8.7816249 L16.5096292,8.7816249 Z M12.5863509,9.32056535 L4.89989537,9.32056535 L4.86387261,9.32156598 C4.53924338,9.34013138 4.28550726,9.60879315 4.28550726,9.93395282 C4.28550726,10.2591125 4.53924338,10.5277743 4.86387261,10.5463397 L4.89989537,10.5471402 L12.5863509,10.5471402 L12.6273768,10.5457393 C12.9560732,10.5220044 13.2072727,10.2427841 13.1962436,9.91341647 C13.1852144,9.58404887 12.9158987,9.32225835 12.5863509,9.32056535 L12.5863509,9.32056535 Z" id="形状" fill="#D82A29" fill-rule="nonzero"></path>
            <path d="M16.7835578,30.7001045 L20.3566149,30.7001045 C20.523285,30.6969504 20.6818435,30.7719072 20.7851878,30.9027079 C20.8885321,31.0335086 20.9247741,31.2051065 20.8831475,31.3665255 L19.6231516,36.8331788 C19.5113435,37.2239184 19.1563907,37.494994 18.75,37.5 L15.1967554,37.5 C15.0290401,37.5060102 14.868499,37.4317405 14.764497,37.3000283 C14.6604949,37.1683161 14.6254814,36.9949278 14.6702228,36.8331788 L15.9370231,31.4199593 C16.0260471,31.0174434 16.3719673,30.7232887 16.7835578,30.7001045 Z" id="路径" fill="#DE3232" fill-rule="nonzero"></path>
            <path d="M19.8901202,30.7001045 L23.416748,30.7001045 C23.796788,30.7001045 23.6300827,31.0133024 23.5368238,31.3665255 L22.2966404,36.8331788 C22.2099857,37.213419 22.2366025,37.5 21.8567625,37.5 L18.3101221,37.5 C18.1423722,37.5060759 17.9817712,37.431834 17.8777219,37.300112 C17.7736725,37.16839 17.7386358,36.9949628 17.7833894,36.8331788 L19.0433853,31.4199593 C19.1368444,31.0401193 19.4588085,30.7349137 19.8901202,30.7001045 Z" id="路径" fill="#004888" fill-rule="nonzero"></path>
            <path d="M24.9699291,30.7001045 C25.136634,30.6968868 25.2952511,30.7718168 25.398642,30.9026267 C25.5020329,31.0334366 25.5382987,31.2050719 25.4966618,31.3665255 L24.2366659,36.8331788 C24.1293385,37.2048057 23.8024483,37.4706583 23.416748,37.5 L21.4967351,37.5 C21.3289852,37.5060759 21.1683841,37.431834 21.0643348,37.300112 C20.9602855,37.16839 20.9252488,36.9949628 20.9700024,36.8331788 L22.2299983,31.4199593 C22.3407657,31.0397384 22.6809342,30.7719462 23.076533,30.7535383 L23.5368238,30.7001045 L24.9699291,30.7001045 Z" id="路径" fill="#008089" fill-rule="nonzero"></path>
        </g>
    </g>
</svg>