<?xml version="1.0" encoding="UTF-8"?>
<svg width="40px" height="40px" viewBox="0 0 40 40" version="1.1" xmlns="http://www.w3.org/2000/svg" xmlns:xlink="http://www.w3.org/1999/xlink">
    <title>icon/40/active/銀聯</title>
    <g id="icon/40/active/銀聯" stroke="none" stroke-width="1" fill="none" fill-rule="evenodd">
        <g id="union-pay备份" transform="translate(0.000225, 0.000000)" fill-rule="nonzero">
            <path d="M0.0021942717,20.0010972 C0.0021942717,27.1462275 3.81357878,33.7487353 10.0013905,37.3213917 C16.1892023,40.894048 23.812992,40.894048 30.0008037,37.3213917 C36.1886155,33.7487353 40,27.1462275 40,20.0010972 C40,12.8559668 36.1886155,6.25345899 30.0008037,2.68080266 C23.812992,-0.891853674 16.1892023,-0.891853674 10.0013905,2.68080266 C3.81357878,6.25345899 0.0021942717,12.8559668 0.0021942717,20.0010972 L0.0021942717,20.0010972 Z" id="路径" fill="#203D74"></path>
            <path d="M17.0036163,0.224492476 C7.37997883,1.67019018 0,9.9726136 0,20.0001688 C0,26.8401842 3.43642265,32.8758244 8.6743551,36.4821356 L16.8236004,0.707404439 C16.8611565,0.541566944 16.9234405,0.379864866 17.0036163,0.224492476 Z" id="路径" fill="#ED171F"></path>
            <path d="M17.0036163,0.224492476 C16.9234404,0.379864905 16.8611565,0.541566983 16.8236004,0.707320063 L8.6743551,36.4820512 C11.3784766,38.3439039 14.5612902,39.5591171 18.002439,39.90016 L26.8176505,1.19402986 C24.689867,0.422484706 22.3941362,0 19.9994936,0 C18.9814287,0 17.9812557,0.0776440071 17.0036163,0.224492476 Z" id="路径" fill="#082F67"></path>
            <path d="M19.9998312,40.0002532 C31.0457889,40.0002532 40,31.0454513 40,20.0000844 C40,11.3487693 34.5065175,3.98170302 26.8180725,1.19394545 L18.0027766,39.90016 C18.6663842,39.9666952 19.3328965,40.0002532 19.9998312,40.0002532 L19.9998312,40.0002532 Z" id="路径" fill="#006A65"></path>
            <path d="M17.807907,22.3341309 L17.9645454,22.3341309 C18.1094528,22.3341309 18.2064234,22.2848438 18.2519126,22.1892235 L18.6602189,21.5778614 L19.7544086,21.5778614 L19.5261184,21.9792471 L20.8372894,21.9792471 L20.6711987,22.5953355 L19.1105541,22.5953355 C18.9312133,22.8659924 18.7095059,22.993261 18.4439128,22.9784074 L17.6310981,22.9784074 L17.807907,22.3341309 M17.6278911,23.21615 L20.5015634,23.21615 L20.3184249,23.8853232 L19.1629638,23.8853232 L18.9864081,24.5317096 L20.1113179,24.5317096 L19.9281793,25.2002076 L18.8036915,25.2002076 L18.5422337,26.154807 C18.4778398,26.3145679 18.5624043,26.3859667 18.7964334,26.3695095 L19.7122108,26.3695095 L19.5426599,26.9919276 L17.7834323,26.9919276 C17.449985,26.9919276 17.3352913,26.8008558 17.4401951,26.418459 L17.77398,25.2004608 L17.0549289,25.2004608 L17.2374767,24.5319628 L17.9561902,24.5319628 L18.1324084,23.8855764 L17.4455964,23.8855764 L17.6278911,23.21615 L17.6278911,23.21615 Z M22.2141203,21.5727976 L22.1689686,21.9643935 C22.1689686,21.9643935 22.7105356,21.557944 23.2028998,21.557944 L25.0221328,21.557944 L24.3264593,24.0757198 C24.2683951,24.3636778 24.0211158,24.5067284 23.5843682,24.5067284 L21.5225822,24.5067284 L21.0397546,26.2751552 C21.0119884,26.369594 21.0514012,26.4182058 21.1552922,26.4182059 L21.560729,26.4182059 L21.4116863,26.9670309 L20.3800337,26.9670309 C19.9843868,26.9670309 19.8198153,26.8479486 19.8852219,26.6086025 L21.249731,21.5727132 L22.2141203,21.5727976 L22.2141203,21.5727976 Z M23.7542567,22.2845906 L22.1308217,22.2845906 L21.9366273,22.9641445 C21.9366273,22.9641445 22.2069466,22.7686842 22.658801,22.7617637 C23.109727,22.7550964 23.6238654,22.7617637 23.6238654,22.7617637 L23.7542567,22.2845906 Z M23.1661877,23.8612704 C23.2861984,23.87739 23.3534617,23.8297064 23.3613105,23.7175446 L23.460813,23.3597914 L21.8348461,23.3597914 L21.6984627,23.8612704 L23.1661877,23.8612704 L23.1661877,23.8612704 Z M22.0694661,24.6747602 L23.0067643,24.6747602 L22.9893788,25.0799438 L23.2388524,25.0799438 C23.3648551,25.0799438 23.4273923,25.0398558 23.4273923,24.9602707 L23.5013229,24.697547 L24.2803793,24.697547 L24.1761507,25.0799438 C24.0887167,25.3995502 23.8546876,25.5653033 23.4760886,25.5820136 L22.9768039,25.5820136 L22.9746096,26.2751552 C22.9654948,26.3863043 23.0658413,26.4428494 23.2724419,26.4428494 L23.7416818,26.4428494 L23.5901071,26.9916744 L22.4646066,26.9916744 C22.1494732,27.006528 21.9946915,26.8558818 21.997561,26.5372881 L22.0694661,24.6747602 L22.0694661,24.6747602 Z M26.052857,22.3613063 L26.2700914,21.5964284 L27.3690074,21.5964284 L27.3216614,21.8771284 C27.3216614,21.8771284 27.8831458,21.5964284 28.2879918,21.5964284 L29.647184,21.5964284 L29.4308779,22.3613063 L29.2171037,22.3613063 L28.1920339,25.9688833 L28.4058081,25.9688833 L28.2024146,26.6857401 L27.9883028,26.6857401 L27.8996029,26.9964849 L26.8351204,26.9964849 L26.9241579,26.6857401 L24.8244781,26.6857401 L25.0291376,25.9688833 L25.2394516,25.9688833 L26.2654497,22.3613063 L26.052857,22.3613063 M27.2382785,22.3613063 L26.9588445,23.3377641 C26.9588445,23.3377641 27.4372835,23.1539504 27.8497251,23.1022158 C27.9409568,22.7611729 28.0600391,22.3613907 28.0600391,22.3613907 L27.2382785,22.3613907 L27.2382785,22.3613063 Z M26.8293815,23.795273 L26.5486815,24.8178109 C26.5486815,24.8178109 27.0788551,24.557619 27.4430224,24.5348322 C27.508929,24.2871379 27.5790438,24.0405825 27.6533364,23.795273 L26.8293815,23.795273 L26.8293815,23.795273 Z M27.0352225,25.9685458 L27.2455365,25.2264547 L26.4247887,25.2264547 L26.2135464,25.9685458 L27.0352225,25.9685458 L27.0352225,25.9685458 Z M29.693264,21.5487448 L30.7261825,21.5487448 L30.7700683,21.9298757 C30.763401,22.0268463 30.8208744,22.0729263 30.9434169,22.0729263 L31.1259648,22.0729263 L30.9412227,22.7193127 L30.1817461,22.7193127 C29.891847,22.7341663 29.7424667,22.623608 29.7288789,22.3835867 L29.693264,21.5487448 L29.693264,21.5487448 Z M29.3903679,22.9340997 L32.737078,22.9340997 L32.5403517,23.6272412 L31.475194,23.6272412 L31.2926462,24.2723617 L32.3568755,24.2723617 L32.1592209,24.9642374 L30.973715,24.9642374 L30.7053368,25.3700117 L31.2857257,25.3700117 L31.4196617,26.1822356 C31.4357812,26.2630866 31.5074332,26.3025838 31.6299756,26.3025838 L31.8099916,26.3025838 L31.6205234,26.9710818 L30.9826609,26.9710818 C30.6519987,26.9877922 30.4811819,26.8766431 30.4670034,26.637297 L30.3134877,25.8952059 L29.7855084,26.6846429 C29.660434,26.9078695 29.4684339,27.0115074 29.2100988,26.9953878 L28.2355821,26.9953878 L28.4253879,26.3262146 L28.7292123,26.3262146 C28.8542867,26.3262146 28.9581777,26.2705978 29.0516037,26.1585204 L29.8780061,24.9638998 L28.8122577,24.9638998 L29.0099123,24.2720241 L30.1653733,24.2720241 L30.3491871,23.6269037 L29.1927977,23.6269037 L29.3903679,22.9340997 L29.3903679,22.9340997 Z M10.7125104,18.2181543 C10.5852417,18.8412475 10.2906165,19.3190114 9.83369834,19.6591259 C9.38057801,19.9935859 8.79630685,20.160605 8.08105361,20.160605 C7.40782939,20.160605 6.91453674,19.9897881 6.5996565,19.6468042 C6.3814093,19.4027319 6.27253892,19.0929154 6.27253892,18.7187051 C6.27253892,18.5640078 6.29119037,18.397242 6.32815568,18.2184919 L7.09050168,14.5436516 L8.24157416,14.5436516 L7.48969319,18.1764629 C7.46819648,18.2678319 7.45771312,18.3614455 7.45846678,18.4553062 C7.45720084,18.6416518 7.50395606,18.7944923 7.59679129,18.9134902 C7.73351227,19.090046 7.95454449,19.1774799 8.26250429,19.1774799 C8.61679728,19.1774799 8.90863749,19.0912275 9.13498665,18.9166129 C9.36175782,18.742589 9.50953461,18.4972508 9.57578519,18.1763785 L10.3298605,14.5435671 L11.4749408,14.5435671 L10.7125104,18.2181543 M11.7728575,16.7711907 L12.5856722,16.7711907 L12.4924994,17.2449036 L12.6090497,17.1103769 C12.8727018,16.8277358 13.1929833,16.6878922 13.570654,16.6878922 C13.9126252,16.6878922 14.1593137,16.7870571 14.3143485,16.9875812 C14.4665983,17.1875145 14.5079522,17.4638259 14.4362159,17.8184565 L13.9884125,20.0530005 L13.152811,20.0530005 L13.5569818,18.0275045 C13.5986733,17.8184565 13.5869423,17.6624933 13.522886,17.5617249 C13.4594204,17.461294 13.3378063,17.4110786 13.1631917,17.4110786 C12.947814,17.4110786 12.7672072,17.478342 12.6196836,17.6110119 C12.4715692,17.7455386 12.3743454,17.9312091 12.3259867,18.1680233 L11.9533798,20.0530005 L11.1162592,20.0530005 L11.7728575,16.7711907 M21.0952869,16.7711907 L21.9087767,16.7711907 L21.8162791,17.2449036 L21.9318168,17.1103769 C22.1954688,16.8277358 22.5169319,16.6878922 22.8934209,16.6878922 C23.2353922,16.6878922 23.4826715,16.7870571 23.6364404,16.9875812 C23.788015,17.1875145 23.8319007,17.4638259 23.7580545,17.8184565 L23.3121922,20.0530005 L22.4753248,20.0530005 L22.8798332,18.0275045 C22.9215247,17.8184565 22.9097937,17.6624933 22.8466658,17.5617249 C22.7806683,17.461294 22.6615861,17.4110786 22.4869714,17.4110786 C22.2719313,17.4110786 22.0915778,17.478342 21.942535,17.6110119 C21.7947582,17.7455386 21.6961841,17.9312091 21.650104,18.1680233 L21.2755561,20.0530005 L20.4397014,20.0530005 L21.0952869,16.7711907 M15.546272,16.7724566 L16.4475333,16.7724566 L15.7413948,20.0519033 L14.841737,20.0519033 L15.546272,16.7724566 M15.8298415,15.577836 L16.7392891,15.577836 L16.5694007,16.3739403 L15.659953,16.3739403 L15.8298415,15.577836 Z M17.2454943,19.8027673 C17.009946,19.577009 16.8908638,19.2735221 16.8895978,18.8875808 C16.8895978,18.8215834 16.8937332,18.7463868 16.9022572,18.6643542 C16.9111187,18.5809713 16.9221746,18.5001203 16.9376189,18.4250081 C17.0443795,17.8925559 17.2720789,17.4697336 17.6229117,17.1574697 C17.9728162,16.844193 18.3953009,16.6869638 18.8898595,16.6869638 C19.295043,16.6869638 19.6165061,16.8003072 19.8514636,17.0267408 C20.0867588,17.2550311 20.2044907,17.5619781 20.2044907,17.9532364 C20.2044907,18.019909 20.1990894,18.097553 20.1905654,18.1802607 C20.1804495,18.2621938 20.1679254,18.3438116 20.1530094,18.4250081 C20.0484432,18.9498648 19.8214188,19.3679609 19.4709236,19.6745703 C19.1200908,19.9831209 18.6987877,20.1372274 18.2077737,20.1372274 C17.8009866,20.1372274 17.4807894,20.0254031 17.2454943,19.8027673 M18.9631149,19.1531739 C19.1222851,18.980416 19.2356285,18.7196334 19.3054237,18.3715857 C19.3158043,18.3172349 19.3250035,18.2604366 19.330658,18.2038915 C19.3363125,18.1482747 19.3385912,18.097131 19.3385912,18.0491943 C19.3385912,17.8474042 19.2874474,17.6901751 19.1838939,17.5792792 C19.0809312,17.4672017 18.9350111,17.411585 18.7458805,17.411585 C18.4964069,17.411585 18.2927601,17.4990189 18.1335899,17.6749839 C17.9728162,17.8508644 17.8591352,18.1164576 17.7874833,18.4701598 C17.7779392,18.5240752 17.7695259,18.5781847 17.762249,18.6324527 C17.7559193,18.6868035 17.7546534,18.7372721 17.7555817,18.7836897 C17.7555817,18.9848046 17.8074007,19.1395862 17.9106166,19.2494694 C18.0132417,19.3593525 18.1588242,19.4137033 18.3502336,19.4137033 C18.6012263,19.4131125 18.8045354,19.3265226 18.9631149,19.1531739 M25.1168247,14.737846 L27.4788905,14.737846 C27.9330236,14.737846 28.2844472,14.8401335 28.5257344,15.0425987 C28.7660088,15.2472582 28.886357,15.5408707 28.886357,15.9233519 L28.886357,15.9349984 C28.886357,16.0076631 28.8816309,16.0896957 28.8747104,16.17848 C28.8629142,16.2689341 28.8475421,16.3588859 28.8286304,16.4481241 C28.7250769,16.9539917 28.4831146,17.361032 28.1101701,17.669245 C27.7356222,17.9765296 27.2919542,18.1312268 26.7810228,18.1312268 L25.5147503,18.1312268 L25.1228168,20.0530849 L24.0260951,20.0530849 L25.1168247,14.737846 M25.7076787,17.2073475 L26.7579828,17.2073475 C27.0317623,17.2073475 27.2489967,17.1432068 27.4075762,17.0178792 C27.5648053,16.890273 27.6684432,16.695741 27.7265074,16.4324265 C27.7357065,16.3844054 27.7413611,16.3399289 27.7482815,16.2997565 C27.7517417,16.2615253 27.7562147,16.2232941 27.7562147,16.1864132 C27.7562147,15.9982108 27.6892889,15.8620806 27.555353,15.7761658 C27.4208263,15.6893227 27.2105123,15.6479688 26.9193473,15.6479688 L26.0272851,15.6479688 L25.7076787,17.2073475 L25.7076787,17.2073475 Z M33.7953152,20.6879091 C33.4486178,21.4249364 33.1179556,21.8547635 32.9240144,22.0546125 C32.72982,22.2526047 32.3451445,22.7120547 31.4180581,22.6777056 L31.4976432,22.1152929 C32.2779656,21.8746809 32.6998595,20.7918001 32.9398808,20.3124328 L32.6534419,16.7813182 L33.2566177,16.7727942 L33.7631605,16.7727942 L33.8177645,18.9883492 L34.7663717,16.7727942 L35.72671,16.7727942 L33.7953152,20.6879091 M31.1098452,17.0396533 L30.7283768,17.3017862 C30.3295229,16.9897755 29.9657776,16.7965094 29.2630993,17.1230362 C28.3062212,17.5663667 27.5064035,20.9699594 30.1413206,19.8492694 L30.2912916,20.027091 L31.328008,20.0535912 L32.0084902,16.961081 L31.1098452,17.0396533 M30.5203415,18.7303517 C30.3542508,19.2213656 29.9818971,19.5463733 29.6907321,19.4537913 C29.399567,19.3638255 29.2953384,18.8894375 29.4642985,18.3971575 C29.6307268,17.9048776 30.0052747,17.5818111 30.2939079,17.6737179 C30.5850729,17.7643589 30.6904831,18.2380717 30.5203415,18.7303517" id="形状" fill="#FFFFFF"></path>
        </g>
    </g>
</svg>