<?xml version="1.0" encoding="UTF-8"?>
<svg width="40px" height="40px" viewBox="0 0 40 40" version="1.1" xmlns="http://www.w3.org/2000/svg"
    xmlns:xlink="http://www.w3.org/1999/xlink">
    <title>编组 8</title>
    <g id="组织架构" stroke="none" stroke-width="1" fill="none" fill-rule="evenodd">
        <g id="编组-8">
            <circle id="椭圆形" fill="#1A1F71" fill-rule="nonzero" cx="20" cy="20" r="20"></circle>
            <path
                d="M24.28125,15 C25.25,15 26.0375,15.2180676 26.53125,15.4112131 L26.53125,15.4112131 L26.1875,17.5046618 L25.9625,17.3987433 C25.5125,17.2055977 24.9125,17.0124521 24.09375,17.0311436 C23.10625,17.0311436 22.6625,17.4548178 22.65,17.8660309 C22.65,18.3208575 23.1875,18.6199216 24.06875,19.0622873 C25.5125,19.753873 26.1875,20.5949908 26.175,21.6977896 C26.15625,23.7040112 24.4375,25.0061861 21.8,24.9999779 C20.675,24.9874946 19.5875,24.7507356 19,24.482824 L19,24.482824 L19.35,22.3083788 L19.68125,22.4641413 C20.5,22.8255105 21.0375,22.981273 22.0375,22.981273 C22.75625,22.981273 23.53125,22.6822089 23.54375,22.0342367 C23.54375,21.6167931 23.2125,21.305268 22.24375,20.8317498 C21.29375,20.3644622 20.025,19.5918799 20.04375,18.202478 C20.05625,16.3208664 21.8,15 24.28125,15 Z M19.00625,15.1806846 L17.43125,24.8628846 L14.925,24.8628846 L16.49375,15.1806846 L19.00625,15.1806846 Z M32.975,15.1806846 L35,24.8628846 L32.675,24.8628846 C32.675,24.8628846 32.45,23.7538552 32.375,23.4111776 L32.375,23.4111776 L29.15,23.4111776 C29.05625,23.6666282 28.625,24.8628846 28.625,24.8628846 L28.625,24.8628846 L25.9875,24.8628846 L29.71875,15.9844193 C29.975,15.3551386 30.43125,15.1806846 31.03125,15.1806846 L31.03125,15.1806846 L32.975,15.1806846 Z M8.0875,15.1806846 C8.6375,15.2056066 9.08125,15.3800606 9.225,15.9968803 L9.225,15.9968803 L10.1,20.4454587 L10.36875,21.7850166 L12.825,15.1806846 L15.48125,15.1806846 L11.53125,24.8504236 L8.875,24.8504236 L6.6375,16.439246 C5.86875,15.9844193 4.9875,15.6230502 4,15.3738301 L4,15.3738301 L4.04375,15.1806846 Z M31.20625,17.7912649 C31.08125,18.152634 30.8625,18.7383012 30.875,18.7196097 C30.875,18.7196097 30.6765625,19.2585481 30.4523438,19.8668008 L30.2666416,20.3704025 C30.102686,20.8148605 29.95,21.2282363 29.875,21.429878 L29.875,21.429878 L31.9625,21.429878 C31.9190341,21.2310684 31.8138559,20.7257026 31.7047315,20.1978712 L31.6320313,19.8457729 C31.5,19.2055888 31.38125,18.6261521 31.38125,18.6261521 L31.38125,18.6261521 Z"
                id="形状结合" fill="#FFFFFF"></path>
        </g>
    </g>
</svg>