<?xml version="1.0" encoding="UTF-8"?>
<svg width="40px" height="40px" viewBox="0 0 40 40" version="1.1" xmlns="http://www.w3.org/2000/svg" xmlns:xlink="http://www.w3.org/1999/xlink">
    <title>icon/40/active/微信</title>
    <g id="icon/40/active/微信" stroke="none" stroke-width="1" fill="none" fill-rule="evenodd">
        <g id="icon">
            <circle id="椭圆形" fill="#3FB639" cx="20" cy="20" r="20"></circle>
            <path d="M29.6597241,15.1458505 C30.4722064,16.409727 30.8333333,17.9444438 30.8333333,19.4791606 C30.8333333,24.7152783 25.9583232,28.9583406 19.9999903,28.9583406 C18.5555601,28.9583406 17.2013971,28.6875002 15.9375012,28.2361061 L12.9583154,29.8611095 C12.8680288,29.8611095 12.7777422,29.8611095 12.687475,29.7708229 L12.687475,29.5902691 L13.2291752,26.8819431 C10.7013835,25.0764053 9.16666667,22.458327 9.16666667,19.4791606 C9.16666667,14.2430623 14.0416575,10 19.9999903,10 C23.7013912,10 26.9513786,11.6250034 28.8472224,14.0625085 L17.7430196,19.1180531 C17.4721986,19.2083396 17.2013777,19.2083396 16.9305373,19.0277859 L14.402765,17.1319421 C14.2221918,16.9513883 14.0416381,17.0416749 13.9513709,17.1319421 C13.8610843,17.2222287 13.8610843,17.4027825 13.8610843,17.4930497 L16.2083222,22.458327 C16.2985894,22.7291674 16.6596969,22.8194346 16.9305373,22.7291674 L17.0208045,22.7291674 L29.6597047,15.1458312 L29.6597241,15.1458505 Z" id="路径备份" fill="#FFFFFF" fill-rule="nonzero"></path>
        </g>
    </g>
</svg>