<svg xmlns="http://www.w3.org/2000/svg" viewBox="0 0 32 32" class="design-iconfont">
  <g fill="none" fill-rule="evenodd">
    <rect fill="#FBA21F" width="32" height="32" rx="16"/>
    <g fill="#FFF" fill-rule="nonzero">
      <path d="M18.1704161,2.44098284 L17.2035661,2.44098284 C17.123793,2.44098284 17.0567836,2.5012932 17.0472108,2.58064895 L17.0280653,2.7414766 L17.0089197,2.90230426 C17.0014742,2.96155655 16.9312739,2.98906654 16.886601,2.94885963 L16.7664095,2.84199389 C16.5930359,2.68857277 16.4217897,2.57112626 16.254798,2.49494474 C16.0090968,2.37961439 15.7080863,2.32142017 15.3613392,2.32142017 C14.6252994,2.32142017 14.012642,2.58382318 13.5403852,3.10016459 C13.0766375,3.61544792 12.8415728,4.28521044 12.8415728,5.09146485 C12.8415728,5.79085352 13.0479192,6.36856337 13.4542302,6.80872325 C13.8605412,7.24888314 14.3934256,7.47319539 15.0379922,7.47319539 C15.4443033,7.47319539 15.8474233,7.34093581 16.2345888,7.08064895 L16.4377443,6.94415707 C16.4717808,6.92193746 16.5164538,6.94944745 16.5111356,6.98965436 L16.48029,7.23301199 L16.4728445,7.29120621 C16.4696535,7.31448389 16.48029,7.33035504 16.4877355,7.33881966 C16.4941173,7.34622619 16.5090083,7.35892311 16.5324084,7.35892311 L17.503513,7.35892311 C17.5811588,7.35892311 17.6460409,7.3007289 17.6556137,7.2234893 L18.2321073,2.50764166 C18.2352982,2.48436398 18.2246618,2.46849283 18.2172163,2.46108629 C18.2087072,2.45367976 18.1938162,2.44098284 18.1704161,2.44098284 Z M16.3622258,5.98024924 C16.055897,6.32306607 15.705959,6.48812603 15.287948,6.48812603 C14.9178008,6.48812603 14.6104084,6.35269222 14.37428,6.08499882 C14.1349607,5.81307312 14.0179602,5.47237244 14.0179602,5.04490948 C14.0179602,4.55396191 14.1572972,4.15189278 14.445544,3.81330825 C14.7337908,3.47895603 15.0794743,3.31601223 15.5038672,3.31601223 C15.8931599,3.31601223 16.2026796,3.44827181 16.4494444,3.72019751 C16.6951455,3.9878909 16.814279,4.32859158 16.814279,4.75922878 C16.815337,5.23324712 16.6664272,5.63214202 16.3622258,5.98024924 Z" transform="translate(4 12)"/>
      <path d="M23.9406706,2.44098284 L22.7983198,2.44098284 C22.7376922,2.44098284 22.6813192,2.47378321 22.6515373,2.52668704 L21.1230846,5.24382789 L21.0709662,5.33693863 C21.0262932,5.41735246 20.908229,5.40888784 20.8752561,5.32212556 L20.8369651,5.22266635 L19.8094875,2.54890665 C19.7839601,2.4833059 19.7222689,2.44098284 19.6520686,2.44098284 L18.6033182,2.44098284 C18.5756635,2.44098284 18.5597089,2.45791206 18.553327,2.46743475 C18.5469452,2.47695744 18.5373724,2.49811897 18.5480088,2.52351281 L20.2264349,6.66059252 L20.2360077,6.68387021 C20.2487714,6.71561251 20.2466441,6.75052904 20.2296258,6.78015518 L20.2168621,6.80131672 L19.0075019,8.90900541 C18.9926109,8.93545732 19.00112,8.95767693 19.0075019,8.96931578 C19.0138837,8.98095462 19.0298384,9 19.0596203,9 L20.1945257,9 C20.2551532,9 20.3104626,8.96719962 20.3402445,8.91535387 L23.9917254,2.5330355 C24.0066164,2.50658359 23.9981072,2.48436398 23.9917254,2.47272514 C23.9864072,2.46002822 23.9715162,2.44098284 23.9406706,2.44098284 Z" transform="translate(4 12)"/>
      <path d="M9.11670068,7.29226428 L9.38367466,5.107336 C9.39324744,5.02798025 9.46025684,4.96766988 9.54002995,4.96766988 L10.2686243,4.96766988 C11.3237565,4.96766988 12.1076602,4.62802727 12.5990626,3.95720668 C12.929855,3.50540795 13.0979104,2.97531154 13.0979104,2.38067247 C13.0979104,1.97225488 13.0075009,1.57865036 12.8298727,1.20832354 C12.651181,0.848577475 12.4012253,0.566071009 12.0874511,0.368210675 C11.7056038,0.123794968 11.1461284,0 10.4217887,0 L8.87419044,0 C8.79441734,0 8.72740793,0.0592522925 8.71783516,0.138608041 L7.84352194,7.25205737 C7.83182189,7.34622619 7.90521314,7.4298282 7.99987723,7.4298282 L8.95928175,7.4298282 C9.0401185,7.43087233 9.10712791,7.37162003 9.11670068,7.29226428 Z M9.84529502,1.34058312 C9.8548678,1.26122737 9.9218772,1.200917 10.0016503,1.200917 L10.3483974,1.200917 C11.3322657,1.200917 11.8109043,1.57653421 11.8109043,2.34787209 C11.8109043,2.82400658 11.6800764,3.19221726 11.4205479,3.44298142 C11.1610194,3.69374559 10.7823631,3.82071479 10.2952153,3.82071479 L9.71978534,3.82071479 C9.62512126,3.82071479 9.55173,3.73712673 9.56343006,3.64295791 L9.84529502,1.34058312 Z" transform="translate(4 12)"/>
      <path d="M1.50741024,4.0693628 C1.34786403,3.86832824 1.34786403,3.58158947 1.50741024,3.3805549 L2.49978764,2.13308253 L2.74336152,0.204208794 C2.75506158,0.115330355 2.68592489,0.0359746062 2.59657901,0.0359746062 L1.04472623,0.0285680696 C0.969207697,0.0285680696 0.905389214,0.0846461321 0.896880083,0.159769574 L0.00129403966,7.24570891 C-0.0104060155,7.33458735 0.0587306743,7.4139431 0.14807655,7.4139431 L1.69992933,7.42134964 C1.77544786,7.42134964 1.83820271,7.36527157 1.84777548,7.29014813 L2.15197691,4.88090759 L1.50741024,4.0693628 Z" transform="translate(4 12)"/>
      <path d="M7.13407314,0.0306842229 L5.34715562,0.0306842229 C5.24291877,0.0306842229 5.14400012,0.0782976722 5.07805435,0.160827651 L2.51786955,3.38161298 C2.35832334,3.58264754 2.35832334,3.86938632 2.51786955,4.07042088 L5.07805435,7.29120621 C5.14293648,7.37373619 5.24185513,7.42134964 5.34715562,7.42134964 L7.13407314,7.42134964 C7.24788277,7.42134964 7.31063761,7.28909005 7.23937364,7.20021162 L4.75151645,4.07042088 C4.59197024,3.86938632 4.59197024,3.58264754 4.75151645,3.38161298 L7.23937364,0.251822243 C7.30957397,0.162943804 7.24681913,0.0306842229 7.13407314,0.0306842229 Z" transform="translate(4 12)"/>
    </g>
  </g>
</svg>
