<?xml version="1.0" encoding="UTF-8"?>
<svg width="26px" height="26px" viewBox="0 0 26 26" version="1.1" xmlns="http://www.w3.org/2000/svg" xmlns:xlink="http://www.w3.org/1999/xlink">
    <title>默认logo</title>
    <defs>
        <rect id="path-1" x="0" y="0" width="14.4" height="14.4"></rect>
    </defs>
    <g id="控件" stroke="none" stroke-width="1" fill="none" fill-rule="evenodd">
        <g id="應用中心/有数据" transform="translate(-35.000000, -1348.000000)">
            <g id="默认logo" transform="translate(36.000000, 1349.000000)">
                <rect id="蒙版" stroke="#F0F0F0" stroke-width="0.5" fill="#D9D9D9" x="-0.25" y="-0.25" width="24.5" height="24.5" rx="1.6666666"></rect>
                <g id="Icon" transform="translate(4.800000, 4.800000)">
                    <mask id="mask-2" fill="white">
                        <use xlink:href="#path-1"></use>
                    </mask>
                    <g id="Clip-2"></g>
                    <path d="M11.8328951,2.43626707 C12.5784795,2.43626707 13.1828951,3.04068265 13.1828951,3.78626707 L13.1828951,10.5673693 C13.1828951,11.3129537 12.5784795,11.9173693 11.8328951,11.9173693 L2.56710491,11.9173693 C1.8215205,11.9173693 1.21710491,11.3129537 1.21710491,10.5673693 L1.21710491,3.78626707 C1.21710491,3.04068265 1.8215205,2.43626707 2.56710491,2.43626707 Z M9.1686,7.1784 L7.33908387,8.86726707 L8.09884574,9.48764564 C8.28522293,9.65205298 8.30303302,9.93642004 8.13862567,10.1227972 C7.98916445,10.2922311 7.74056296,10.3223532 7.55656997,10.202908 L7.50347407,10.1625772 L5.154,8.2614 L2.11953174,10.6143874 C2.14304061,10.8408187 2.33445496,11.0173693 2.56710491,11.0173693 L11.8328951,11.0173693 C12.0814232,11.0173693 12.2828951,10.8158974 12.2828951,10.5673693 L12.2820839,9.27626707 L9.1686,7.1784 Z M11.8328951,3.33626707 L2.56710491,3.33626707 C2.31857678,3.33626707 2.11710491,3.53773893 2.11710491,3.78626707 L2.11708387,9.47826707 L4.89649771,7.32207803 C5.04825072,7.20432119 5.2553619,7.19722519 5.41332817,7.29750081 L5.47005775,7.34013079 L6.63508387,8.29226707 L8.82009069,6.27552762 C8.9563485,6.14973064 9.15358163,6.1218463 9.31723492,6.19909598 L9.37684618,6.23300688 L12.2820839,8.19126707 L12.2828951,3.78626707 C12.2828951,3.56535317 12.1237074,3.38161953 11.9137832,3.34351717 L11.8328951,3.33626707 Z M4.9219516,3.65154915 C5.82095035,3.65154915 6.54973284,4.38033164 6.54973284,5.27933039 C6.54973284,6.17832914 5.82095035,6.90711163 4.9219516,6.90711163 C4.02295284,6.90711163 3.29417036,6.17832914 3.29417036,5.27933039 C3.29417036,4.38033164 4.02295284,3.65154915 4.9219516,3.65154915 Z M4.9219516,4.55154915 C4.52000912,4.55154915 4.19417036,4.87738791 4.19417036,5.27933039 C4.19417036,5.68127287 4.52000912,6.00711163 4.9219516,6.00711163 C5.32389408,6.00711163 5.64973284,5.68127287 5.64973284,5.27933039 C5.64973284,4.87738791 5.32389408,4.55154915 4.9219516,4.55154915 Z" id="Fill-1" fill="#F0F0F0" mask="url(#mask-2)"></path>
                </g>
            </g>
        </g>
    </g>
</svg>