<svg xmlns="http://www.w3.org/2000/svg" xmlns:xlink="http://www.w3.org/1999/xlink" viewBox="0 0 252 159" class="design-iconfont">
  <defs>
    <path d="M3,0 L249,0 C250.656854,-3.04359188e-16 252,1.34314575 252,3 L252,159 L252,159 L0,159 L0,3 C-2.02906125e-16,1.34314575 1.34314575,-5.83819232e-16 3,0 Z" id="2bv9s2s2i__uvz3d4lcsa"/>
    <path id="2bv9s2s2i__mnplrz8ujc" d="M0 0H145V40H0z"/>
  </defs>
  <g fill="none" fill-rule="evenodd">
    <mask id="2bv9s2s2i__da9772htbb" fill="#fff">
      <use xlink:href="#2bv9s2s2i__uvz3d4lcsa"/>
    </mask>
    <use fill="#F5F5F5" xlink:href="#2bv9s2s2i__uvz3d4lcsa"/>
    <g mask="url(#2bv9s2s2i__da9772htbb)">
      <g transform="translate(54 60)">
        <mask id="2bv9s2s2i__vn3k2rjgmd" fill="#fff">
          <use xlink:href="#2bv9s2s2i__mnplrz8ujc"/>
        </mask>
        <path d="M114.054194,33.4576083 L114.985321,36.4227169 L116.407305,33.4576083 L117.671994,33.4576083 L114.278281,40 L113.060228,40 L114.271958,37.6870332 L112.808081,33.4576083 L114.054194,33.4576083 Z M140.147883,32.6991768 C140.222183,32.6991768 140.288579,32.7454757 140.315454,32.8155177 L141.411386,35.6840713 L141.452093,35.7905192 C141.487267,35.8827213 141.612155,35.8922185 141.660371,35.8063479 L141.715701,35.7066272 L143.345174,32.7913789 C143.377186,32.7343956 143.436864,32.6991768 143.501679,32.6991768 L144.718942,32.6991768 C144.750954,32.6991768 144.767158,32.7197541 144.774272,32.7316256 C144.781386,32.7438928 144.790476,32.7684273 144.774272,32.7965232 L140.881797,39.6448043 C140.849785,39.7013918 140.790503,39.7362149 140.726082,39.7362149 L139.515934,39.7362149 C139.483921,39.7362149 139.467322,39.7156377 139.460603,39.7037661 C139.45349,39.6914989 139.4444,39.6669644 139.460603,39.6388685 L140.7494,37.3777407 L140.762837,37.3547891 C140.780622,37.3235275 140.782993,37.2855386 140.769556,37.2519027 L140.759676,37.2273682 L138.970141,32.7886089 C138.959075,32.7609087 138.969351,32.7387485 138.976465,32.7280642 C138.983579,32.7173798 139.000178,32.6991768 139.029819,32.6991768 Z M110.457933,31.529516 C111.181572,31.529516 111.721041,31.6798886 112.060531,31.9766764 C112.402787,32.2750472 112.576287,32.6913416 112.576287,33.2132925 C112.576287,33.4681344 112.533604,33.6917146 112.449818,33.8784931 C112.367218,34.0625015 112.273552,34.2176227 112.170401,34.3391078 C112.068435,34.4594059 111.972003,34.5508165 111.884265,34.6109655 C111.866085,34.6232328 111.851067,34.6335214 111.836839,34.6426229 C111.934853,34.7142477 112.027333,34.8036798 112.113095,34.909732 C112.207156,35.0276557 112.292918,35.1827768 112.369589,35.3707425 C112.447842,35.5614781 112.486573,35.7989084 112.486573,36.0767019 C112.486573,36.3810083 112.433614,36.6599889 112.329277,36.9065207 C112.224545,37.1534482 112.069226,37.3695098 111.868456,37.5495611 C111.668478,37.7280295 111.421073,37.8677177 111.132961,37.9646684 C110.846035,38.0608277 110.516425,38.1098966 110.152827,38.1098966 L107.731739,38.1098966 L108.381077,31.529516 Z M135.572081,32.5715976 C135.942398,32.5715976 136.262522,32.6337252 136.52455,32.7571889 C136.702001,32.8394981 136.885381,32.9649404 137.069947,33.1299545 L137.198392,33.2447125 C137.245817,33.2874499 137.321303,33.2581669 137.328813,33.1940607 L137.349364,33.0219237 L137.369915,32.849391 C137.380191,32.7635204 137.45212,32.6994142 137.537091,32.6994142 L138.567417,32.6994142 C138.592316,32.6994142 138.608124,32.7128686 138.615238,32.7211787 C138.622352,32.729093 138.633418,32.7465046 138.630651,32.7714348 L138.015697,37.8310743 C138.005816,37.9141749 137.935863,37.9766982 137.853263,37.9766982 L136.81859,37.9766982 C136.793691,37.9766982 136.778278,37.9628481 136.771164,37.9549338 C136.763655,37.9466237 136.752589,37.9292121 136.755355,37.904282 L136.76326,37.8413629 L136.796458,37.5797939 C136.801991,37.536265 136.754565,37.5065862 136.7186,37.5311207 L136.502022,37.677536 C136.089022,37.9569123 135.659819,38.0989748 135.226268,38.0989748 C134.539779,38.0989748 133.971855,37.8591702 133.538304,37.3862882 C133.105148,36.9141976 132.885408,36.2941089 132.885408,35.5434334 C132.885408,34.6787914 133.136765,33.9597734 133.630784,33.4073522 C134.133893,32.8525568 134.787184,32.5715976 135.572081,32.5715976 Z M130.307973,30.0817848 C131.079037,30.0817848 131.676603,30.2143501 132.083279,30.4763148 C132.418027,30.6884192 132.684402,30.9915386 132.874895,31.3769671 C133.064599,31.7734757 133.160636,32.1964973 133.160636,32.6349519 C133.160636,33.272848 132.981999,33.8418892 132.629071,34.3266427 C132.105016,35.0460565 131.269136,35.4109077 130.144353,35.4109077 L129.367756,35.4109077 C129.28318,35.4109077 129.211646,35.4750139 129.20137,35.5604888 L128.91642,37.9047172 C128.905749,37.9897964 128.83461,38.0539026 128.749639,38.0539026 L127.726822,38.0539026 C127.626042,38.0539026 127.54779,37.9644705 127.560041,37.8631669 L128.491564,30.2309702 C128.502234,30.145891 128.573768,30.0817848 128.658344,30.0817848 L130.307973,30.0817848 Z M120.311478,30.1105911 L121.965849,30.1181117 C122.061096,30.1185074 122.134606,30.2035866 122.122354,30.2993501 L121.862698,32.3693466 L120.805102,33.7084534 C120.634369,33.924515 120.634369,34.2311958 120.805102,34.4472573 L121.492381,35.3174394 L121.16791,37.9022638 C121.158029,37.9829901 121.090052,38.0431391 121.009824,38.0427453 L119.355848,38.0352248 C119.260206,38.034829 119.187091,37.9501456 119.198947,37.854382 L120.153787,30.2510726 C120.163668,30.1703463 120.231645,30.1101973 120.311478,30.1105911 Z M126.802414,30.1132839 C126.92335,30.1132839 126.990141,30.2549507 126.914655,30.3503185 L124.262366,33.7083743 C124.092028,33.9244358 124.092028,34.2311166 124.262366,34.4471782 L126.914655,37.805234 C126.990141,37.9009975 126.92335,38.0422685 126.802414,38.0422685 L124.897872,38.0422685 C124.786026,38.0422685 124.680899,37.991221 124.611341,37.9029761 L121.881589,34.4471782 C121.711251,34.2311166 121.711251,33.9244358 121.881589,33.7083743 L124.611341,30.2529721 C124.680899,30.1647272 124.786026,30.1132839 124.897872,30.1132839 Z M135.72582,33.6388468 C135.273694,33.6388468 134.904958,33.813358 134.597876,34.1722735 C134.291189,34.5351461 134.142192,34.9672692 134.142192,35.4935731 C134.142192,35.9530007 134.26629,36.3178519 134.521599,36.6094954 C134.772561,36.8967861 135.100194,37.04241 135.495014,37.04241 C135.940026,37.04241 136.3139,36.8643373 136.639952,36.4971118 C136.964424,36.1235548 137.12251,35.6953888 137.12251,35.1876837 C137.12251,34.7250903 136.994461,34.3602391 136.732828,34.0729485 C136.470405,33.7809092 136.140796,33.6388468 135.72582,33.6388468 Z M110.233451,35.3596624 L109.211029,35.3596624 L109.053734,36.9259109 L110.170612,36.9259109 C110.320398,36.9259109 110.463862,36.908895 110.59784,36.8756548 C110.728656,36.8436017 110.844454,36.7917628 110.942467,36.7213251 C111.038109,36.6516789 111.115967,36.5610597 111.173273,36.4518417 C111.230184,36.3426238 111.259035,36.2037271 111.259035,36.0391087 C111.259035,35.8202771 111.183153,35.656846 111.026253,35.5397137 C110.8654,35.4206028 110.598235,35.3596624 110.233451,35.3596624 Z M110.502593,32.7135018 L109.479776,32.7135018 L109.33157,34.2041683 L110.323165,34.2041683 C110.458724,34.2041683 110.589935,34.1859653 110.711661,34.149955 C110.830621,34.1155276 110.937725,34.060523 111.029415,33.987711 C111.119524,33.914899 111.193034,33.8211141 111.247969,33.707939 C111.302508,33.5947639 111.330569,33.4598243 111.330569,33.3078689 C111.330569,33.1254433 111.269705,32.9841723 111.144027,32.876933 C111.016768,32.7685065 110.800585,32.7135018 110.502593,32.7135018 Z M130.22893,31.3694485 L129.859403,31.3694485 C129.774827,31.3694485 129.702898,31.4335546 129.692623,31.5186338 L129.392259,33.9894917 C129.379612,34.0907953 129.457865,34.1806231 129.55904,34.1806231 L130.172414,34.1806231 C130.692122,34.1806231 131.095636,34.0441007 131.372287,33.775013 C131.648147,33.5063211 131.788449,33.1109997 131.788449,32.6005245 C131.788449,31.7718928 131.278226,31.3694485 130.22893,31.3694485 Z M39.5789718,0 C42.5253011,0.0419460182 45.3779645,1.32288244 47.6366194,3.45896364 C47.9603006,3.764853 47.9974508,4.26860093 47.7156624,4.61366629 L45.9265232,6.80396073 C45.6281357,7.16920767 45.0930143,7.21985946 44.7337637,6.91476154 C43.7010664,6.03864376 41.5289636,4.4731867 39.1912657,4.4731867 C34.6743511,4.4731867 30.3941705,8.49723443 30.0305725,13.0851791 C29.8547017,15.3079224 30.5846642,17.4273834 32.0856916,19.0545724 C33.5835572,20.6778041 35.6687126,21.6089266 37.8072221,21.6089266 C40.1919506,21.6089266 42.6114581,20.0027107 43.773786,19.1079942 C44.1654442,18.8068534 44.7274403,18.905387 44.9942105,19.3216814 L46.4260752,21.5582748 C46.6509526,21.9096716 46.5908799,22.3801793 46.2719413,22.6488713 C43.6326941,24.8759674 40.6737179,26.0362101 37.6218661,26.0362101 C34.1578049,26.0362101 30.9877837,24.6690073 28.696326,22.1854865 C26.4159343,19.7134414 25.3093317,16.4610421 25.581635,13.0274044 C26.1408645,5.9658318 32.5508599,0 39.5789718,0 Z M126.585717,8.64831924 C129.755343,8.64831924 132.421465,10.0740881 134.045799,12.6739498 C134.287276,13.0601698 134.112986,13.5746021 133.688525,13.7388247 L130.936641,14.8048867 C130.629164,14.9236019 130.275446,14.8222983 130.08851,14.5508363 C129.172796,13.2212267 127.891113,12.5671062 126.438697,12.5671062 C123.838972,12.5671062 121.882656,14.5417348 121.783062,17.2041198 C121.681887,19.8961836 123.521219,21.840342 126.120944,21.840342 C127.589959,21.840342 128.981512,21.2701136 130.056497,19.8811464 C130.252129,19.6286788 130.594385,19.5396424 130.890796,19.6583576 L133.32216,20.6310304 C133.74346,20.7996059 133.910241,21.3124553 133.669159,21.6970924 C131.959458,24.4251664 129.432452,25.7892035 125.972738,25.7892035 C121.071675,25.7892035 117.153511,21.9301698 117.330963,17.2041198 C117.507624,12.4772784 121.685444,8.64831924 126.585717,8.64831924 Z M56.6183196,8.67455529 C59.219626,8.67455529 61.3743393,9.46005384 63.0219915,11.0108694 C64.6870332,12.5434819 65.5327937,14.5707409 65.5327937,17.0332887 C65.5327937,19.4614092 64.6427691,21.5310099 62.8880136,23.1851076 C61.151438,24.8312909 58.9797304,25.6666498 56.4337541,25.6666498 C53.7783031,25.6666498 51.5741879,24.876007 49.8822717,23.3168814 C48.1690138,21.7383657 47.300726,19.7166467 47.300726,17.3075207 C47.300726,14.8453686 48.1974693,12.7694364 49.9660573,11.1371031 C51.7354358,9.50279129 53.9735394,8.67455529 56.6183196,8.67455529 Z M108.465219,8.67459486 C110.920691,8.67459486 112.889653,9.45613624 114.316775,10.998246 C115.75773,12.5407514 116.489273,14.6265766 116.489273,17.1943852 C116.489273,17.4634728 116.472674,17.8825373 116.437895,18.4769045 L116.416158,18.8544186 L104.718183,18.8548143 C104.453784,18.8548143 104.256572,19.1068862 104.322573,19.3633109 C104.477497,19.9628224 104.797226,20.4756718 105.288874,20.9149178 C106.035436,21.5737869 106.970515,21.8947135 108.14549,21.8947135 C109.762315,21.8947135 110.96456,21.3351695 111.821386,20.1836325 L112.026503,19.9078177 L115.520601,21.7605654 L115.230513,22.1372881 C114.23457,23.4285132 113.186855,24.3469727 112.115822,24.8673408 C111.036884,25.3976018 109.678134,25.6662937 108.078698,25.6662937 C105.531536,25.6662937 103.467327,24.9286769 101.942192,23.4732292 C100.410733,22.0138244 99.6341351,20.0427572 99.6341351,17.6146368 C99.6341351,15.0852127 100.480686,12.9376558 102.15047,11.2317191 C103.810769,9.53527967 105.935051,8.67459486 108.465219,8.67459486 Z M76.2181481,8.62030247 C77.859872,8.62030247 79.2000468,9.09199731 80.2015221,10.0219326 C81.1903505,10.962948 81.6902978,12.248633 81.6902978,13.8469346 C81.6902978,14.6664649 81.6211351,15.655362 81.4855763,16.7867174 L80.4275852,25.2930533 C80.4022914,25.4960562 80.2303728,25.6480116 80.0264418,25.6480116 L76.3406648,25.6480116 C76.0980027,25.6480116 75.909485,25.4351157 75.9391261,25.1937283 L77.0805077,15.8828994 C77.1243765,15.5417912 77.1544129,15.239859 77.1706167,14.9822471 C77.1868205,14.7226567 77.1947248,14.489975 77.1947248,14.2842021 C77.1947248,13.0729119 76.6038781,12.532758 75.2775359,12.532758 C74.416362,12.532758 73.6994416,12.7875998 73.0852772,13.3111336 C72.5746591,13.7313852 72.196043,14.2434432 71.9541713,14.8389975 C71.8162412,15.1571541 71.7000479,15.5461441 71.6059867,16.0047803 C71.5071829,16.4824109 71.4182594,17.0403721 71.3423781,17.6624394 L70.4025564,25.2926576 C70.3772626,25.4956605 70.205344,25.6480116 70.0010177,25.6480116 L66.2978513,25.6480116 C66.0551891,25.6480116 65.8670667,25.4351157 65.8967078,25.1937283 L67.8435379,9.36266785 C67.8684365,9.15966495 68.0407503,9.00731384 68.2450766,9.00731384 L71.9312488,9.00731384 C72.1731205,9.00731384 72.3608477,9.21783537 72.3331826,9.4584314 L72.2735051,9.9776123 C73.5670445,9.07616863 74.8906202,8.62030247 76.2181481,8.62030247 Z M93.0805975,8.62030247 C94.7219263,8.62030247 96.0624962,9.09199731 97.0635763,10.0219326 C98.0528,10.962948 98.552352,12.248633 98.552352,13.8469346 C98.552352,14.6664649 98.4835846,15.655362 98.3480257,16.7867174 L97.2900347,25.2930533 C97.2647409,25.4960562 97.092427,25.6480116 96.888496,25.6480116 L93.2031142,25.6480116 C92.9600569,25.6480116 92.7719345,25.4351157 92.8015756,25.1937283 L93.9429571,15.8828994 C93.9864308,15.5417912 94.0168623,15.239859 94.032671,14.9822471 C94.04927,14.7226567 94.0571743,14.489975 94.0571743,14.2842021 C94.0571743,13.0729119 93.4659323,12.532758 92.1399853,12.532758 C91.2784162,12.532758 90.5614958,12.7875998 89.9477266,13.3111336 C89.4371086,13.7313852 89.0580972,14.2434432 88.8166207,14.8389975 C88.6786906,15.1571541 88.5624973,15.5461441 88.4684361,16.0047803 C88.3696323,16.4824109 88.2807089,17.0403721 88.2044324,17.6624394 L87.2646106,25.2926576 C87.239712,25.4956605 87.0673982,25.6480116 86.863072,25.6480116 L83.1603007,25.6480116 C82.9172434,25.6480116 82.7291209,25.4351157 82.7587621,25.1937283 L84.7055922,9.36266785 C84.7308859,9.15966495 84.9028046,9.00731384 85.1071308,9.00731384 L88.7936982,9.00731384 C89.0355699,9.00731384 89.2232971,9.21823108 89.1952369,9.4584314 L89.1355594,9.9776123 C90.4294939,9.07616863 91.7530697,8.62030247 93.0805975,8.62030247 Z M141.808735,6.66795275 C142.043098,6.66795275 142.225687,6.87016421 142.202765,7.10324162 L141.954965,9.59705112 C141.931647,9.83052424 142.114632,10.0327357 142.348599,10.0327357 L144.604092,10.0327357 C144.837664,10.0327357 145.020649,10.2341557 144.998122,10.4672331 L144.711591,13.4323418 C144.692225,13.6357404 144.521887,13.7908615 144.317561,13.7908615 L141.906353,13.7908615 C141.702817,13.7908615 141.532875,13.9447955 141.512324,14.1474027 L140.399002,25.2911934 C140.378846,25.4938006 140.208509,25.6481303 140.005368,25.6481303 L136.857874,25.6481303 C136.623907,25.6481303 136.440527,25.4455231 136.463845,25.2124457 L137.561752,14.2265461 C137.58507,13.993073 137.402085,13.7908615 137.167723,13.7908615 L135.945717,13.7908615 C135.712145,13.7908615 135.529556,13.5890458 135.551688,13.3559684 L135.838219,10.3908597 C135.85798,10.1878568 136.028317,10.0327357 136.232248,10.0327357 L137.610364,10.0327357 C137.8139,10.0327357 137.984237,9.87840601 138.004393,9.67579883 L138.267607,7.02488962 C138.287763,6.82228244 138.4581,6.66795275 138.661241,6.66795275 Z M3.57613154,0.155471837 L8.88703343,0.179616016 C9.19293,0.180803167 9.42847826,0.453452286 9.38974717,0.760924514 L8.55544788,7.4069941 L5.16054928,11.7052738 C4.61317623,12.3981746 4.61317623,13.3835103 5.16054928,14.0768067 L7.36743098,16.8705698 L6.32524849,25.1691542 C6.29284084,25.4275575 6.07507726,25.6210632 5.81779217,25.6202742 L0.507285488,25.5961331 C0.200993706,25.5945502 -0.0345545546,25.3222968 0.00417653526,25.0144288 L3.06867522,0.606594824 C3.10108286,0.347795806 3.31884644,0.154290118 3.57613154,0.155471837 Z M24.4131022,0.163985188 C24.8008083,0.163985188 25.0162006,0.61826848 24.7739337,0.924949274 L16.2590221,11.7054717 C15.7112539,12.3983724 15.7112539,13.3837081 16.2590221,14.0770046 L24.7739337,24.8571313 C25.0162006,25.1638121 24.8008083,25.6180954 24.4131022,25.6180954 L18.2987278,25.6180954 C17.941058,25.6180954 17.6023586,25.453477 17.379062,25.1701435 L8.61635054,14.0770046 C8.06897748,13.3837081 8.06897748,12.3983724 8.61635054,11.7054717 L17.379062,0.611937006 C17.6023586,0.328999241 17.941058,0.163985188 18.2987278,0.163985188 Z M56.5847263,12.4623599 C55.1935688,12.4623599 54.0778763,12.9047717 53.1744143,13.8133382 C52.2701619,14.7321935 51.8298922,15.8595916 51.8298922,17.2588475 C51.8298922,18.668392 52.2413112,19.7633414 53.0886526,20.6070103 C53.9391557,21.474818 55.0105841,21.8946739 56.3665675,21.8946739 C57.7170178,21.8946739 58.7963506,21.4352463 59.665824,20.4902738 C60.5558486,19.5441141 60.9870284,18.3561712 60.9870284,16.8556117 C60.9870284,15.4935533 60.5937893,14.4528172 59.7839934,13.6744415 C58.9647122,12.8568899 57.9197632,12.4623599 56.5847263,12.4623599 Z M108.280258,12.4623995 C106.443693,12.4623995 105.222873,13.352763 104.562864,15.1797891 L111.837195,15.1797891 C111.388626,13.352763 110.22116,12.4623995 108.280258,12.4623995 Z" fill="#D9D9D9" mask="url(#2bv9s2s2i__vn3k2rjgmd)"/>
      </g>
    </g>
  </g>
</svg>
