<svg xmlns="http://www.w3.org/2000/svg" viewBox="0 0 26 26" class="design-iconfont">
  <path d="M6.88876347,5.78015058 L6.9728425,5.85281435 L12.1004163,10.9858567 L17.1813819,5.91160717 C17.4744339,5.61887286 17.9493076,5.61913044 18.2420419,5.91218248 C18.508164,6.17859344 18.532144,6.59527019 18.3141303,6.88876347 L18.2414666,6.9728425 L13.1604163,12.0468567 L18.4493936,17.3418223 C18.7421279,17.6348743 18.7418703,18.109748 18.4488182,18.4024823 C18.1824073,18.6686044 17.7657305,18.6925845 17.4722373,18.4745708 L17.3881582,18.401907 L12.0994163,13.1078567 L6.7524586,18.4493936 C6.45940656,18.7421279 5.98453289,18.7418703 5.69179859,18.4488182 C5.42567649,18.1824073 5.40169645,17.7657305 5.61971014,17.4722373 L5.69237391,17.3881582 L11.0384163,12.0458567 L5.91160717,6.91289905 C5.61887286,6.619847 5.61913044,6.14497334 5.91218248,5.85223903 C6.17859344,5.58611694 6.59527019,5.56213689 6.88876347,5.78015058 Z" fill="#262626" transform="translate(.95286 .95286)" fill-rule="evenodd"/>
</svg>
