<svg xmlns="http://www.w3.org/2000/svg" viewBox="0 0 25 25" class="design-iconfont">
  <g fill="none" fill-rule="evenodd">
    <path fill="#ED6A0C" d="M12 0.9076637999999999A11.0923362 11.0923362 0 1 0 12 23.0923362A11.0923362 11.0923362 0 1 0 12 0.9076637999999999Z"/>
    <path d="M12,5.6466671 C12.4588212,5.6466671 12.8374518,5.99000376 12.8929877,6.43377301 L12.9,6.5466671 L12.9,13.4639977 C12.9,13.961054 12.4970563,14.3639977 12,14.3639977 C11.5411788,14.3639977 11.1625482,14.0206611 11.1070123,13.5768918 L11.1,13.4639977 L11.1,6.5466671 C11.1,6.04961082 11.5029437,5.6466671 12,5.6466671 Z M12,18.1078979 C12.4970563,18.1078979 12.9,17.7049542 12.9,17.2078979 C12.9,16.7108416 12.4970563,16.3078979 12,16.3078979 C11.5029437,16.3078979 11.1,16.7108416 11.1,17.2078979 C11.1,17.7049542 11.5029437,18.1078979 12,18.1078979 Z" fill="#FFF"/>
  </g>
</svg>
