<?xml version="1.0" encoding="UTF-8"?>
<svg xmlns="http://www.w3.org/2000/svg" xmlns:xlink="http://www.w3.org/1999/xlink" width="18px" height="18px" viewBox="0 0 18 18" version="1.1">
  <title>1. é€šç”¨/2. å›¾æ ‡/2. åŸºç¡€ç±»/åˆ é™¤</title>
  <defs>
    <rect id="path-1" x="0" y="0" width="18" height="18"></rect>
  </defs>
  <g id="------æ¬¾å¼é€‰é¡¹ç®¡ç†-ðŸŒŸðŸŒŸ" stroke="none" stroke-width="1" fill="none" fill-rule="evenodd">
    <g id="å•†å“ç®¡ç†---æ¬¾å¼é¸é …ç®¡ç†---æ–°å¢ž" transform="translate(-1398.000000, -128.000000)">
      <g id="3.-æ•°æ®å½•å…¥/1.-è¾“å…¥æ¡†/1.-ä¸­å·/1.-å¸¸è§„" transform="translate(1056.000000, 120.000000)">
        <g id="1.-é€šç”¨/2.-å›¾æ ‡/2.-åŸºç¡€ç±»/åˆ é™¤" transform="translate(342.000000, 8.000000)">
          <g id="Icon" transform="translate(0.000000, 0.000000)">
            <mask id="mask-2" fill="white">
              <use xlink:href="#path-1"></use>
            </mask>
            <g id="Clip-2"></g>
            <path d="M11.6142998,2.2907694 C11.9249599,2.2907694 12.1767998,2.54260923 12.1767998,2.8532694 C12.1767998,3.13804123 11.9651844,3.37338762 11.6906277,3.41063444 L11.6142998,3.4157694 L6.39668007,3.4157694 C6.0860199,3.4157694 5.83418007,3.16392958 5.83418007,2.8532694 C5.83418007,2.56849758 6.04579548,2.33315118 6.32035215,2.29590437 L6.39668007,2.2907694 L11.6142998,2.2907694 Z M15.1873836,4.70342302 C15.4980438,4.70342302 15.7498836,4.95526285 15.7498836,5.26592302 C15.7498836,5.55069485 15.5382682,5.78604124 15.2637115,5.82328806 L15.1873836,5.82842302 L14.5474313,5.8277694 L14.5476265,14.0517559 C14.5476265,14.9449039 13.8537553,15.6759896 12.9756631,15.7353628 L12.8601265,15.7392559 L5.1398735,15.7392559 C4.24672551,15.7392559 3.51563982,15.0453847 3.45626661,14.1672925 L3.4523735,14.0517559 L3.45143125,5.8277694 L2.79693125,5.82842302 C2.48627108,5.82842302 2.23443125,5.5765832 2.23443125,5.26592302 C2.23443125,4.9811512 2.44604666,4.7458048 2.72060334,4.70855799 L2.79693125,4.70342302 L15.1873836,4.70342302 Z M13.4224313,5.8277694 L4.57643125,5.8277694 L4.5773735,14.0517559 C4.5773735,14.3365278 4.78898892,14.5718742 5.06354559,14.609121 L5.1398735,14.6142559 L12.8601265,14.6142559 C13.1448983,14.6142559 13.3802447,14.4026405 13.4174915,14.1280839 L13.4226265,14.0517559 L13.4224313,5.8277694 Z M7.40264368,7.55109501 C7.6874155,7.55109501 7.9227619,7.76271042 7.96000872,8.03726709 L7.96514368,8.11359501 L7.96514368,12.4141146 C7.96514368,12.7247747 7.71330385,12.9766146 7.40264368,12.9766146 C7.11787186,12.9766146 6.88252546,12.7649992 6.84527864,12.4904425 L6.84014368,12.4141146 L6.84014368,8.11359501 C6.84014368,7.80293484 7.09198351,7.55109501 7.40264368,7.55109501 Z M10.5973563,7.55109501 C10.8821281,7.55109501 11.1174745,7.76271042 11.1547214,8.03726709 L11.1598563,8.11359501 L11.1598563,12.4141146 C11.1598563,12.7247747 10.9080165,12.9766146 10.5973563,12.9766146 C10.3125845,12.9766146 10.0772381,12.7649992 10.0399913,12.4904425 L10.0348563,12.4141146 L10.0348563,8.11359501 C10.0348563,7.80293484 10.2866961,7.55109501 10.5973563,7.55109501 Z" id="Fill" fill="#F53F3F" mask="url(#mask-2)"></path>
          </g>
          <rect id="codesign_placeholder_name" x="0" y="1.77635684e-15" width="18" height="18"></rect>
        </g>
      </g>
    </g>
  </g>
</svg>
