<svg xmlns="http://www.w3.org/2000/svg" xmlns:xlink="http://www.w3.org/1999/xlink" viewBox="0 0 232 64" class="design-iconfont">
  <defs>
    <path id="l7nx0sd8n__ye0bkcsl3a" d="M0 0H232V64H0z"/>
  </defs>
  <g fill="none" fill-rule="evenodd">
    <mask id="l7nx0sd8n__mj5dtyklib" fill="#fff">
      <use xlink:href="#l7nx0sd8n__ye0bkcsl3a"/>
    </mask>
    <path d="M182.486711,53.5321733 L183.976514,58.2763471 L186.251689,53.5321733 L188.27519,53.5321733 L182.84525,64 L180.896365,64 L182.835132,60.2992532 L180.492929,53.5321733 L182.486711,53.5321733 Z M224.236612,52.3186829 C224.355493,52.3186829 224.461727,52.3927611 224.504726,52.5048282 L226.258217,57.0945141 L226.323348,57.2648307 C226.379627,57.4123541 226.579448,57.4275496 226.656594,57.2901566 L226.745122,57.1306035 L229.352278,52.4662062 C229.403498,52.375033 229.498982,52.3186829 229.602686,52.3186829 L231.550307,52.3186829 C231.601527,52.3186829 231.627453,52.3516066 231.638835,52.370601 C231.650217,52.3902286 231.664761,52.4294837 231.638835,52.4744372 L225.410876,63.4316869 C225.359656,63.5222269 225.264804,63.5779439 225.161732,63.5779439 L223.225494,63.5779439 C223.174274,63.5779439 223.147715,63.5450202 223.136965,63.5260258 C223.125583,63.5063983 223.111039,63.4671431 223.136965,63.4221896 L225.19904,59.8043851 L225.22054,59.7676626 C225.248995,59.7176439 225.25279,59.6568618 225.23129,59.6030443 L225.215481,59.5637891 L222.352226,52.4617742 C222.33452,52.4174539 222.350961,52.3819976 222.362344,52.3649027 C222.373726,52.3478077 222.400284,52.3186829 222.44771,52.3186829 Z M176.732693,50.4472257 C177.890516,50.4472257 178.753666,50.6878217 179.29685,51.1626823 C179.84446,51.6400755 180.122059,52.3061466 180.122059,53.1412681 C180.122059,53.549015 180.053766,53.9067433 179.919709,54.2055889 C179.787549,54.5000025 179.637683,54.7481963 179.472641,54.9425725 C179.309496,55.1350494 179.155204,55.2813064 179.014824,55.3775448 C178.985736,55.3971724 178.961707,55.4136342 178.938943,55.4281966 C179.095764,55.5427963 179.243733,55.6858876 179.380951,55.8555712 C179.531449,56.0442491 179.668668,56.2924429 179.791343,56.5931879 C179.916547,56.898365 179.978517,57.2782535 179.978517,57.722723 C179.978517,58.2096134 179.893783,58.6559823 179.726844,59.0504332 C179.559272,59.4455172 179.310761,59.7912157 178.98953,60.0792978 C178.669564,60.3648473 178.273716,60.5883483 177.812737,60.7434694 C177.353655,60.8973243 176.82628,60.9758345 176.244524,60.9758345 L172.370782,60.9758345 L173.409724,50.4472257 Z M216.91533,52.1145562 C217.507836,52.1145562 218.020035,52.2139603 218.439279,52.4115023 C218.723202,52.543197 219.01661,52.7439047 219.311915,53.0079272 L219.517426,53.19154 C219.593308,53.2599199 219.714086,53.213067 219.7261,53.1104971 L219.758982,52.835078 L219.791864,52.5590257 C219.808305,52.4216327 219.923392,52.3190628 220.059346,52.3190628 L221.707867,52.3190628 C221.747705,52.3190628 221.772999,52.3405898 221.784381,52.3538859 C221.795763,52.3665488 221.813469,52.3944073 221.809042,52.4342956 L220.825115,60.5297189 C220.809306,60.6626798 220.697381,60.7627171 220.565221,60.7627171 L218.909744,60.7627171 C218.869906,60.7627171 218.845244,60.740557 218.833862,60.727894 C218.821848,60.7145979 218.804142,60.6867394 218.808569,60.6468511 L218.821215,60.5461807 L218.874332,60.1276702 C218.883185,60.058024 218.807304,60.0105379 218.74976,60.0497931 L218.403236,60.2840576 C217.742436,60.7310597 217.05571,60.9583597 216.362028,60.9583597 C215.263646,60.9583597 214.354967,60.5746723 213.661286,59.8180611 C212.968236,59.0627162 212.616653,58.0705742 212.616653,56.8694935 C212.616653,55.4860663 213.018824,54.3356374 213.809254,53.4517636 C214.614229,52.5640908 215.659494,52.1145562 216.91533,52.1145562 Z M208.492756,48.1308557 C209.72646,48.1308557 210.682565,48.3429601 211.333247,48.7621038 C211.868842,49.1014708 212.295043,49.5864617 212.599833,50.2031473 C212.903358,50.8375611 213.057017,51.5143957 213.057017,52.2159231 C213.057017,53.2365567 212.771198,54.1470228 212.206514,54.9226284 C211.368026,56.0736904 210.030618,56.6574524 208.230966,56.6574524 L206.988409,56.6574524 C206.853087,56.6574524 206.738633,56.7600223 206.722192,56.8967821 L206.266272,60.6475476 C206.249198,60.7836743 206.135376,60.8862442 205.999422,60.8862442 L204.362915,60.8862442 C204.201668,60.8862442 204.076463,60.7431529 204.096066,60.5810671 L205.586502,48.3695523 C205.603575,48.2334256 205.718029,48.1308557 205.853351,48.1308557 L208.492756,48.1308557 Z M192.498365,48.1769458 L195.145359,48.1889787 C195.297754,48.1896118 195.41537,48.3257385 195.395767,48.4789602 L194.980317,51.7909545 L193.288163,53.9335255 C193.014991,54.279224 193.014991,54.7699132 193.288163,55.1156117 L194.38781,56.507903 L193.868655,60.6436221 C193.852847,60.7727842 193.744084,60.8690226 193.615718,60.8683925 L190.969357,60.8563596 C190.816329,60.8557265 190.699346,60.7202329 190.718316,60.5670112 L192.24606,48.4017162 C192.261868,48.2725541 192.370632,48.1763157 192.498365,48.1769458 Z M202.883862,48.1812543 C203.077359,48.1812543 203.184226,48.4079211 203.063448,48.5605096 L198.819785,53.9333988 C198.547245,54.2790973 198.547245,54.7697866 198.819785,55.1154851 L203.063448,60.4883743 C203.184226,60.641596 203.077359,60.8676296 202.883862,60.8676296 L199.836595,60.8676296 C199.657641,60.8676296 199.489438,60.7859536 199.378145,60.6447617 L195.010543,55.1154851 C194.738002,54.7697866 194.738002,54.2790973 195.010543,53.9333988 L199.378145,48.4047553 C199.489438,48.2635635 199.657641,48.1812543 199.836595,48.1812543 Z M217.161312,53.8221548 C216.43791,53.8221548 215.847932,54.1013728 215.356601,54.6756376 C214.865902,55.2562338 214.627508,55.9476308 214.627508,56.7897169 C214.627508,57.5248011 214.826064,58.108563 215.234558,58.5751927 C215.636097,59.0348577 216.16031,59.267856 216.792022,59.267856 C217.504042,59.267856 218.10224,58.9829396 218.623924,58.3953788 C219.143079,57.7976876 219.396016,57.1126221 219.396016,56.3002939 C219.396016,55.5601446 219.191137,54.9763826 218.772525,54.5167176 C218.352648,54.0494548 217.825273,53.8221548 217.161312,53.8221548 Z M176.373522,56.5754598 L174.737647,56.5754598 L174.485974,59.0814574 L176.272979,59.0814574 C176.512638,59.0814574 176.742179,59.054232 176.956543,59.0010477 C177.165849,58.9497627 177.351126,58.8668204 177.507947,58.7541202 C177.660975,58.6426862 177.785547,58.4976954 177.877237,58.3229467 C177.968294,58.1481981 178.014455,57.9259633 178.014455,57.662574 C178.014455,57.3124434 177.893045,57.0509535 177.642004,56.8635419 C177.38464,56.6729645 176.957176,56.5754598 176.373522,56.5754598 Z M176.804148,52.3416028 L175.167641,52.3416028 L174.930512,54.7266693 L176.517064,54.7266693 C176.733958,54.7266693 176.943896,54.6975445 177.138658,54.6399281 C177.328994,54.5848442 177.500359,54.4968367 177.647063,54.3803376 C177.791238,54.2638385 177.908854,54.1137825 177.99675,53.9327024 C178.084013,53.7516222 178.12891,53.5357189 178.12891,53.2925903 C178.12891,53.0007093 178.031529,52.7746757 177.830443,52.6030927 C177.626828,52.4296103 177.280936,52.3416028 176.804148,52.3416028 Z M208.366287,50.1911175 L207.775045,50.1911175 C207.639724,50.1911175 207.524637,50.2936874 207.508196,50.4298141 L207.027614,54.3831868 C207.007379,54.5452725 207.132583,54.688997 207.294464,54.688997 L208.275862,54.688997 C209.107395,54.688997 209.753018,54.4705611 210.195659,54.0400209 C210.637036,53.6101137 210.861518,52.9775994 210.861518,52.1608392 C210.861518,50.8350285 210.045161,50.1911175 208.366287,50.1911175 Z M63.3263549,0 C68.0404818,0.0671136292 72.6047432,2.11661191 76.218591,5.53434182 C76.736481,6.02376479 76.7959213,6.82976149 76.3450598,7.38186606 L73.4824371,10.8863372 C73.0050171,11.4707323 72.1488229,11.5517751 71.5740219,11.0636185 C69.9217062,9.66183001 66.4463418,7.15709872 62.7060251,7.15709872 C55.4789618,7.15709872 48.6306728,13.5955751 48.048916,20.9362866 C47.7675228,24.4926758 48.9354628,27.8838135 51.3371065,30.4873158 C53.7336915,33.0844866 57.0699402,34.5742825 60.4915553,34.5742825 C64.3071209,34.5742825 68.1783329,32.0043371 70.0380576,30.5727907 C70.6647108,30.0909655 71.5639044,30.2486192 71.9907368,30.9146903 L74.2817203,34.4932397 C74.6415242,35.0554746 74.5454079,35.8082869 74.035106,36.238194 C69.8123106,39.8015478 65.0779487,41.6579362 60.1949858,41.6579362 C54.6524878,41.6579362 49.580454,39.4704117 45.9141216,35.4967784 C42.2654948,31.5415063 40.4949307,26.3376674 40.930616,20.843847 C41.8253832,9.54533088 52.0813758,0 63.3263549,0 Z M202.537148,13.8373108 C207.608549,13.8373108 211.874344,16.118541 214.473279,20.2783197 C214.859641,20.8962717 214.580778,21.7193633 213.90164,21.9821195 L209.498626,23.6878187 C209.006662,23.877763 208.440714,23.7156772 208.141615,23.2813381 C206.676474,21.1539627 204.625781,20.1073699 202.301915,20.1073699 C198.142355,20.1073699 195.01225,23.2667757 194.852899,27.5265917 C194.691019,31.8338938 197.63395,34.9445472 201.793511,34.9445472 C204.143935,34.9445472 206.370419,34.0321817 208.090395,31.8098342 C208.403406,31.4058861 208.951016,31.2634279 209.425274,31.4533722 L213.315457,33.0096486 C213.989536,33.2793694 214.256385,34.0999285 213.870655,34.7153478 C211.135133,39.0802663 207.091924,41.2627255 201.556382,41.2627255 C193.71468,41.2627255 187.445618,35.0882716 187.729541,27.5265917 C188.012198,19.9636455 194.69671,13.8373108 202.537148,13.8373108 Z M90.5893113,13.8792885 C94.7514017,13.8792885 98.1989429,15.1360861 100.835186,17.617391 C103.499253,20.069571 104.85247,23.3131854 104.85247,27.2532619 C104.85247,31.1382547 103.42843,34.4496158 100.620822,37.0961721 C97.8423007,39.7300655 94.3675687,41.0666398 90.2940065,41.0666398 C86.045285,41.0666398 82.5187007,39.8016112 79.8116347,37.3070102 C77.070422,34.7813851 75.6811615,31.5466348 75.6811615,27.6920331 C75.6811615,23.7525897 77.1159508,20.4310982 79.9456917,17.819365 C82.7766972,15.2044661 86.3576631,13.8792885 90.5893113,13.8792885 Z M173.54435,13.8793518 C177.473105,13.8793518 180.623445,15.129818 182.90684,17.5971936 C185.212367,20.0652023 186.382837,23.4025225 186.382837,27.5110163 C186.382837,27.9415565 186.356278,28.6120597 186.300632,29.5630471 L186.265853,30.1670698 L167.549093,30.167703 C167.126055,30.167703 166.810515,30.5710179 166.916117,30.9812974 C167.163996,31.9405158 167.675562,32.7610749 168.462199,33.4638686 C169.656697,34.518059 171.152824,35.0315416 173.032783,35.0315416 C175.619704,35.0315416 177.543296,34.1362711 178.914218,32.2938121 L179.242405,31.8525083 L184.832961,34.8169046 L184.36882,35.419661 C182.775312,37.4856211 181.098968,38.9551563 179.385315,39.7877452 C177.659015,40.6361628 175.485015,41.0660699 172.925917,41.0660699 C168.850458,41.0660699 165.547724,39.8858831 163.107507,37.5571668 C160.657173,35.222119 159.414616,32.0684116 159.414616,28.1834189 C159.414616,24.1363404 160.769098,20.7002492 163.440752,17.9707506 C166.097231,15.2564475 169.496082,13.8793518 173.54435,13.8793518 Z M226.893976,10.6687244 C227.268956,10.6687244 227.561099,10.9922627 227.524423,11.3651866 L227.127943,15.3552818 C227.090635,15.7288388 227.38341,16.0523771 227.757758,16.0523771 L231.366547,16.0523771 C231.740263,16.0523771 232.033038,16.3746492 231.996995,16.747573 L231.538545,21.4917468 C231.50756,21.8171846 231.23502,22.0653784 230.908098,22.0653784 L227.050165,22.0653784 C226.724508,22.0653784 226.4526,22.3116728 226.419718,22.6358443 L224.638404,40.4659095 C224.606154,40.790081 224.333614,41.0370085 224.008589,41.0370085 L218.972599,41.0370085 C218.598251,41.0370085 218.304843,40.712837 218.342151,40.3399131 L220.098804,22.7624737 C220.136112,22.3889168 219.843337,22.0653784 219.468357,22.0653784 L217.513148,22.0653784 C217.139432,22.0653784 216.847289,21.7424732 216.882701,21.3695494 L217.34115,16.6253756 C217.372767,16.3005709 217.645308,16.0523771 217.971598,16.0523771 L220.176582,16.0523771 C220.50224,16.0523771 220.77478,15.8054496 220.80703,15.4812781 L221.228171,11.2398234 C221.26042,10.9156519 221.532961,10.6687244 221.857986,10.6687244 Z M121.949037,13.7924839 C124.575795,13.7924839 126.720075,14.5471957 128.322435,16.0350922 C129.904561,17.5407168 130.704476,19.5978129 130.704476,22.1550954 C130.704476,23.4663438 130.593816,25.0485792 130.376922,26.8587478 L128.684136,40.4688853 C128.643666,40.7936899 128.368597,41.0368185 128.042307,41.0368185 L122.145064,41.0368185 C121.756804,41.0368185 121.455176,40.6961852 121.502602,40.3099652 L123.328812,25.412639 C123.399002,24.8668659 123.447061,24.3837744 123.472987,23.9715954 C123.498913,23.5562507 123.51156,23.18396 123.51156,22.8547233 C123.51156,20.916659 122.566205,20.0524127 120.444057,20.0524127 C119.066179,20.0524127 117.919107,20.4601597 116.936443,21.2978138 C116.119455,21.9702163 115.513669,22.7895091 115.126674,23.742396 C114.905986,24.2514466 114.720077,24.8738305 114.569579,25.6076484 C114.411493,26.3718574 114.269215,27.2645953 114.147805,28.2599031 L112.64409,40.4682521 C112.60362,40.7930567 112.32855,41.0368185 112.001628,41.0368185 L106.076562,41.0368185 C105.688303,41.0368185 105.387307,40.6961852 105.434733,40.3099652 L108.549661,14.9802686 C108.589498,14.6554639 108.865201,14.4117021 109.192123,14.4117021 L115.089998,14.4117021 C115.476993,14.4117021 115.777356,14.7485366 115.733092,15.1334902 L115.637608,15.9641797 C117.707271,14.5218698 119.824992,13.7924839 121.949037,13.7924839 Z M148.928956,13.7924839 C151.555082,13.7924839 153.699994,14.5471957 155.301722,16.0350922 C156.88448,17.5407168 157.683763,19.5978129 157.683763,22.1550954 C157.683763,23.4663438 157.573735,25.0485792 157.356841,26.8587478 L155.664055,40.4688853 C155.623585,40.7936899 155.347883,41.0368185 155.021594,41.0368185 L149.124983,41.0368185 C148.736091,41.0368185 148.435095,40.6961852 148.482521,40.3099652 L150.308731,25.412639 C150.378289,24.8668659 150.42698,24.3837744 150.452274,23.9715954 C150.478832,23.5562507 150.491479,23.18396 150.491479,22.8547233 C150.491479,20.916659 149.545492,20.0524127 147.423977,20.0524127 C146.045466,20.0524127 144.898393,20.4601597 143.916363,21.2978138 C143.099374,21.9702163 142.492956,22.7895091 142.106593,23.742396 C141.885905,24.2514466 141.699996,24.8738305 141.549498,25.6076484 C141.391412,26.3718574 141.249134,27.2645953 141.127092,28.2599031 L139.623377,40.4682521 C139.583539,40.7930567 139.307837,41.0368185 138.980915,41.0368185 L133.056481,41.0368185 C132.667589,41.0368185 132.366594,40.6961852 132.414019,40.3099652 L135.528947,14.9802686 C135.569418,14.6554639 135.844487,14.4117021 136.171409,14.4117021 L142.069917,14.4117021 C142.456912,14.4117021 142.757275,14.7491697 142.712379,15.1334902 L142.616895,15.9641797 C144.68719,14.5218698 146.804911,13.7924839 148.928956,13.7924839 Z M5.72181046,0.248754939 L14.2192535,0.287385625 C14.708688,0.289285068 15.0855652,0.725523657 15.0235955,1.21747922 L13.6887166,11.8511906 L8.25687886,18.7284381 C7.38108197,19.8370793 7.38108197,21.4136164 8.25687886,22.5228908 L11.7878896,26.9929117 L10.1203976,40.2706468 C10.0685453,40.6840921 9.72012362,40.9937012 9.30846747,40.9924387 L0.811656781,40.9538129 C0.32158993,40.9512803 -0.0552872874,40.5156749 0.00668245642,40.0230861 L4.90988035,0.970551719 C4.96173258,0.55647329 5.3101543,0.246864189 5.72181046,0.248754939 Z M39.0609635,0.262376301 C39.6812933,0.262376301 40.0259209,0.989229568 39.6382939,1.47991884 L26.0144354,18.7287547 C25.1380062,19.8373959 25.1380062,21.413933 26.0144354,22.5232073 L39.6382939,39.77141 C40.0259209,40.2620993 39.6812933,40.9889526 39.0609635,40.9889526 L29.2779645,40.9889526 C28.7056928,40.9889526 28.1637738,40.7255632 27.8064992,40.2722297 L13.7861609,22.5232073 C12.910364,21.413933 12.910364,19.8373959 13.7861609,18.7287547 L27.8064992,0.979099209 C28.1637738,0.526398786 28.7056928,0.262376301 29.2779645,0.262376301 Z M90.5355621,19.9397758 C88.30971,19.9397758 86.524602,20.6476347 85.0790629,22.1013412 C83.6322591,23.5715096 82.9278275,25.3753466 82.9278275,27.614156 C82.9278275,29.8694272 83.5860979,31.6213462 84.9418442,32.9712165 C86.3026492,34.3597089 88.0169346,35.0314783 90.186508,35.0314783 C92.3472285,35.0314783 94.0741609,34.2963941 95.4653184,32.784438 C96.8893578,31.2705825 97.5792455,29.3698739 97.5792455,26.9689787 C97.5792455,24.7896852 96.9500629,23.1245075 95.6543894,21.8791064 C94.3435396,20.5710238 92.6716212,19.9397758 90.5355621,19.9397758 Z M173.248413,19.9398391 C170.309909,19.9398391 168.356597,21.3644209 167.300582,24.2876626 L178.939512,24.2876626 C178.221801,21.3644209 176.353856,19.9398391 173.248413,19.9398391 Z" fill="#FFF" mask="url(#l7nx0sd8n__mj5dtyklib)"/>
  </g>
</svg>
