<?xml version="1.0" encoding="UTF-8"?>
<svg xmlns="http://www.w3.org/2000/svg" xmlns:xlink="http://www.w3.org/1999/xlink" width="19px" height="19px" viewBox="0 0 19 19" version="1.1">
  <title>1. é€šç”¨/2. å›¾æ ‡/2. åŸºç¡€ç±»/é‚®ç®±</title>
  <g id="ðŸŒŸä¼šå‘˜ä¿¡æ¯" stroke="none" stroke-width="1" fill="none" fill-rule="evenodd">
    <g id="ä¼šå‘˜åˆ—è¡¨" transform="translate(-595.000000, -306.000000)">
      <g id="æˆå‘˜ä¿¡æ¯" transform="translate(324.000000, 265.000000)">
        <g id="1.-é€šç”¨/2.-å›¾æ ‡/2.-åŸºç¡€ç±»/é‚®ç®±" transform="translate(271.000000, 41.000000)">
          <path d="M15.1693359,3.04659119 C16.3084232,3.04659119 17.2318359,3.97000389 17.2318359,5.10909119 L17.2318359,5.10909119 L17.2318359,13.0138916 C17.2318359,14.1529789 16.3084232,15.0763916 15.1693359,15.0763916 L15.1693359,15.0763916 L2.83066406,15.0763916 C1.69157677,15.0763916 0.768164063,14.1529789 0.768164063,13.0138916 L0.768164063,13.0138916 L0.768164063,5.10909119 C0.768164063,3.97000389 1.69157677,3.04659119 2.83066406,3.04659119 L2.83066406,3.04659119 Z M16.0884898,4.92360901 L10.3701954,10.0060781 L10.2612554,10.0964856 C9.48253124,10.6992023 8.37572003,10.6690664 7.62980458,10.0060781 L7.62980458,10.0060781 L1.91151018,4.92360901 C1.89947724,4.98356627 1.89316406,5.04559147 1.89316406,5.10909119 L1.89316406,5.10909119 L1.89316406,13.0138916 C1.89316406,13.5316586 2.31289711,13.9513916 2.83066406,13.9513916 L2.83066406,13.9513916 L15.1693359,13.9513916 C15.6871029,13.9513916 16.1068359,13.5316586 16.1068359,13.0138916 L16.1068359,13.0138916 L16.1068359,5.10909119 C16.1068359,5.04559147 16.1005228,4.98356627 16.0884898,4.92360901 Z M15.1693359,4.17159119 L2.83066406,4.17159119 C2.80827047,4.17159119 2.78606026,4.17237634 2.76405946,4.17392061 L8.3771839,9.16521596 L8.45592219,9.22803555 C8.80792553,9.47931393 9.29298954,9.45837406 9.6228161,9.16521596 L9.6228161,9.16521596 L15.2351641,4.17559119 L15.1693359,4.17159119 Z" id="é‚®ç®±" fill="#8C8C8C"></path>
          <rect id="çŸ©å½¢" x="0" y="0" width="18" height="18"></rect>
        </g>
      </g>
    </g>
  </g>
</svg>
