<svg xmlns="http://www.w3.org/2000/svg" xmlns:xlink="http://www.w3.org/1999/xlink" viewBox="0 0 180 160" class="design-iconfont">
  <defs>
    <linearGradient x1="50%" y1="7.09078572%" x2="50%" y2="82.042705%" id="e0eirrm8o__h3rnhzpiba">
      <stop stop-color="#E0E0E0" offset="0%"/>
      <stop stop-color="#FFF" offset="100%"/>
    </linearGradient>
    <linearGradient x1="50%" y1="7.09078572%" x2="50%" y2="82.042705%" id="e0eirrm8o__5clcys0jjb">
      <stop stop-color="#E0E0E0" offset="0%"/>
      <stop stop-color="#FFF" offset="100%"/>
    </linearGradient>
    <linearGradient x1="50%" y1="7.09078572%" x2="50%" y2="82.042705%" id="e0eirrm8o__xk5849ftkc">
      <stop stop-color="#E0E0E0" offset="0%"/>
      <stop stop-color="#FFF" offset="100%"/>
    </linearGradient>
    <linearGradient x1="50%" y1="7.09078572%" x2="50%" y2="82.042705%" id="e0eirrm8o__z0eh7bm2md">
      <stop stop-color="#E0E0E0" offset="0%"/>
      <stop stop-color="#FFF" offset="100%"/>
    </linearGradient>
    <linearGradient x1="50%" y1="7.09078572%" x2="50%" y2="82.042705%" id="e0eirrm8o__3oivxaiqye">
      <stop stop-color="#E0E0E0" offset="0%"/>
      <stop stop-color="#FFF" offset="100%"/>
    </linearGradient>
    <linearGradient x1="100%" y1="42.4994279%" x2="4.43656916%" y2="55.3905013%" id="e0eirrm8o__fxlurtvi3f">
      <stop stop-color="#BDBDBD" offset="0%"/>
      <stop stop-color="#E1E1E1" stop-opacity="0" offset="100%"/>
    </linearGradient>
    <linearGradient x1="50%" y1="7.09078572%" x2="50%" y2="82.042705%" id="e0eirrm8o__gc41g1pw3i">
      <stop stop-color="#E0E0E0" offset="0%"/>
      <stop stop-color="#FFF" stop-opacity="0" offset="100%"/>
    </linearGradient>
    <linearGradient x1="50%" y1="29.7520661%" x2="48.7456273%" y2="57.3464421%" id="e0eirrm8o__na41sl7xvj">
      <stop stop-color="#E8E8E8" offset="0%"/>
      <stop stop-color="#FFF" stop-opacity="0" offset="100%"/>
    </linearGradient>
    <linearGradient x1="50%" y1="7.09078572%" x2="50%" y2="106.2498%" id="e0eirrm8o__pfx9wtkslk">
      <stop stop-color="#E8E8E8" offset="0%"/>
      <stop stop-color="#FFF" stop-opacity="0" offset="100%"/>
    </linearGradient>
    <path id="e0eirrm8o__sbjnfbptpg" d="M0 0H180V160H0z"/>
  </defs>
  <g fill="none" fill-rule="evenodd">
    <g opacity=".5">
      <path fill="url(#e0eirrm8o__h3rnhzpiba)" d="M39.354995 36.1561114H51.032492500000004V93.75611140000001H39.354995z" transform="translate(15.29001 16.783785)"/>
      <path fill="url(#e0eirrm8o__5clcys0jjb)" d="M59.0324925 44.2031943H70.70998999999999V88.7232598H59.0324925z" transform="translate(15.29001 16.783785)"/>
      <path fill="url(#e0eirrm8o__xk5849ftkc)" d="M78.70999 34.1906794H90.3874875V80.6016543H78.70999z" transform="translate(15.29001 16.783785)"/>
      <path fill="url(#e0eirrm8o__5clcys0jjb)" d="M0 34.7031943H11.6774975V79.2232598H0z" transform="translate(15.29001 16.783785)"/>
      <path fill="url(#e0eirrm8o__xk5849ftkc)" d="M19.6774975 24.6906794H31.354995000000002V71.1016543H19.6774975z" transform="translate(15.29001 16.783785)"/>
      <path fill="url(#e0eirrm8o__z0eh7bm2md)" d="M98.3874875 16.2591608H110.06498500000001V80.6016544H98.3874875z" transform="translate(15.29001 16.783785)"/>
      <path fill="url(#e0eirrm8o__3oivxaiqye)" d="M118.064985 8.2894316H129.7424825V80.6016543H118.064985z" transform="translate(15.29001 16.783785)"/>
      <path fill="url(#e0eirrm8o__3oivxaiqye)" d="M137.742482 0H149.41997949999998V72.3122227H137.742482z" transform="translate(15.29001 16.783785)"/>
      <path stroke="url(#e0eirrm8o__fxlurtvi3f)" stroke-width="2.88" stroke-linecap="round" stroke-linejoin="round" d="M5.83874875 45.1210511L25.4032056 36.1561114 45.1937437 50.6466348 64.8712412 59.9426279 84.5487387 48.4304076 104.226236 30.5032032 123.050958 24.6906794 143.581231 6.59315928" transform="translate(15.29001 16.783785)"/>
    </g>
    <mask id="e0eirrm8o__b9fu831uth" fill="#fff">
      <use xlink:href="#e0eirrm8o__sbjnfbptpg"/>
    </mask>
    <path d="M47.7925749,115.434596 L43.2865504,121.429723 C42.9804898,121.839012 43.0250264,122.411851 43.3889801,122.747195 L46.4220553,125.540374 C46.5423218,125.650833 46.7198994,125.66875 46.8640612,125.584973 C47.0082231,125.501196 47.0871367,125.334223 47.060484,125.169363 L46.7196046,123.076993 C46.6459023,122.622743 46.782209,122.153146 47.0888401,121.804921 L50.6579027,117.752831" fill="#FCB" fill-rule="nonzero" mask="url(#e0eirrm8o__b9fu831uth)" transform="rotate(18 46.870698 120.535995)"/>
    <path d="M56.5678653,117.749666 L53.1791063,125.760648 C52.9495182,126.30712 53.1603668,126.939273 53.664037,127.214536 L57.8610527,129.506832 C58.0273883,129.597393 58.2322542,129.567732 58.3709814,129.433003 C58.5097087,129.298274 58.5516649,129.088228 58.475414,128.910179 L57.5047186,126.651159 C57.2943222,126.160645 57.315955,125.593934 57.5633186,125.116021 L60.4428438,119.554549" fill="#FCB" fill-rule="nonzero" mask="url(#e0eirrm8o__b9fu831uth)" transform="rotate(16 56.764695 123.654251)"/>
    <g mask="url(#e0eirrm8o__b9fu831uth)">
      <path d="M3.67196495,0.571292565 C2.09868592,5.94440339 3.61204435,10.3126047 8.21204023,13.6758966 C15.1120341,18.7208344 21.5509845,14.2059623 26.1829959,17.5870111 C29.2710035,19.8410436 27.3248762,25.2591533 20.3446141,33.8413404 L24.392775,36.4834294 C37.0440199,27.1621161 42.2273528,20.0054743 39.9427739,15.0135042 C37.6581949,10.021534 28.860051,5.01703261 13.5483421,4.54747351e-13 L3.67196495,0.571292565 Z" fill="#262626" transform="rotate(9 -501.71110325 233.72872777)"/>
      <path d="M0.0161841918,4.89766439 C-0.245787181,11.3629252 2.67261341,15.8382767 8.77138598,18.3237187 C17.9195448,22.0518818 27.7382991,12.547304 33.8779385,15.0437071 C37.9710313,16.7079758 36.6881805,23.7209619 30.029386,36.0826654 L34.786672,37.5837264 C46.3675204,23.5936252 50.1791216,14.1189681 46.2214754,9.15975496 C42.2638292,4.20054182 30.5005953,1.64583429 10.9317735,1.49563236 L0.0161841918,4.89766439 Z" fill="#414141" transform="rotate(9 -501.71110325 233.72872777)"/>
    </g>
    <path d="M47.1096492,51.2560645 L47.5806348,55.2315908 C47.6386497,55.7212868 47.288703,56.1652942 46.7990071,56.2233091 C46.7641443,56.2274393 46.7290683,56.2295098 46.6939618,56.2295098 L46.5855894,56.2295098 C46.0808443,56.2295098 45.6623054,56.6203752 45.6278312,57.1239416 L45.5561921,58.1703774 C45.5199797,58.6993326 45.0618209,59.0987797 44.5328656,59.0625673 C44.4163659,59.0545917 44.3022988,59.0254284 44.196267,58.9765097 L39.9954575,57.0384287 L39.9954575,57.0384287 L39.3633879,52.9138091 L39.9954575,50.7951054 L41.1404195,48.568073 L47.1096492,49.8869453 L47.1096492,51.2560645 Z" fill="#FCB" mask="url(#e0eirrm8o__b9fu831uth)"/>
    <path fill="#FCB" mask="url(#e0eirrm8o__b9fu831uth)" d="M42.8878724 57.6122312L42.4884509 61.8975563 36.6993849 58.2181329 38.7687268 53.7601311 39.3633879 51.9460243 42.4884509 53.7601311z"/>
    <path d="M45.70149,51.2914212 C47.2962591,51.2991925 48.5596331,51.1235527 49.4916119,50.7645016 C50.8895802,50.225925 51.953096,49.5501725 52.2197672,48.2694558 C52.4864383,46.9887391 51.953096,45.8727423 49.4916119,45.2737678 C47.0301279,44.6747933 43.9514444,45.1672835 42.5868903,45.4635951 C41.2223362,45.7599066 41.0928153,45.81097 40.081502,46.3618097 C39.0701888,46.9126494 38.633254,47.3307735 38.4503773,48.0675777 C38.3460656,48.4878464 38.331002,49.1178718 38.4051866,49.9576541 C38.4510979,50.4734394 38.4924819,50.9896162 38.5299798,51.5060813 L38.5701377,52.0636729 C38.6086823,52.598864 39.073787,53.0014756 39.6089781,52.962931 C39.6432117,52.9604654 39.6772906,52.9561876 39.7110716,52.9501154 C40.3265311,52.8394855 40.774398,52.3039358 40.774398,51.6786123 L40.774398,51.5467704 C40.774398,50.8821114 41.247351,50.311513 41.9004724,50.1882079 C42.2343583,50.1251724 42.5561267,50.3447401 42.6191622,50.678626 C42.6403624,50.7909189 42.6298682,50.9068973 42.5888317,51.0135516 C42.0930387,52.3029955 42.0402397,53.0122284 42.4304348,53.1412502 C42.8991351,53.2962306 43.1343227,51.7895737 44.2036281,51.2914212 C44.4993636,51.1536483 44.9986509,51.1536483 45.70149,51.2914212 L45.70149,51.2914212 Z" fill="#262626" mask="url(#e0eirrm8o__b9fu831uth)"/>
    <path d="M36.7400641,57.4749636 L37.655997,57.4749636 C39.03624,57.4749636 40.3718053,57.9641969 41.4254578,58.8557615 L42.4069422,59.68626 C44.0918921,61.1120068 45.2033923,63.0998077 45.5357792,65.2818546 L48.6483265,85.7150455 C48.7880938,86.6325866 48.1970439,87.5027861 47.2925944,87.7110828 C46.2391688,87.953689 45.2599168,88.4471193 44.4381192,89.1494098 L40.3187964,92.669694 C38.6746016,94.0747873 36.820772,95.2140921 34.8245062,96.04631 L33.3030188,96.6805989 C32.3357192,97.0838539 31.2626405,97.157776 30.2491819,96.8909713 C29.2991986,96.6408772 28.5958667,95.8395389 28.4711006,94.8651423 C27.5387928,87.5830648 27.2682964,81.1625255 27.6596112,75.6035244 C28.2895893,66.6540857 30.7927428,63.2725828 31.8116832,61.8975563 C32.4909768,60.980872 33.589746,60.3095709 35.1079907,59.883653 L35.1079907,59.883653 L35.313178,58.6793083 C35.4316847,57.9837342 36.0344671,57.4749636 36.7400641,57.4749636 Z" fill="#FFA21A" mask="url(#e0eirrm8o__b9fu831uth)"/>
    <path d="M66.1203576,83.0650405 L69.4664767,81.639484 C71.8814719,80.6106168 74.6664504,80.9916588 76.7163238,82.6314113 L78.9320764,84.4038553 C79.2304754,84.6425533 79.2788727,85.0779564 79.0401748,85.3763554 C78.94322,85.4975598 78.8083276,85.5826441 78.6571803,85.617932 C77.7506341,85.8295805 76.8026958,85.7803126 75.9229752,85.4758251 L73.8873919,84.7712724 C73.2108127,84.5370959 72.4749045,84.5387264 71.7993696,84.7758987 C71.111788,85.0173006 70.4835025,85.4023705 69.9563217,85.9054846 L69.7470247,86.1052269 C69.084342,86.7376569 68.2769555,87.1983017 67.395319,87.4469646 L65.8330193,87.8876063 C64.859517,88.1621796 63.8477518,87.5955857 63.5731785,86.6220834 C63.5475697,86.5312874 63.5290146,86.4386484 63.5176788,86.3449935 L63.384262,85.242721 C63.3114864,84.6414587 63.6539805,84.0669194 64.2174939,83.8449614 C64.8553295,83.5937292 65.4896775,83.333731 66.1203576,83.0650405 Z" fill="#FCB" mask="url(#e0eirrm8o__b9fu831uth)"/>
    <path d="M35.9477399,81.2061113 C35.5604617,80.358817 35.2429264,79.6288166 34.995134,79.0161102 C33.4022918,75.0775518 31.162509,69.0402634 32.4275238,65.6583114 C33.6925385,62.2763595 35.4034514,61.8664584 37.2488014,61.8664584 C39.0941514,61.8664584 41.0475617,62.7974262 42.7507715,65.1188404 C43.6181977,66.3011115 45.1248131,70.5250611 47.2706176,77.7906893 C48.572404,82.1984919 52.8263653,85.056259 57.399172,84.5949454 L62.8259367,84.047483 C64.3398366,83.8947579 65.7841035,84.7185823 66.4232424,86.0994225 C66.8853425,87.0977759 66.4506233,88.2817074 65.4522699,88.7438075 C65.3065329,88.8112637 65.1531731,88.8608483 64.9955304,88.8914817 L54.7571957,90.8810087 C47.0053671,92.3873544 39.2305211,88.3882608 35.9477399,81.2061113 Z" fill="#FFBE5F" mask="url(#e0eirrm8o__b9fu831uth)"/>
    <path fill="#B9B9B9" mask="url(#e0eirrm8o__b9fu831uth)" d="M98.0995278 62.155272L100.28558 62.155272 91.9120165 85.8838378 89.7089358 85.8838378z"/>
    <path fill="#B9B9B9" mask="url(#e0eirrm8o__b9fu831uth)" d="M69.8761231 85.7525336L93.9792948 85.7525336 93.9792948 87.4426297 69.8761231 87.4426297z"/>
    <path d="M100.450802,151.837068 L100.450802,111.537484 C100.450802,102.41821 93.0581695,95.0255781 83.9388955,95.0255781 L71.1935291,95.0255781 C69.1133266,95.0255781 67.4269893,93.3392408 67.4269893,91.2590384 C67.4269893,89.1788359 69.1133266,87.4924986 71.1935291,87.4924986 L130.913921,87.4924986 C142.843271,87.4924986 152.513921,97.163148 152.513921,109.092499 L152.513921,151.837068 L152.513921,151.837068" fill="url(#e0eirrm8o__gc41g1pw3i)" mask="url(#e0eirrm8o__b9fu831uth)"/>
    <g mask="url(#e0eirrm8o__b9fu831uth)">
      <path d="M10.5200197,2.29995114 C12.1887257,2.29995114 12.957655,2.93476355 12.957655,3.56676189 C12.957655,3.98539326 12.4225959,5.03795716 11.7072746,5.70094777 L12.1762692,5.7000225 C14.2661923,5.70084595 16.2015262,7.13651796 17.0562201,9.30518353 C17.3350603,9.99808254 17.5698729,10.7038293 17.759954,11.4224239 C18.2068637,13.0880341 18.358542,14.6545101 18.2045099,16.121852 C18.1276216,16.8318869 17.7791584,17.4682693 17.2302192,17.8974423 C15.8757825,18.9433745 13.6199408,19.4663933 10.4783946,19.4663933 C7.4749384,19.4663933 5.24074455,18.9883436 3.79116167,18.0322442 C3.06781287,17.5495556 2.6431513,16.7315386 2.64680222,15.8351008 C2.65493652,14.4050246 2.86454339,12.9341304 3.26896283,11.4224239 C3.43946221,10.7768091 3.64168396,10.1337439 3.87514879,9.49322844 C4.68681981,7.22614864 6.67270891,5.69928455 8.82999962,5.7000225 L9.31677968,5.70016675 C8.61061198,5.0503562 8.08498266,4.0240932 8.08498266,3.56676189 C8.08498266,2.87091602 8.85131369,2.29995114 10.5200197,2.29995114 Z" fill="#FFA21A" transform="rotate(-22 230.97544833 -189.37971992)"/>
      <path d="M10.6422071,8.43107492 C10.1009975,8.45906852 9.66243112,8.59903652 9.30784552,8.86031012 C8.84128552,9.18690212 8.60800552,9.65346212 8.60800552,10.2599901 C8.60800552,10.9504989 8.93459752,11.4637149 9.58778152,11.8089693 L10.6422071,12.2008797 L10.6422071,14.4776925 C10.3249463,14.4403677 10.0823351,14.3377245 9.91437352,14.1697629 C9.69042472,13.9551453 9.56911912,13.5912285 9.53179432,13.0873437 L8.52402472,13.0873437 C8.58001192,13.8525021 8.79462952,14.4123741 9.18653992,14.7856221 C9.52246312,15.1122141 10.0076855,15.2988381 10.6422071,15.3361629 L10.6422071,16.1573085 L11.2207415,16.1573085 L11.2207415,15.3361629 C11.7992759,15.2988381 12.2658359,15.1588701 12.6390839,14.9162589 C13.1243063,14.5803357 13.3762487,14.0857821 13.3762487,13.4232669 C13.3762487,12.7514205 13.0496567,12.2382045 12.4058039,11.8742877 C12.3124919,11.8369629 11.9112503,11.6783325 11.2207415,11.4170589 L11.2207415,9.28021412 C11.4726839,9.30820772 11.6779703,9.38285732 11.8366007,9.50416292 C12.0698807,9.67212452 12.2191799,9.96139172 12.2751671,10.3626333 L13.2642743,10.3626333 C13.1709623,9.69078692 12.9376823,9.19623332 12.5551031,8.89763492 C12.2191799,8.62703012 11.7806135,8.46839972 11.2207415,8.43107492 L11.2207415,7.66591652 L10.6422071,7.66591652 L10.6422071,8.43107492 Z M11.2207415,12.4061661 C11.2767287,12.4248285 11.3327159,12.4528221 11.3887031,12.4714845 C12.0418871,12.6954333 12.3684791,13.0313565 12.3684791,13.4605917 C12.3684791,13.7871837 12.2285111,14.0391261 11.9672375,14.2257501 C11.7619511,14.3563869 11.5193399,14.4403677 11.2207415,14.4776925 L11.2207415,12.4061661 Z M10.6422071,11.2024413 C10.6235447,11.2024413 10.6142135,11.1931101 10.6048823,11.1931101 C9.95169832,10.9504989 9.62510632,10.6425693 9.62510632,10.2599901 C9.62510632,9.90540452 9.74641192,9.64413092 10.0076855,9.47616932 C10.1663159,9.36419492 10.3809335,9.28954532 10.6422071,9.27088292 L10.6422071,11.2024413 Z" fill="#FFF" fill-rule="nonzero" transform="rotate(-23 223.66826164 -177.90485439)"/>
    </g>
    <g mask="url(#e0eirrm8o__b9fu831uth)">
      <path d="M9.60392557,1.5364424 C11.2726316,1.5364424 12.0415609,2.17125481 12.0415609,2.80325315 C12.0415609,3.22188452 11.5065017,4.27444842 10.7911805,4.93743903 L11.2601751,4.93651376 C13.3500982,4.93733721 15.2854321,6.37300922 16.140126,8.54167479 C16.4189662,9.2345738 16.6537788,9.94032061 16.8438598,10.6589152 C17.2907696,12.3245253 17.4424479,13.8910013 17.2884157,15.3583432 C17.2115275,16.0683782 16.8630643,16.7047606 16.3141251,17.1339336 C14.9596883,18.1798657 12.7038467,18.7028846 9.56230051,18.7028846 C6.55884427,18.7028846 4.32465041,18.2248349 2.87506754,17.2687354 C2.15171874,16.7860469 1.72705717,15.9680298 1.73070808,15.071592 C1.73884238,13.6415158 1.94844926,12.1706217 2.35286869,10.6589152 C2.52336808,10.0133004 2.72558982,9.37023521 2.95905466,8.7297197 C3.77072567,6.4626399 5.75661477,4.93577581 7.91390548,4.93651376 L8.40068555,4.93665801 C7.69451784,4.28684746 7.16888852,3.26058446 7.16888852,2.80325315 C7.16888852,2.10740728 7.93521955,1.5364424 9.60392557,1.5364424 Z" fill="#FFA21A" transform="rotate(13 -239.0137097 512.55865561)"/>
      <path d="M9.04664903,7.76566992 C8.50543943,7.79366352 8.06687303,7.93363152 7.71228743,8.19490512 C7.24572743,8.52149712 7.01244743,8.98805712 7.01244743,9.59458512 C7.01244743,10.2850939 7.33903943,10.7983099 7.99222343,11.1435643 L9.04664903,11.5354747 L9.04664903,13.8122875 C8.72938823,13.7749627 8.48677703,13.6723195 8.31881543,13.5043579 C8.09486663,13.2897403 7.97356103,12.9258235 7.93623623,12.4219387 L6.92846663,12.4219387 C6.98445383,13.1870971 7.19907143,13.7469691 7.59098183,14.1202171 C7.92690503,14.4468091 8.41212743,14.6334331 9.04664903,14.6707579 L9.04664903,15.4919035 L9.62518343,15.4919035 L9.62518343,14.6707579 C10.2037178,14.6334331 10.6702778,14.4934651 11.0435258,14.2508539 C11.5287482,13.9149307 11.7806906,13.4203771 11.7806906,12.7578619 C11.7806906,12.0860155 11.4540986,11.5727995 10.8102458,11.2088827 C10.7169338,11.1715579 10.3156922,11.0129275 9.62518343,10.7516539 L9.62518343,8.61480912 C9.87712583,8.64280272 10.0824122,8.71745232 10.2410426,8.83875792 C10.4743226,9.00671952 10.6236218,9.29598672 10.679609,9.69722832 L11.6687162,9.69722832 C11.5754042,9.02538192 11.3421242,8.53082832 10.959545,8.23222992 C10.6236218,7.96162512 10.1850554,7.80299472 9.62518343,7.76566992 L9.62518343,7.00051152 L9.04664903,7.00051152 L9.04664903,7.76566992 Z M9.62518343,11.7407611 C9.68117063,11.7594235 9.73715783,11.7874171 9.79314503,11.8060795 C10.446329,12.0300283 10.772921,12.3659515 10.772921,12.7951867 C10.772921,13.1217787 10.632953,13.3737211 10.3716794,13.5603451 C10.166393,13.6909819 9.92378183,13.7749627 9.62518343,13.8122875 L9.62518343,11.7407611 Z M9.04664903,10.5370363 C9.02798663,10.5370363 9.01865543,10.5277051 9.00932423,10.5277051 C8.35614023,10.2850939 8.02954823,9.97716432 8.02954823,9.59458512 C8.02954823,9.23999952 8.15085383,8.97872592 8.41212743,8.81076432 C8.57075783,8.69878992 8.78537543,8.62414032 9.04664903,8.60547792 L9.04664903,10.5370363 Z" fill="#FFF" fill-rule="nonzero" transform="rotate(12 -264.56325113 553.0125673)"/>
    </g>
    <g mask="url(#e0eirrm8o__b9fu831uth)">
      <path d="M7.87324084,0 C9.54194686,4.4408921e-16 10.3108762,0.634812407 10.3108762,1.26681074 C10.3108762,1.68544212 9.77581698,2.73800601 9.06049575,3.40099662 L9.52949035,3.40007136 C11.6194135,3.40089481 13.5547474,4.83656682 14.4094412,7.00523239 C14.6882815,7.6981314 14.9230941,8.4038782 15.1131751,9.1224728 C15.5600848,10.7880829 15.7117631,12.3545589 15.557731,13.8219008 C15.4808428,14.5319358 15.1323796,15.1683182 14.5834403,15.5974912 C13.2290036,16.6434233 10.973162,17.1664422 7.83161578,17.1664422 C4.82815953,17.1664422 2.59396567,16.6883924 1.1443828,15.732293 C0.421034002,15.2496045 -0.003627567,14.4315874 2.33502396e-05,13.5351496 C0.00815764918,12.1050734 0.217764523,10.6341793 0.622183957,9.1224728 C0.792683343,8.47685797 0.994905089,7.8337928 1.22836992,7.1932773 C2.04004093,4.92619749 4.02593004,3.39933341 6.18322075,3.40007136 L6.67000081,3.40021561 C5.96383311,2.75040505 5.43820378,1.72414206 5.43820378,1.26681074 C5.43820378,0.570964877 6.20453482,0 7.87324084,0 Z" fill="#FFA21A" transform="translate(121.651048 70.326056)"/>
      <path d="M7.57410156,6.2417811 C7.03289196,6.2697747 6.59432556,6.4097427 6.23973996,6.6710163 C5.77317996,6.9976083 5.53989996,7.4641683 5.53989996,8.0706963 C5.53989996,8.7612051 5.86649196,9.2744211 6.51967596,9.6196755 L7.57410156,10.0115859 L7.57410156,12.2883987 C7.25684076,12.2510739 7.01422956,12.1484307 6.84626796,11.9804691 C6.62231916,11.7658515 6.50101356,11.4019347 6.46368876,10.8980499 L5.45591916,10.8980499 C5.51190636,11.6632083 5.72652396,12.2230803 6.11843436,12.5963283 C6.45435756,12.9229203 6.93957996,13.1095443 7.57410156,13.1468691 L7.57410156,13.9680147 L8.15263596,13.9680147 L8.15263596,13.1468691 C8.73117036,13.1095443 9.19773036,12.9695763 9.57097836,12.7269651 C10.0562008,12.3910419 10.3081432,11.8964883 10.3081432,11.2339731 C10.3081432,10.5621267 9.98155116,10.0489107 9.33769836,9.6849939 C9.24438636,9.6476691 8.84314476,9.4890387 8.15263596,9.2277651 L8.15263596,7.0909203 C8.40457836,7.1189139 8.60986476,7.1935635 8.76849516,7.3148691 C9.00177516,7.4828307 9.15107436,7.7720979 9.20706156,8.1733395 L10.1961688,8.1733395 C10.1028568,7.5014931 9.86957676,7.0069395 9.48699756,6.7083411 C9.15107436,6.4377363 8.71250796,6.2791059 8.15263596,6.2417811 L8.15263596,5.4766227 L7.57410156,5.4766227 L7.57410156,6.2417811 Z M8.15263596,10.2168723 C8.20862316,10.2355347 8.26461036,10.2635283 8.32059756,10.2821907 C8.97378156,10.5061395 9.30037356,10.8420627 9.30037356,11.2712979 C9.30037356,11.5978899 9.16040556,11.8498323 8.89913196,12.0364563 C8.69384556,12.1670931 8.45123436,12.2510739 8.15263596,12.2883987 L8.15263596,10.2168723 Z M7.57410156,9.0131475 C7.55543916,9.0131475 7.54610796,9.0038163 7.53677676,9.0038163 C6.88359276,8.7612051 6.55700076,8.4532755 6.55700076,8.0706963 C6.55700076,7.7161107 6.67830636,7.4548371 6.93957996,7.2868755 C7.09821036,7.1749011 7.31282796,7.1002515 7.57410156,7.0815891 L7.57410156,9.0131475 Z" fill="#FFF" fill-rule="nonzero" transform="rotate(-1 4097.99146798 -6925.02934157)"/>
    </g>
    <path d="M43.3067884,102.039896 C50.0338229,102.039896 55.905804,105.700815 59.0391072,111.139027 C65.4521536,111.564904 70.5227884,116.902245 70.5227884,123.423896 C70.5227884,130.223626 65.0105183,135.735896 58.2107884,135.735896 C56.6786149,135.735896 55.2118096,135.456022 53.8587068,134.944608 C50.8865174,137.074447 47.2430323,138.327896 43.3067884,138.327896 C40.4980045,138.327896 37.8382879,137.689663 35.4647516,136.55031 C33.3635871,137.684723 30.9582984,138.327896 28.4027884,138.327896 C20.1715365,138.327896 13.4987884,131.655148 13.4987884,123.423896 C13.4987884,115.192645 20.1715365,108.519896 28.4027884,108.519896 C28.7319299,108.519896 29.0585794,108.530566 29.38241,108.551578 C32.7097724,104.571601 37.7126247,102.039896 43.3067884,102.039896 Z" fill="url(#e0eirrm8o__na41sl7xvj)" mask="url(#e0eirrm8o__b9fu831uth)"/>
    <path d="M47.3852116,8.70268777 C54.112246,8.70268777 59.9842271,12.3636062 63.1175304,17.8018184 C69.5305768,18.2276953 74.6012116,23.5650364 74.6012116,30.0866878 C74.6012116,36.8864176 69.0889414,42.3986878 62.2892116,42.3986878 C60.7570381,42.3986878 59.2902328,42.1188134 57.93713,41.6073992 C54.9649406,43.7372386 51.3214554,44.9906878 47.3852116,44.9906878 C44.5764277,44.9906878 41.9167111,44.3524545 39.5431748,43.213101 C37.4420103,44.3475143 35.0367215,44.9906878 32.4812116,44.9906878 C24.2499597,44.9906878 17.5772116,38.3179397 17.5772116,30.0866878 C17.5772116,21.8554359 24.2499597,15.1826878 32.4812116,15.1826878 C32.8103531,15.1826878 33.1370026,15.1933571 33.4608332,15.2143689 C36.7881955,11.2343927 41.7910479,8.70268777 47.3852116,8.70268777 Z" fill="url(#e0eirrm8o__pfx9wtkslk)" opacity=".60000002" mask="url(#e0eirrm8o__b9fu831uth)"/>
    <path d="M137.49399,110.539896 C144.221024,110.539896 150.093006,114.200815 153.226309,119.639027 C159.639355,120.064904 164.70999,125.402245 164.70999,131.923896 C164.70999,138.723626 159.19772,144.235896 152.39799,144.235896 C150.865817,144.235896 149.399011,143.956022 148.045908,143.444608 C145.073719,145.574447 141.430234,146.827896 137.49399,146.827896 C134.685206,146.827896 132.025489,146.189663 129.651953,145.05031 C127.550789,146.184723 125.1455,146.827896 122.58999,146.827896 C114.358738,146.827896 107.68599,140.155148 107.68599,131.923896 C107.68599,123.692645 114.358738,117.019896 122.58999,117.019896 C122.919131,117.019896 123.245781,117.030566 123.569612,117.051578 C126.896974,113.071601 131.899826,110.539896 137.49399,110.539896 Z" fill="url(#e0eirrm8o__pfx9wtkslk)" opacity=".40000001" mask="url(#e0eirrm8o__b9fu831uth)"/>
  </g>
</svg>
