<svg xmlns="http://www.w3.org/2000/svg" xmlns:xlink="http://www.w3.org/1999/xlink" viewBox="0 0 20 20" class="design-iconfont">
  <defs>
    <path id="1uqj9cfkx__k8zfgyfjwa" d="M0 0H20V20H0z"/>
  </defs>
  <g fill="none" fill-rule="evenodd">
    <mask id="1uqj9cfkx__ugbmlhrzvb" fill="#fff">
      <use xlink:href="#1uqj9cfkx__k8zfgyfjwa"/>
    </mask>
    <path d="M16.7734782,2.47033691 C17.141668,2.47033691 17.4401449,2.76881375 17.4401449,3.13700358 L17.4401449,9.29148356 C17.4401449,9.65967339 17.141668,9.95815023 16.7734782,9.95815023 C16.4052884,9.95815023 16.1068115,9.65967339 16.1068115,9.29148356 L16.1066227,3.80367025 L7.99628939,3.80333691 L7.99662272,6.47033691 C7.99662272,7.27575217 7.34370465,7.92867025 6.53828939,7.92867025 L3.87128939,7.92833691 L3.87162272,16.1603369 L7.45788574,16.1607259 C7.79775328,16.1607259 8.07822039,16.4150494 8.11935813,16.7437673 L8.12455241,16.8273926 C8.12455241,17.1955824 7.82607558,17.4940592 7.45788574,17.4940592 L3.20495605,17.4940592 C2.83676622,17.4940592 2.53828939,17.1955824 2.53828939,16.8273926 L2.53828939,6.66666667 C2.53828939,6.47069732 2.6245127,6.28465366 2.77404181,6.15798468 L6.94070848,2.6283216 C7.06112065,2.52631814 7.21381335,2.47033691 7.37162272,2.47033691 L16.7734782,2.47033691 Z M16.7708845,11.7220679 C17.0149622,11.9661456 17.0149622,12.3618737 16.7708845,12.6059514 L12.1075016,17.2693343 C11.8634239,17.513412 11.4676958,17.513412 11.2236181,17.2693343 L8.57493663,14.6206528 C8.33085895,14.3765751 8.33085895,13.980847 8.57493663,13.7367694 C8.81901432,13.4926917 9.21474243,13.4926917 9.45882011,13.7367694 L11.6652117,15.9431763 L15.8870011,11.7220679 C16.1310787,11.4779902 16.5268069,11.4779902 16.7708845,11.7220679 Z M13.8707771,9.33939611 C14.2159539,9.33851371 14.4964921,9.61761779 14.4973787,9.96279462 C14.4982611,10.3079715 14.219157,10.5885096 13.8739802,10.5893941 L6.92680194,10.6071981 C6.58162511,10.6080805 6.30108696,10.3289765 6.30020036,9.98379962 C6.29931795,9.63862278 6.57842203,9.35808464 6.92359887,9.35720013 L13.8707771,9.33939611 Z M13.8245086,6.03687741 C14.1696865,6.03687741 14.4495086,6.31669944 14.4495086,6.66187741 C14.4495086,7.00705538 14.1696865,7.28687741 13.8245086,7.28687741 L10.3107166,7.28687741 C9.96553868,7.28687741 9.68571665,7.00705538 9.68571665,6.66187741 C9.68571665,6.31669944 9.96553868,6.03687741 10.3107166,6.03687741 L13.8245086,6.03687741 Z M6.74628939,4.53933691 L4.22028939,6.67833691 L6.53828939,6.67867025 C6.65334871,6.67867025 6.74662272,6.58539624 6.74662272,6.47033691 L6.74628939,4.53933691 Z" fill="#FFF" mask="url(#1uqj9cfkx__ugbmlhrzvb)"/>
  </g>
</svg>
