<svg xmlns="http://www.w3.org/2000/svg" xmlns:xlink="http://www.w3.org/1999/xlink" viewBox="0 0 41 42" class="design-iconfont">
  <defs>
    <rect id="tv7w89rz4__smlb47777a" x="0" y="0" width="39" height="40" rx="2.77777778"/>
    <path id="tv7w89rz4__so55jhs28c" d="M0 0H24V24H0z"/>
  </defs>
  <g transform="translate(1 1)" fill="none" fill-rule="evenodd">
    <mask id="tv7w89rz4__570keudqkb" fill="#fff">
      <use xlink:href="#tv7w89rz4__smlb47777a"/>
    </mask>
    <rect stroke="#F0F0F0" stroke-width=".69444444" x="-.34722222" y="-.34722222" width="39.6944444" height="40.6944444" rx="2.77777778"/>
    <g mask="url(#tv7w89rz4__570keudqkb)">
      <g transform="translate(8 8)">
        <mask id="tv7w89rz4__ccx4p3gmyd" fill="#fff">
          <use xlink:href="#tv7w89rz4__so55jhs28c"/>
        </mask>
        <path d="M19.7214918,4.06044511 C20.9641325,4.06044511 21.9714918,5.06780442 21.9714918,6.31044511 L21.9714918,17.6122822 C21.9714918,18.8549229 20.9641325,19.8622822 19.7214918,19.8622822 L4.27850819,19.8622822 C3.0358675,19.8622822 2.02850819,18.8549229 2.02850819,17.6122822 L2.02850819,6.31044511 C2.02850819,5.06780442 3.0358675,4.06044511 4.27850819,4.06044511 Z M15.281,11.964 L12.2314731,14.7784451 L13.4980762,15.8127427 C13.8087049,16.086755 13.8383884,16.5607001 13.5643761,16.8713287 C13.3152741,17.1537184 12.9009383,17.203922 12.5942833,17.0048467 L12.5057901,16.9376286 L8.59,13.769 L3.53284516,17.6934108 C3.57329397,18.0694675 3.89170582,18.3622822 4.27850819,18.3622822 L19.7214918,18.3622822 C20.1357054,18.3622822 20.4714918,18.0264957 20.4714918,17.6122822 L20.4714731,15.4624451 L15.281,11.964 Z M19.7214918,5.56044511 L4.27850819,5.56044511 C3.86429463,5.56044511 3.52850819,5.89623155 3.52850819,6.31044511 L3.52847312,15.7974451 L8.16082952,12.2034634 C8.4137512,12.007202 8.75893649,11.9953753 9.02221362,12.1625014 L9.11676292,12.2335513 L11.0584731,13.8204451 L14.7001512,10.4592127 C14.9272475,10.2495511 15.2559694,10.2030772 15.5287249,10.3318266 L15.628077,10.3883448 L20.4714731,13.6524451 L20.4714918,6.31044511 C20.4714918,5.93074934 20.1893379,5.61695415 19.8232624,5.56729173 L19.7214918,5.56044511 Z M8.20325266,6.08591525 C9.70158392,6.08591525 10.9162214,7.30055273 10.9162214,8.79888398 C10.9162214,10.2972152 9.70158392,11.5118527 8.20325266,11.5118527 C6.7049214,11.5118527 5.49028393,10.2972152 5.49028393,8.79888398 C5.49028393,7.30055273 6.7049214,6.08591525 8.20325266,6.08591525 Z M8.20325266,7.58591525 C7.53334853,7.58591525 6.99028393,8.12897985 6.99028393,8.79888398 C6.99028393,9.46878812 7.53334853,10.0118527 8.20325266,10.0118527 C8.87315679,10.0118527 9.41622139,9.46878812 9.41622139,8.79888398 C9.41622139,8.12897985 8.87315679,7.58591525 8.20325266,7.58591525 Z" fill="#F0F0F0" mask="url(#tv7w89rz4__ccx4p3gmyd)"/>
      </g>
    </g>
  </g>
</svg>
