<svg xmlns="http://www.w3.org/2000/svg" xmlns:xlink="http://www.w3.org/1999/xlink" viewBox="0 0 50 50" class="design-iconfont">
  <defs>
    <rect id="36evpxmdt__r31h6jl78a" x="0" y="0" width="48" height="48" rx="3.33333321"/>
    <path id="36evpxmdt__ig2430ti9c" d="M0 0H28.8V28.8H0z"/>
  </defs>
  <g transform="translate(1 1)" fill="none" fill-rule="evenodd">
    <mask id="36evpxmdt__b2s4tv5v7b" fill="#fff">
      <use xlink:href="#36evpxmdt__r31h6jl78a"/>
    </mask>
    <rect stroke="#F0F0F0" x="-.5" y="-.5" width="49" height="49" rx="3.33333321"/>
    <g mask="url(#36evpxmdt__b2s4tv5v7b)">
      <g transform="translate(9.6 9.6)">
        <mask id="36evpxmdt__c9c1fjv2bd" fill="#fff">
          <use xlink:href="#36evpxmdt__ig2430ti9c"/>
        </mask>
        <path d="M23.6657902,4.87253413 C25.156959,4.87253413 26.3657902,6.08136531 26.3657902,7.57253413 L26.3657902,21.1347386 C26.3657902,22.6259074 25.156959,23.8347386 23.6657902,23.8347386 L5.13420983,23.8347386 C3.643041,23.8347386 2.43420983,22.6259074 2.43420983,21.1347386 L2.43420983,7.57253413 C2.43420983,6.08136531 3.643041,4.87253413 5.13420983,4.87253413 Z M18.3372,14.3568 L14.6791677,17.7345341 L16.1976915,18.9752913 C16.5704459,19.304106 16.606066,19.8728401 16.2772513,20.2455945 C15.9783289,20.5844621 15.4811259,20.6447064 15.1131399,20.405816 L15.0069481,20.3251543 L10.308,16.5228 L4.23928619,21.2308954 C4.28727696,21.6827392 4.66963647,22.0347386 5.13420983,22.0347386 L23.6657902,22.0347386 C24.1628464,22.0347386 24.5657902,21.6317949 24.5657902,21.1347386 L24.5651677,18.5525341 L18.3372,14.3568 Z M23.6657902,6.67253413 L5.13420983,6.67253413 C4.63715355,6.67253413 4.23420983,7.07547786 4.23420983,7.57253413 L4.23416775,18.9565341 L9.79299542,14.6441561 C10.0965014,14.4086424 10.5107238,14.3944504 10.8266563,14.5950016 L10.9401155,14.6802616 L13.2701677,16.5835341 L17.6401814,12.5510552 C17.912697,12.2994613 18.3071633,12.2436926 18.6344698,12.398192 L18.7536924,12.4660138 L24.5651677,16.3825341 L24.5657902,7.57253413 C24.5657902,7.11371295 24.2224535,6.73508235 23.7786843,6.67954641 L23.6657902,6.67253413 Z M9.84390319,7.3030983 C11.6419007,7.3030983 13.0994657,8.76066327 13.0994657,10.5586608 C13.0994657,12.3566583 11.6419007,13.8142233 9.84390319,13.8142233 C8.04590568,13.8142233 6.58834071,12.3566583 6.58834071,10.5586608 C6.58834071,8.76066327 8.04590568,7.3030983 9.84390319,7.3030983 Z M9.84390319,9.1030983 C9.04001823,9.1030983 8.38834071,9.75477582 8.38834071,10.5586608 C8.38834071,11.3625457 9.04001823,12.0142233 9.84390319,12.0142233 C10.6477882,12.0142233 11.2994657,11.3625457 11.2994657,10.5586608 C11.2994657,9.75477582 10.6477882,9.1030983 9.84390319,9.1030983 Z" fill="#F0F0F0" mask="url(#36evpxmdt__c9c1fjv2bd)"/>
      </g>
    </g>
  </g>
</svg>
