<svg xmlns="http://www.w3.org/2000/svg" xmlns:xlink="http://www.w3.org/1999/xlink" viewBox="0 0 24 24" class="design-iconfont">
  <defs>
    <path id="ctk42ku01__1q7ehr8e0a" d="M0 0H24V24H0z"/>
  </defs>
  <g fill="none" fill-rule="evenodd">
    <mask id="ctk42ku01__b4wnu46smb" fill="#fff">
      <use xlink:href="#ctk42ku01__1q7ehr8e0a"/>
    </mask>
    <path d="M12,0.907663822 C18.1261281,0.907663822 23.0923362,5.87387189 23.0923362,12 C23.0923362,18.1261281 18.1261281,23.0923362 12,23.0923362 C5.87387189,23.0923362 0.907663822,18.1261281 0.907663822,12 C0.907663822,5.87387189 5.87387189,0.907663822 12,0.907663822 Z M18.5321964,8.10927145 C18.1807246,7.75779959 17.6108761,7.75779959 17.2594042,8.10927145 L17.2594042,8.10927145 L10.7176638,14.6496638 L7.54046717,11.4717444 L7.44830245,11.3911987 C7.09553707,11.1227133 6.58985751,11.1495618 6.26767497,11.4717444 C5.91620311,11.8232162 5.91620311,12.3930647 6.26767497,12.7445366 L6.26767497,12.7445366 L10.0823031,16.5591648 L10.1744679,16.6397104 C10.5272332,16.9081958 11.0329128,16.8813473 11.3550953,16.5591648 L11.3550953,16.5591648 L18.5321964,9.38206366 L18.6127421,9.28989893 C18.8812275,8.93713356 18.854379,8.431454 18.5321964,8.10927145 Z" fill="#00B42A" mask="url(#ctk42ku01__b4wnu46smb)"/>
  </g>
</svg>
