<?xml version="1.0" encoding="UTF-8"?>
<svg xmlns="http://www.w3.org/2000/svg" xmlns:xlink="http://www.w3.org/1999/xlink" width="20px" height="19px" viewBox="0 0 20 19" version="1.1">
  <title>1. 通用/2. 图标/2. 基础类/电话</title>
  <g id="🌟会员信息" stroke="none" stroke-width="1" fill="none" fill-rule="evenodd">
    <g id="会员列表" transform="translate(-423.000000, -306.000000)">
      <g id="成员信息" transform="translate(324.000000, 265.000000)">
        <g id="1.-通用/2.-图标/2.-基础类/电话" transform="translate(99.964645, 41.000000)">
          <path d="M8.11204283,7.32676389 L7.81349656,7.32676389 C4.03029188,7.36113312 1.00557281,8.93170221 0.886097333,10.6459434 L0.882430797,10.7510646 L0.882105339,12.087 L4.41910534,10.749 L4.79602643,9.55866851 C4.90794108,9.20479156 5.13840057,8.90750394 5.44883444,8.71282122 L5.56892061,8.64471469 C6.16918525,8.33781483 6.94656555,8.14560573 7.91507394,8.1381225 C8.87809371,8.14560115 9.65596914,8.33789333 10.2567808,8.64522689 C10.5856775,8.81322245 10.8398642,9.08867895 10.9808739,9.42587363 L11.0283722,9.55512631 L11.3963553,10.7085 L15.0436053,12.087 L15.0441534,10.7510646 C15.0441534,9.03142514 12.095435,7.42744415 8.34278329,7.33078651 L8.11204283,7.32676389 Z M5.86867217,9.89786773 L5.47510534,11.13975 L5.48027217,11.1219798 C5.42131952,11.3826383 5.25013356,11.6009905 5.01534162,11.7209752 L4.92440809,11.761249 L0.969200169,13.2576694 C0.867248999,13.2965079 0.759892809,13.3165329 0.651143121,13.3165329 C0.205317904,13.3165329 -0.190074378,12.981022 -0.237756909,12.5163886 L-0.242569203,12.4218015 L-0.242569203,10.7510646 C-0.242569203,8.23090859 3.27494372,6.31259647 7.56904399,6.20584646 L7.80838667,6.20178734 L8.11717846,6.20178734 L8.11660534,6.74625 L8.1223141,6.20178734 C12.4405791,6.24123823 16.036229,8.11410912 16.1655524,10.6116759 L16.1691534,10.7510646 L16.1691534,12.4218015 C16.1691534,12.9347085 15.7510616,13.3165329 15.2756449,13.3165329 C15.2038327,13.3165329 15.1327191,13.3078056 15.0627282,13.2905659 L14.958637,13.2583488 L10.8930902,11.7206497 C10.642463,11.6263592 10.4493617,11.4260366 10.3654381,11.1855096 L10.3443618,11.1113287 L9.95657292,9.89699053 C9.92140691,9.78660834 9.84753835,9.69945293 9.7447439,9.64694694 C9.29890856,9.41888861 8.69337889,9.26920061 7.91509141,9.26308844 C7.13127865,9.26919974 6.52615055,9.41881908 6.08066675,9.64658329 C5.99841194,9.68855869 5.93461079,9.75297879 5.89436253,9.83404118 L5.86867217,9.89786773 Z" id="电话" fill="#8C8C8C" transform="translate(7.963292, 9.759160) rotate(-128.000000) translate(-7.963292, -9.759160) "></path>
          <rect id="矩形" x="0.0353553391" y="0" width="18" height="18"></rect>
        </g>
      </g>
    </g>
  </g>
</svg>
