<svg xmlns="http://www.w3.org/2000/svg" xmlns:xlink="http://www.w3.org/1999/xlink" viewBox="0 0 24 24" class="design-iconfont">
  <defs>
    <path id="k25exzecz__f406uhm8sa" d="M0 0H24V24H0z"/>
  </defs>
  <g fill="none" fill-rule="evenodd">
    <mask id="k25exzecz__8hhl402zvb" fill="#fff">
      <use xlink:href="#k25exzecz__f406uhm8sa"/>
    </mask>
    <path d="M14.6604625,3.28191788 L13.8351047,3.28191788 C13.1603969,3.28191788 12.5213015,3.58470147 12.0939571,4.10681963 L8.25,8.8032654 L8.25,19.8768786 L18.6266936,19.8768786 C19.7608639,19.8768786 20.7177292,19.0327279 20.859137,17.9074075 L21.7457708,10.8515929 C21.7574638,10.7585405 21.7633274,10.6648481 21.7633274,10.571064 L21.7581366,10.4170152 C21.6789724,9.24622558 20.7041914,8.32106398 19.5133274,8.32106398 L15.52,8.321 L16.4083744,5.72806907 C16.4743564,5.53539684 16.5080285,5.33314101 16.5080285,5.12948392 C16.5080285,4.10910138 15.680845,3.28191788 14.6604625,3.28191788 Z M7.21153161,19.8768786 L7.21153161,8.32106398 L4.2397691,8.32106398 C2.99712841,8.32106398 1.9897691,9.3284233 1.9897691,10.571064 L1.9897691,17.6268786 C1.9897691,18.8695193 2.99712841,19.8768786 4.2397691,19.8768786 L7.21153161,19.8768786 Z" fill="#FFA21A" mask="url(#k25exzecz__8hhl402zvb)"/>
  </g>
</svg>
