<?xml version="1.0" encoding="UTF-8"?>
<svg width="24px" height="24px" viewBox="0 0 24 24" version="1.1" xmlns="http://www.w3.org/2000/svg" xmlns:xlink="http://www.w3.org/1999/xlink">
    <title>喇叭</title>
    <defs>
        <rect id="path-1" x="0" y="0" width="24" height="24"></rect>
    </defs>
    <g id="喇叭" stroke="none" stroke-width="1" fill="none" fill-rule="evenodd">
        <g id="Icon" transform="translate(12.000000, 12.000000) scale(1, -1) translate(-12.000000, -12.000000) translate(0.000000, -0.000000)">
            <mask id="mask-2" fill="white">
                <use xlink:href="#path-1"></use>
            </mask>
            <g id="Clip-2"></g>
            <path d="M11.9549561,3.51459694 L7.8008525,6.49762217 C7.67335756,6.58917517 7.52035163,6.6384205 7.36339014,6.6384205 L5.09903925,6.6384205 C3.85639856,6.6384205 2.84903925,7.64577981 2.84903925,8.8884205 L2.84903925,15.1115795 C2.84903925,16.3542202 3.85639856,17.3615795 5.09903925,17.3615795 L7.36339014,17.3615795 C7.52035163,17.3615795 7.67335756,17.4108248 7.8008525,17.5023778 L11.9549561,20.4854031 C12.3374409,20.760062 12.7964587,20.907798 13.2673432,20.907798 C14.5099838,20.907798 15.5173432,19.9004387 15.5173432,18.657798 L15.5173432,5.34220197 C15.5173432,4.87131749 15.3696072,4.41229969 15.0949482,4.02981487 C14.3701368,3.02045649 12.9643144,2.78978557 11.9549561,3.51459694 Z M13.8765448,4.9047396 C13.9680978,5.03223454 14.0173432,5.18524048 14.0173432,5.34220197 L14.0173432,18.657798 C14.0173432,19.0720116 13.6815567,19.407798 13.2673432,19.407798 C13.1103817,19.407798 12.9573757,19.3585527 12.8298808,19.2669997 L8.67577723,16.2839745 C8.29329242,16.0093155 7.83427461,15.8615795 7.36339014,15.8615795 L5.09903925,15.8615795 C4.68482568,15.8615795 4.34903925,15.5257931 4.34903925,15.1115795 L4.34903925,8.8884205 C4.34903925,8.47420694 4.68482568,8.1384205 5.09903925,8.1384205 L7.36339014,8.1384205 C7.83427461,8.1384205 8.29329242,7.9906845 8.67577723,7.71602552 L12.8298808,4.73300029 C13.135747,4.51336048 13.5508319,4.55693893 13.8052945,4.81945946 L13.8765448,4.9047396 Z M20.2003784,12.75 C20.614592,12.75 20.9503784,12.4142136 20.9503784,12 C20.9503784,11.6203042 20.6682246,11.306509 20.302149,11.2568466 L20.2003784,11.25 L18.0987138,11.25 C17.6845003,11.25 17.3487138,11.5857864 17.3487138,12 C17.3487138,12.3796958 17.6308677,12.693491 17.9969433,12.7431534 L18.0987138,12.75 L20.2003784,12.75 Z M18.9821133,19.2949432 C19.3214172,19.5325264 19.7890765,19.4500654 20.0266596,19.1107615 C20.2444442,18.799733 20.1933028,18.3808502 19.9219164,18.1301968 L19.8424779,18.0662152 L18.1208951,16.8607499 C17.7815912,16.6231667 17.3139319,16.7056277 17.0763487,17.0449316 C16.8585642,17.3559601 16.9097056,17.7748429 17.1810919,18.0254963 L17.2605304,18.0894779 L18.9821133,19.2949432 Z M18.9821133,4.70505676 C19.3214172,4.46747362 19.7890765,4.54993458 20.0266596,4.88923847 C20.2444442,5.20026703 20.1933028,5.61914982 19.9219164,5.86980321 L19.8424779,5.93378483 L18.1208951,7.13925013 C17.7815912,7.37683327 17.3139319,7.29437231 17.0763487,6.95506842 C16.8585642,6.64403986 16.9097056,6.22515706 17.1810919,5.97450367 L17.2605304,5.91052206 L18.9821133,4.70505676 Z" id="Fill-1" fill="#262626" mask="url(#mask-2)"></path>
        </g>
    </g>
</svg>