<svg xmlns="http://www.w3.org/2000/svg" xmlns:xlink="http://www.w3.org/1999/xlink" viewBox="0 0 24 24" class="design-iconfont">
  <defs>
    <path id="yu46ape7a__0ed4mafona" d="M0 0H24V24H0z"/>
  </defs>
  <g fill="none" fill-rule="evenodd">
    <mask id="yu46ape7a__x507oaedpb" fill="#fff">
      <use xlink:href="#yu46ape7a__0ed4mafona"/>
    </mask>
    <path d="M12,0.907663822 C18.1261281,0.907663822 23.0923362,5.87387189 23.0923362,12 C23.0923362,18.1261281 18.1261281,23.0923362 12,23.0923362 C5.87387189,23.0923362 0.907663822,18.1261281 0.907663822,12 C0.907663822,5.87387189 5.87387189,0.907663822 12,0.907663822 Z M12,16.3078979 C11.5029437,16.3078979 11.1,16.7108416 11.1,17.2078979 C11.1,17.7049542 11.5029437,18.1078979 12,18.1078979 C12.4970563,18.1078979 12.9,17.7049542 12.9,17.2078979 C12.9,16.7108416 12.4970563,16.3078979 12,16.3078979 Z M12,5.6466671 C11.5029437,5.6466671 11.1,6.04961082 11.1,6.5466671 L11.1,6.5466671 L11.1,13.4639977 L11.1070123,13.5768918 C11.1625482,14.0206611 11.5411788,14.3639977 12,14.3639977 C12.4970563,14.3639977 12.9,13.961054 12.9,13.4639977 L12.9,13.4639977 L12.9,6.5466671 L12.8929877,6.43377301 C12.8374518,5.99000376 12.4588212,5.6466671 12,5.6466671 Z" fill="#FFA21A" mask="url(#yu46ape7a__x507oaedpb)"/>
  </g>
</svg>
