<svg xmlns="http://www.w3.org/2000/svg" xmlns:xlink="http://www.w3.org/1999/xlink" width="24px" height="24px" viewBox="0 0 24 24">
  <title>icon 11</title>
  <g id="icon" stroke="none" stroke-width="1" fill="none" fill-rule="evenodd">
    <g id="Icon">
      <g id="&#x5360;&#x4F4D;">
        <rect id="&#x77E9;&#x5F62;" x="0" y="0" width="24" height="24"></rect>
      </g>
      <path d="M17.1041437,3.93177283 L17.2057269,4.07089162 L18.1982364,5.54451417 L18.7895923,5.54504268 C19.9644737,5.54504268 20.9265751,6.4667098 21.0080152,7.63435687 L21.0135993,7.79504268 L21.0135993,18.6724858 C21.0135993,19.9151265 20.0178774,20.9224858 18.7895923,20.9224858 L18.7895923,20.9224858 L5.22524337,20.9224858 C3.99695825,20.9224858 3.00123643,19.9151265 3.00123643,18.6724858 L3.00123643,18.6724858 L3.00123643,7.79504268 C3.00123643,6.55240199 3.99695825,5.54504268 5.22524337,5.54504268 L5.22524337,5.54504268 L6.68423643,5.54451417 L14.7003527,3.17035593 C15.5871028,2.90765945 16.5377649,3.21516511 17.1041437,3.93177283 Z M18.7895923,7.04504268 L5.22524337,7.04504268 C4.81581499,7.04504268 4.48390772,7.38082912 4.48390772,7.79504268 L4.48390772,7.79504268 L4.48390772,18.6724858 C4.48390772,19.0866994 4.81581499,19.4224858 5.22524337,19.4224858 L5.22524337,19.4224858 L18.7895923,19.4224858 C19.1990207,19.4224858 19.530928,19.0866994 19.530928,18.6724858 L19.530928,18.6724858 L19.530928,7.79504268 C19.530928,7.38082912 19.1990207,7.04504268 18.7895923,7.04504268 L18.7895923,7.04504268 Z M15.2317499,4.5854185 L15.1264192,4.60857266 L11.9652364,5.54451417 L16.3892364,5.54451417 L15.961544,4.90875122 C15.798913,4.66725168 15.5136961,4.54439476 15.2317499,4.5854185 Z" id="Fill-2" fill="#262626"></path>
      <path d="M13.6515417,8.28074004 C14.0254972,8.21496636 14.3834252,8.43849671 14.4957511,8.79043501 L14.5201236,8.88948096 L15.4868677,14.3858936 C15.5709885,14.8641612 15.1878356,15.2848066 14.7197504,15.2654885 L14.6182858,15.2544755 L9.12187321,14.2877314 C8.71392178,14.2159783 8.44137918,13.8271009 8.51313228,13.4191495 C8.57890596,13.045194 8.9111521,12.7850196 9.28029617,12.7995222 L9.38171417,12.8104086 L13.824,13.592 L13.0428008,9.14932192 C12.9770271,8.77536645 13.2005575,8.41743849 13.5524958,8.30511259 L13.6515417,8.28074004 Z" id="Fill-1" fill="#FFA21A" transform="translate(12.000095, 11.767703) rotate(45.000000) translate(-12.000095, -11.767703)"></path>
    </g>
  </g>
</svg>