<svg xmlns="http://www.w3.org/2000/svg" xmlns:xlink="http://www.w3.org/1999/xlink" width="24px" height="24px" viewBox="0 0 24 24">
  <title>icon 20</title>
  <g id="icon" stroke="none" stroke-width="1" fill="none" fill-rule="evenodd">
    <g id="Icon" transform="translate(0.000000, -0.000000)">
      <g id="&#x5360;&#x4F4D;">
        <rect id="&#x77E9;&#x5F62;" x="0" y="0" width="24" height="24"></rect>
      </g>
      <polygon id="Fill-2" fill="#FFA21A" points="15.6540539 4.08845917 16.3879808 5.39664547 8.26681295 9.95283368 7.53288611 8.64464738"></polygon>
      <path d="M10.875,2.35047766 C11.5711524,1.94855387 12.4288476,1.94855387 13.125,2.35047766 L13.125,2.35047766 L19.7844402,6.19530723 C20.4805926,6.59723101 20.9094402,7.34001681 20.9094402,8.14386438 L20.9094402,8.14386438 L20.9094402,15.8335235 C20.9094402,16.6373711 20.4805926,17.3801569 19.7844402,17.7820807 L19.7844402,17.7820807 L13.125,21.6269103 C12.4288476,22.028834 11.5711524,22.028834 10.875,21.6269103 L10.875,21.6269103 L4.21555984,17.7820807 C3.51940741,17.3801569 3.09055984,16.6373711 3.09055984,15.8335235 L3.09055984,15.8335235 L3.09055984,8.14386438 C3.09055984,7.34001681 3.51940741,6.59723101 4.21555984,6.19530723 L4.21555984,6.19530723 Z M4.58955984,8.74703481 L4.59055984,15.8335235 C4.59055984,16.1014727 4.73350903,16.349068 4.96555984,16.4830426 L4.96555984,16.4830426 L11.2495598,20.1110348 L11.2499286,11.8860696 C11.2249616,11.8777488 11.2001027,11.868977 11.1753639,11.859754 L10.9975581,11.7846334 L4.58955984,8.74703481 Z M19.4085598,8.33803481 L13.0177816,11.7378922 C12.9308568,11.7841279 12.8416146,11.8242973 12.7506571,11.8583863 L12.7495598,20.1110348 L19.0344402,16.4830426 C19.2333409,16.3682072 19.3667791,16.1698954 19.4008452,15.9468408 L19.4094402,15.8335235 L19.4085598,8.33803481 Z M12.375,3.64951576 C12.1429492,3.51554116 11.8570508,3.51554116 11.625,3.64951576 L11.625,3.64951576 L5.18155984,7.36803481 L11.6399653,10.4291582 C11.818555,10.5137981 12.0217361,10.5238925 12.2056719,10.4604556 L12.3133732,10.4135778 L18.4425598,7.15303481 Z" id="Fill-1" fill="#262626"></path>
    </g>
  </g>
</svg>