<svg xmlns="http://www.w3.org/2000/svg" xmlns:xlink="http://www.w3.org/1999/xlink" width="24px" height="24px" viewBox="0 0 24 24">
  <title>icon 19</title>
  <g id="icon" stroke="none" stroke-width="1" fill="none" fill-rule="evenodd">
    <g id="Icon" transform="translate(0.000000, -0.000000)">
      <g id="&#x5360;&#x4F4D;">
        <rect id="&#x77E9;&#x5F62;" x="0" y="0" width="24" height="24"></rect>
      </g>
      <path d="M12.7580541,8.30025982 L12.7580182,9.92925982 L17.4807165,9.92975849 C18.6715805,9.92975849 19.6463614,10.8549201 19.7255257,12.0257097 L19.7307165,12.1797585 L19.7300182,13.8662598 L20.2089818,13.8663243 C21.1271552,13.8663243 21.8801741,14.5734345 21.9531806,15.472797 L21.9589818,15.6163243 L21.9589818,18.0728548 C21.9589818,19.0393531 21.1754801,19.8228548 20.2089818,19.8228548 L20.2089818,19.8228548 L17.7524512,19.8228548 C16.7859529,19.8228548 16.0024512,19.0393531 16.0024512,18.0728548 L16.0024512,18.0728548 L16.0024512,15.6163243 C16.0024512,14.6498259 16.7859529,13.8663243 17.7524512,13.8663243 L17.7524512,13.8663243 L18.2300182,13.8662598 L18.2307165,12.1797585 C18.2307165,11.8000627 17.9485626,11.4862675 17.5824871,11.4366051 L17.4807165,11.4297585 L12.7580182,11.4292598 L12.7580182,13.8662598 L13.2282653,13.8663243 C14.1464387,13.8663243 14.8994576,14.5734345 14.9724641,15.472797 L14.9782653,15.6163243 L14.9782653,18.0728548 C14.9782653,18.9910282 14.271155,19.7440471 13.3717925,19.8170536 L13.2282653,19.8228548 L10.7717347,19.8228548 C9.85356133,19.8228548 9.10054239,19.1157445 9.02753593,18.216382 L9.02173473,18.0728548 L9.02173473,15.6163243 C9.02173473,14.6981509 9.728845,13.9451319 10.6282075,13.8721255 L10.7717347,13.8663243 L11.2580182,13.8662598 L11.2580182,11.4292598 L6.51928348,11.4297585 C6.13958771,11.4297585 5.82579252,11.7119124 5.77613009,12.0779879 L5.76928348,12.1797585 L5.76901821,13.8662598 L6.24754875,13.8663243 C7.16572215,13.8663243 7.91874109,14.5734345 7.99174755,15.472797 L7.99754875,15.6163243 L7.99754875,18.0728548 C7.99754875,18.9910282 7.29043848,19.7440471 6.39107596,19.8170536 L6.24754875,19.8228548 L3.79101821,19.8228548 C2.87284481,19.8228548 2.11982587,19.1157445 2.04681941,18.216382 L2.04101821,18.0728548 L2.04101821,15.6163243 C2.04101821,14.6981509 2.74812848,13.9451319 3.647491,13.8721255 L3.79101821,13.8663243 L4.26901821,13.8662598 L4.26928348,12.1797585 C4.26928348,10.9888945 5.19444507,10.0141136 6.36523467,9.9349493 L6.51928348,9.92975849 L11.2580182,9.92925982 L11.2580541,8.30025982 L12.7580541,8.30025982 Z M6.24754875,15.3663243 L3.79101821,15.3663243 C3.67267147,15.3663243 3.57353138,15.4485577 3.54762088,15.5590015 L3.54101821,15.6163243 L3.54101821,18.0728548 C3.54101821,18.1912015 3.62325162,18.2903416 3.7336955,18.3162521 L3.79101821,18.3228548 L6.24754875,18.3228548 C6.36589548,18.3228548 6.46503557,18.2406214 6.49094607,18.1301775 L6.49754875,18.0728548 L6.49754875,15.6163243 C6.49754875,15.4782531 6.38561994,15.3663243 6.24754875,15.3663243 Z M13.2282653,15.3663243 L10.7717347,15.3663243 C10.653388,15.3663243 10.5542479,15.4485577 10.5283374,15.5590015 L10.5217347,15.6163243 L10.5217347,18.0728548 C10.5217347,18.1912015 10.6039681,18.2903416 10.714412,18.3162521 L10.7717347,18.3228548 L13.2282653,18.3228548 C13.346612,18.3228548 13.4457521,18.2406214 13.4716626,18.1301775 L13.4782653,18.0728548 L13.4782653,15.6163243 C13.4782653,15.4782531 13.3663365,15.3663243 13.2282653,15.3663243 Z M20.2089818,15.3663243 L17.7524512,15.3663243 C17.6143801,15.3663243 17.5024512,15.4782531 17.5024512,15.6163243 L17.5024512,15.6163243 L17.5024512,18.0728548 C17.5024512,18.210926 17.6143801,18.3228548 17.7524512,18.3228548 L17.7524512,18.3228548 L20.2089818,18.3228548 C20.347053,18.3228548 20.4589818,18.210926 20.4589818,18.0728548 L20.4589818,18.0728548 L20.4589818,15.6163243 C20.4589818,15.4782531 20.347053,15.3663243 20.2089818,15.3663243 L20.2089818,15.3663243 Z" id="Fill-2" fill="#262626"></path>
      <path d="M14.2297308,3.09372927 L9.77026923,3.09372927 C8.80377092,3.09372927 8.02026923,3.87723096 8.02026923,4.84372927 L8.02026923,7.30025982 C8.02026923,8.26675813 8.80377092,9.05025982 9.77026923,9.05025982 L14.2297308,9.05025982 C15.1962291,9.05025982 15.9797308,8.26675813 15.9797308,7.30025982 L15.9797308,4.84372927 C15.9797308,3.87723096 15.1962291,3.09372927 14.2297308,3.09372927 Z M9.77026923,4.59372927 L14.2297308,4.59372927 C14.367802,4.59372927 14.4797308,4.70565808 14.4797308,4.84372927 L14.4797308,7.30025982 C14.4797308,7.438331 14.367802,7.55025982 14.2297308,7.55025982 L9.77026923,7.55025982 C9.63219804,7.55025982 9.52026923,7.438331 9.52026923,7.30025982 L9.52026923,4.84372927 C9.52026923,4.70565808 9.63219804,4.59372927 9.77026923,4.59372927 Z" id="Fill-1" fill="#FFA21A"></path>
    </g>
  </g>
</svg>