<svg xmlns="http://www.w3.org/2000/svg" viewBox="0 0 18 18" class="design-iconfont">
  <g stroke="#FBA21F" stroke-width="1.2" fill="none" fill-rule="evenodd">
    <path stroke-linecap="round" stroke-linejoin="round" d="M2.60560226 15.4755211L15.3454742 15.4755211"/>
    <path d="M4.6178894,2.34557152 L8.94324493,2.34557152 C9.49552968,2.34557152 9.94324493,2.79328677 9.94324493,3.34557152 L9.94324493,15.384613 L9.94324493,15.384613 L3.6178894,15.384613 L3.6178894,3.34557152 C3.6178894,2.79328677 4.06560465,2.34557152 4.6178894,2.34557152 Z"/>
    <path d="M10.9364738,6.48082352 L13.4443855,6.48082352 C13.9966703,6.48082352 14.4443855,6.92853877 14.4443855,7.48082352 L14.4443855,15.384613 L14.4443855,15.384613 L9.93647385,15.384613 L9.93647385,7.48082352 C9.93647385,6.92853877 10.3841891,6.48082352 10.9364738,6.48082352 Z"/>
    <path stroke-linecap="round" stroke-linejoin="round" d="M5.73559189 6.22346115L7.76626587 6.22346115"/>
    <path stroke-linecap="round" stroke-linejoin="round" d="M5.73559189 9.29361916L7.76626587 9.29361916"/>
    <path stroke-linecap="round" stroke-linejoin="round" d="M5.73559189 12.3637772L7.76626587 12.3637772"/>
  </g>
</svg>
