<svg xmlns="http://www.w3.org/2000/svg" xmlns:xlink="http://www.w3.org/1999/xlink" width="24px" height="24px" viewBox="0 0 24 24">
  <title>icon</title>
  <g id="icon" stroke="none" stroke-width="1" fill="none" fill-rule="evenodd">
    <g id="Icon" transform="translate(0.000000, -0.000000)">
      <g id="&#x5360;&#x4F4D;">
        <rect id="&#x77E9;&#x5F62;" x="0" y="0" width="24" height="24"></rect>
      </g>
      <path d="M12,2.61004155 C17.5111037,2.61004155 21.9787359,7.0776738 21.9787359,12.5887775 C21.9787359,16.1647423 20.0814346,19.4120507 17.0564464,21.1932456 C16.6995139,21.4034171 16.2397853,21.2844438 16.0296137,20.9275113 C15.8194422,20.5705788 15.9384155,20.1108502 16.295348,19.9006786 C18.8670691,18.3863797 20.4787359,15.6279463 20.4787359,12.5887775 C20.4787359,7.90610092 16.6826765,4.11004155 12,4.11004155 C7.31732346,4.11004155 3.52126409,7.90610092 3.52126409,12.5887775 C3.52126409,15.6888896 5.19866485,18.4944547 7.85293402,19.9859862 C8.2140393,20.1889045 8.34227515,20.646136 8.13935681,21.0072413 C7.93643847,21.3683466 7.47920699,21.4965824 7.11810171,21.2936641 C3.99584596,19.5391537 2.02126409,16.2365333 2.02126409,12.5887775 C2.02126409,7.0776738 6.48889633,2.61004155 12,2.61004155 Z" id="Fill-2" fill="#262626"></path>
      <path d="M16.9832313,7.47284757 C17.2494979,7.73911413 17.2737039,8.15577781 17.0558495,8.44938931 L16.9832313,8.53350774 L15.2370626,10.2794451 C15.7023062,10.9304261 15.9760696,11.7276313 15.9760696,12.5887775 C15.9760696,14.7847001 14.1959226,16.5648471 12,16.5648471 C9.80407738,16.5648471 8.02393037,14.7847001 8.02393037,12.5887775 C8.02393037,10.3928548 9.80407738,8.61270784 12,8.61270784 C12.7922397,8.61270784 13.5303618,8.8444126 14.1502969,9.24375265 L15.9225711,7.47284757 C16.2154644,7.17995435 16.6903381,7.17995435 16.9832313,7.47284757 Z M12,10.1127078 C10.6325045,10.1127078 9.52393037,11.221282 9.52393037,12.5887775 C9.52393037,13.956273 10.6325045,15.0648471 12,15.0648471 C13.3674955,15.0648471 14.4760696,13.956273 14.4760696,12.5887775 C14.4760696,11.221282 13.3674955,10.1127078 12,10.1127078 Z" id="Fill-1" fill="#FFA21A"></path>
    </g>
  </g>
</svg>