<svg xmlns="http://www.w3.org/2000/svg" viewBox="0 0 24 24" class="design-iconfont" width="128" height="128">
  <g fill="none" fill-rule="evenodd">
    <path d="M20.466809,9.85068011 L20.466809,11.3506801 L16.1072028,11.3506801 C15.0672041,11.3506801 14.2241186,12.1937656 14.2241186,13.2337643 C14.2241186,14.2242392 14.988822,15.036108 15.9600409,15.1111829 L16.1072028,15.1168484 L20.5048008,15.1168484 L20.5048008,16.6168484 L16.1072028,16.6168484 C14.238777,16.6168484 12.7241186,15.10219 12.7241186,13.2337643 C12.7241186,11.4276193 14.1394827,9.95205041 15.9215824,9.85568598 L16.1072028,9.85068011 L20.466809,9.85068011 Z M15.9955862,12.4837643 C16.4097998,12.4837643 16.7455862,12.8195507 16.7455862,13.2337643 C16.7455862,13.6479778 16.4097998,13.9837643 15.9955862,13.9837643 C15.5813726,13.9837643 15.2455862,13.6479778 15.2455862,13.2337643 C15.2455862,12.8195507 15.5813726,12.4837643 15.9955862,12.4837643 Z" fill="#FFA21A"></path>
    <path d="M17.1041437,3.93177283 L17.2057269,4.07089162 L18.1982364,5.54451417 L18.7895923,5.54504268 C19.9644737,5.54504268 20.9265751,6.4667098 21.0080152,7.63435687 L21.0135993,7.79504268 L21.0135993,18.6724858 C21.0135993,19.9151265 20.0178774,20.9224858 18.7895923,20.9224858 L18.7895923,20.9224858 L5.22524337,20.9224858 C3.99695825,20.9224858 3.00123643,19.9151265 3.00123643,18.6724858 L3.00123643,18.6724858 L3.00123643,7.79504268 C3.00123643,6.55240199 3.99695825,5.54504268 5.22524337,5.54504268 L5.22524337,5.54504268 L6.68423643,5.54451417 L14.7003527,3.17035593 C15.5871028,2.90765945 16.5377649,3.21516511 17.1041437,3.93177283 Z M18.7895923,7.04504268 L5.22524337,7.04504268 C4.81581499,7.04504268 4.48390772,7.38082912 4.48390772,7.79504268 L4.48390772,7.79504268 L4.48390772,18.6724858 C4.48390772,19.0866994 4.81581499,19.4224858 5.22524337,19.4224858 L5.22524337,19.4224858 L18.7895923,19.4224858 C19.1990207,19.4224858 19.530928,19.0866994 19.530928,18.6724858 L19.530928,18.6724858 L19.530928,7.79504268 C19.530928,7.38082912 19.1990207,7.04504268 18.7895923,7.04504268 L18.7895923,7.04504268 Z M15.2317499,4.5854185 L15.1264192,4.60857266 L11.9652364,5.54451417 L16.3892364,5.54451417 L15.961544,4.90875122 C15.798913,4.66725168 15.5136961,4.54439476 15.2317499,4.5854185 Z" fill="#262626"></path>
  </g>
</svg>