<svg xmlns="http://www.w3.org/2000/svg" viewBox="0 0 19 19" class="design-iconfont">
  <path d="M7.7039837,2.30489022 C8.47267481,1.65519954 9.59803586,1.65519954 10.366727,2.30489022 L10.366727,2.30489022 L12.707182,4.28262221 L14.043318,4.28319168 C15.1306286,4.28319168 16.0214258,5.12456565 16.1001609,6.19176489 L16.105818,6.34569168 L16.105818,13.9669876 C16.105818,15.1060749 15.1824053,16.0294876 14.043318,16.0294876 L14.043318,16.0294876 L3.95668198,16.0294876 C2.81759468,16.0294876 1.89418198,15.1060749 1.89418198,13.9669876 L1.89418198,13.9669876 L1.89418198,6.34569168 C1.89418198,5.20660438 2.81759468,4.28319168 3.95668198,4.28319168 L3.95668198,4.28319168 L5.36318198,4.28262221 Z M14.043318,5.40819168 L3.95668198,5.40819168 C3.43891502,5.40819168 3.01918198,5.82792473 3.01918198,6.34569168 L3.01918198,6.34569168 L3.01918198,13.9669876 C3.01918198,14.4847546 3.43891502,14.9044876 3.95668198,14.9044876 L3.95668198,14.9044876 L14.043318,14.9044876 C14.561085,14.9044876 14.980818,14.4847546 14.980818,13.9669876 L14.980818,13.9669876 L14.980818,6.34569168 C14.980818,5.82792473 14.561085,5.40819168 14.043318,5.40819168 L14.043318,5.40819168 Z M9.55996227,11.1464167 C9.87062244,11.1464167 10.1224623,11.3982565 10.1224623,11.7089167 C10.1224623,11.9936885 9.91084686,12.2290349 9.63629019,12.2662817 L9.55996227,12.2714167 L5.25,12.2714167 C4.93933983,12.2714167 4.6875,12.0195768 4.6875,11.7089167 C4.6875,11.4241448 4.89911541,11.1887984 5.17367208,11.1515516 L5.25,11.1464167 L9.55996227,11.1464167 Z M12.541862,8.04126263 C12.8525221,8.04126263 13.104362,8.29310245 13.104362,8.60376263 C13.104362,8.88853445 12.8927466,9.12388085 12.6181899,9.16112766 L12.541862,9.16626263 L5.25,9.16626263 C4.93933983,9.16626263 4.6875,8.9144228 4.6875,8.60376263 C4.6875,8.3189908 4.89911541,8.08364441 5.17367208,8.04639759 L5.25,8.04126263 L12.541862,8.04126263 Z M9.64052427,3.16410767 C9.29111921,2.86879372 8.77959146,2.86879372 8.43018641,3.16410767 L8.43018641,3.16410767 L7.10625,4.2825 L10.96425,4.2825 Z" fill="#FFA21A" fill-rule="evenodd"/>
</svg>
