<svg xmlns="http://www.w3.org/2000/svg" xmlns:xlink="http://www.w3.org/1999/xlink" width="24px" height="24px" viewBox="0 0 24 24">
  <title>icon 2</title>
  <g id="icon" stroke="none" stroke-width="1" fill="none" fill-rule="evenodd">
    <g id="Icon" transform="translate(0.000000, -0.000000)">
      <g id="&#x5360;&#x4F4D;">
        <rect id="&#x77E9;&#x5F62;" x="0" y="0" width="24" height="24"></rect>
      </g>
      <path d="M14.3986928,7.16184156 C13.021508,7.16184156 11.9050791,8.27827047 11.9050791,9.65545532 C11.9050791,11.0326402 13.021508,12.1490691 14.3986928,12.1490691 C15.7758777,12.1490691 16.8923066,11.0326402 16.8923066,9.65545532 C16.8923066,8.27827047 15.7758777,7.16184156 14.3986928,7.16184156 Z M14.3986928,8.66184156 C14.9474505,8.66184156 15.3923066,9.1066976 15.3923066,9.65545532 C15.3923066,10.204213 14.9474505,10.6490691 14.3986928,10.6490691 C13.8499351,10.6490691 13.4050791,10.204213 13.4050791,9.65545532 C13.4050791,9.1066976 13.8499351,8.66184156 14.3986928,8.66184156 Z" id="Fill-2" fill="#FFA21A"></path>
      <path d="M18.2672596,4.10560775 L13.4350122,3.30917082 C12.7194552,3.1912348 11.9909215,3.42542766 11.47812,3.93822916 L3.00346808,12.4128811 C2.12478843,13.2915607 2.12478843,14.7161819 3.00346808,15.5948616 L8.6321524,21.2235459 C9.51083205,22.1022255 10.9354533,22.1022255 11.8141329,21.2235459 L20.2887848,12.748894 C20.8015863,12.2360925 21.0357792,11.5075588 20.9178432,10.7920018 L20.1214062,5.95975441 C19.9645768,5.00821837 19.2187956,4.26243714 18.2672596,4.10560775 Z M18.6413738,6.20368903 L19.4378108,11.0359364 C19.4771228,11.2744554 19.3990585,11.5173 19.2281246,11.6882338 L10.7534727,20.1628857 C10.4605795,20.4557789 9.98570579,20.4557789 9.69281257,20.1628857 L4.06412825,14.5342014 C3.77123504,14.2413082 3.77123504,13.7664345 4.06412825,13.4735412 L12.5387802,4.99888933 C12.709714,4.8279555 12.9525586,4.74989121 13.1910776,4.78920322 L18.0233249,5.58564015 C18.3405036,5.63791661 18.5890974,5.88651035 18.6413738,6.20368903 Z" id="Fill-1" fill="#262626"></path>
    </g>
  </g>
</svg>