<svg xmlns="http://www.w3.org/2000/svg" viewBox="0 0 18 18" class="design-iconfont">
  <g stroke="#3C3A35" stroke-width="1.2" fill="none" fill-rule="evenodd">
    <path d="M10,1.94525207 L14.6095909,4.60660063 C15.2283931,4.96386622 15.6095909,5.62412026 15.6095909,6.33865144 L15.6095909,11.6613486 C15.6095909,12.3758797 15.2283931,13.0361338 14.6095909,13.3933994 L10,16.0547479 C9.38119785,16.4120135 8.61880215,16.4120135 8,16.0547479 L3.39040908,13.3933994 C2.77160692,13.0361338 2.39040908,12.3758797 2.39040908,11.6613486 L2.39040908,6.33865144 C2.39040908,5.62412026 2.77160692,4.96386622 3.39040908,4.60660063 L8,1.94525207 C8.61880215,1.58798648 9.38119785,1.58798648 10,1.94525207 Z" stroke-linejoin="round"/>
    <path d="M15.46875,5.25 L9.98739755,8.42759562 C9.37544759,8.78234922 8.62162628,8.78747687 8.00490696,8.44108092 L2.32354355,5.25 L2.32354355,5.25"/>
    <path d="M9 8.825L9 16.125"/>
  </g>
</svg>
