<svg xmlns="http://www.w3.org/2000/svg" xmlns:xlink="http://www.w3.org/1999/xlink" width="24px" height="24px" viewBox="0 0 24 24">
  <title>icon 9</title>
  <g id="icon" stroke="none" stroke-width="1" fill="none" fill-rule="evenodd">
    <g id="Icon" transform="translate(0.000000, -0.000000)">
      <g id="&#x5360;&#x4F4D;">
        <rect id="&#x77E9;&#x5F62;" x="0" y="0" width="24" height="24"></rect>
      </g>
      <path d="M12,2.92935513 C14.0050676,2.92935513 15.6552728,4.44485116 15.7596512,6.3675041 L15.7648921,6.56108554 L15.7645115,6.83635513 L17.5166171,6.83703648 C18.5411233,6.83703648 19.4391752,7.66745644 19.6521187,8.71672821 L19.6788521,8.87568392 L20.9880381,18.7438766 C21.1500165,19.9791668 20.1717756,20.97867 18.886694,20.97867 L18.886694,20.97867 L5.11330599,20.97867 C3.82822442,20.97867 2.8499835,19.9791668 3.01211047,18.74275 L3.01211047,18.74275 L4.32125084,8.87491103 C4.47133576,7.75257448 5.40765137,6.83703648 6.48338294,6.83703648 L6.48338294,6.83703648 L8.23451147,6.83635513 L8.23510787,6.56108554 C8.23510787,4.54756811 9.92809676,2.92935513 12,2.92935513 Z M17.5166171,8.33703648 L15.7645115,8.33635513 L15.7648921,11.149529 C15.7648921,11.5637425 15.4291057,11.899529 15.0148921,11.899529 C14.6351964,11.899529 14.3214012,11.6173751 14.2717387,11.2512995 L14.2648921,11.149529 L14.2645115,8.33635513 L9.73451147,8.33635513 L9.73510787,11.149529 C9.73510787,11.5637425 9.39932143,11.899529 8.98510787,11.899529 C8.6054121,11.899529 8.29161691,11.6173751 8.24195448,11.2512995 L8.23510787,11.149529 L8.23451147,8.33635513 L6.48338294,8.33703648 C6.2229943,8.33703648 5.92319655,8.60703507 5.82972508,8.96358002 L5.80811916,9.07295645 L4.49923034,18.9388959 C4.46028534,19.2359008 4.69789008,19.47867 5.11330599,19.47867 L5.11330599,19.47867 L18.886694,19.47867 C19.3021099,19.47867 19.5397147,19.2359008 19.5009183,18.9400225 L19.5009183,18.9400225 L18.1919838,9.07372934 C18.1371571,8.66373478 17.8030446,8.33703648 17.5166171,8.33703648 L17.5166171,8.33703648 Z M12,4.42935513 C10.7964521,4.42935513 9.82311721,5.3096828 9.74075453,6.40977309 L9.73510787,6.56108554 L9.73451147,6.83635513 L14.2645115,6.83635513 L14.2648921,6.56108554 C14.2648921,5.39153145 13.2582547,4.42935513 12,4.42935513 Z" id="Fill-1" fill="#262626"></path>
    </g>
  </g>
</svg>