<svg xmlns="http://www.w3.org/2000/svg" viewBox="0 0 18 18" class="design-iconfont">
  <g fill="none" fill-rule="evenodd">
    <path d="M6.82670747,7.14756927 C6.82670747,5.90140909 7.87556219,4.90013433 9.13872075,4.97860633 C10.2209513,5.04574607 11.1018402,5.92663501 11.16898,7.00886555 C11.2182675,7.8028221 10.8410431,8.51217482 10.2444696,8.92952787 C9.47907655,9.46509344 9.00001703,10.3197474 9.00001703,11.2539601 L9.00001703,11.338952" stroke="#3C3A35" stroke-width="1.2" stroke-linecap="round" stroke-linejoin="round"/>
    <path fill="#3C3A35" d="M9 12.3421565A1 1 0 1 0 9 14.3421565A1 1 0 1 0 9 12.3421565Z"/>
    <path stroke="#3C3A35" stroke-width="1.2" d="M9 1.3566703799999997A7.64332962 7.64332962 0 1 0 9 16.64332962A7.64332962 7.64332962 0 1 0 9 1.3566703799999997Z"/>
  </g>
</svg>
