<svg xmlns="http://www.w3.org/2000/svg" xmlns:xlink="http://www.w3.org/1999/xlink" width="24px" height="24px" viewBox="0 0 24 24">
  <title>icon 10</title>
  <g id="icon" stroke="none" stroke-width="1" fill="none" fill-rule="evenodd">
    <g id="Icon">
      <g id="&#x5360;&#x4F4D;">
        <rect id="&#x77E9;&#x5F62;" x="0" y="0" width="24" height="24"></rect>
      </g>
      <path d="M15.4545365,3.06555174 C16.1509753,3.06555174 16.8081587,3.38805753 17.2342613,3.93893279 L17.2342613,3.93893279 L20.3974673,8.02839862 C20.7023349,8.42253845 20.8677426,8.90673006 20.8677426,9.40501757 L20.8677426,9.40501757 L20.8677426,18.7386959 C20.8677426,19.9813366 19.8603833,20.9886959 18.6177426,20.9886959 L18.6177426,20.9886959 L5.38225743,20.9886959 C4.13961675,20.9886959 3.13225743,19.9813366 3.13225743,18.7386959 L3.13225743,18.7386959 L3.13225743,9.40501757 C3.13225743,8.90673006 3.29766509,8.42253845 3.60253266,8.02839862 L3.60253266,8.02839862 L6.76573871,3.93893279 C7.1918413,3.38805753 7.8490247,3.06555174 8.54546348,3.06555174 L8.54546348,3.06555174 Z M19.3672574,9.64255174 L4.63125743,9.64255174 L4.63225743,18.7386959 C4.63225743,19.1183916 4.91441132,19.4321868 5.28048688,19.4818492 L5.38225743,19.4886959 L18.6177426,19.4886959 C19.0319561,19.4886959 19.3677426,19.1529094 19.3677426,18.7386959 L19.3677426,18.7386959 L19.3672574,9.64255174 Z M14.5861775,11.6797585 C15.000391,11.6797585 15.3361775,12.0155449 15.3361775,12.4297585 C15.3361775,12.8094543 15.0540236,13.1232494 14.687948,13.1729119 L14.5861775,13.1797585 L9.41382254,13.1797585 C8.99960897,13.1797585 8.66382254,12.843972 8.66382254,12.4297585 C8.66382254,12.0500627 8.94597642,11.7362675 9.31205198,11.6866051 L9.41382254,11.6797585 L14.5861775,11.6797585 Z M11.2492574,4.56455174 L8.54546348,4.56555174 C8.31331722,4.56555174 8.09425609,4.67305367 7.95222189,4.85667876 L7.95222189,4.85667876 L5.40925743,8.14255174 L11.2492574,8.14255174 L11.2492574,4.56455174 Z M15.4545365,4.56555174 L12.7492574,4.56455174 L12.7492574,8.14255174 L18.5892574,8.14255174 L16.0477781,4.85667876 C15.9294163,4.70365785 15.7575635,4.60350025 15.5692232,4.57436496 L15.4545365,4.56555174 Z" id="Fill-1" fill="#262626"></path>
    </g>
  </g>
</svg>