<?xml version="1.0" encoding="UTF-8"?>
<svg xmlns="http://www.w3.org/2000/svg" xmlns:xlink="http://www.w3.org/1999/xlink" width="18px" height="18px" viewBox="0 0 18 18" version="1.1">
  <title>1. å›¾æ ‡/1. ä¾§è¾¹å¯¼èˆª/æŠ¥è¡¨æ€»è§ˆ</title>
  <defs>
    <rect id="path-1" x="0" y="0" width="18" height="18"></rect>
  </defs>
  <g id="------å•†å“åˆ—è¡¨-ðŸŒŸðŸŒŸ" stroke="none" stroke-width="1" fill="none" fill-rule="evenodd">
    <g id="å•†å“ç®¡ç†---å•†å“åˆ—è¡¨" transform="translate(-24.000000, -624.000000)">
      <g id="ä¾§è¾¹å¯¼èˆª" transform="translate(0.000000, 48.000000)">
        <g id="2.-å¯¼èˆª/1.-ä¾§è¾¹å¯¼èˆª/4.-ä¸€çº§å¯¼èˆª/1.-é»˜è®¤/1.-å¸¸è§„" transform="translate(24.000000, 574.000000)">
          <g id="1.-å›¾æ ‡/1.-ä¾§è¾¹å¯¼èˆª/æŠ¥è¡¨æ€»è§ˆ" transform="translate(0.000000, 2.000000)">
            <g id="Icon">
              <mask id="mask-2" fill="white">
                <use xlink:href="#path-1"></use>
              </mask>
              <g id="Clip-2"></g>
              <path d="M11.5909024,2.29916381 C12.1132315,2.29916381 12.606119,2.54104314 12.925696,2.95419959 L15.2981005,6.02129896 C15.5267512,6.31690384 15.6508069,6.68004754 15.6508069,7.05376318 L15.6508069,14.0540219 C15.6508069,14.9860024 14.8952874,15.7415219 13.9633069,15.7415219 L4.03669308,15.7415219 C3.10471256,15.7415219 2.34919308,14.9860024 2.34919308,14.0540219 L2.34919308,7.05376318 C2.34919308,6.68004754 2.47324882,6.31690384 2.7018995,6.02129896 L5.07430403,2.95419959 C5.39388097,2.54104314 5.88676853,2.29916381 6.40909761,2.29916381 Z M14.5251931,7.23116381 L3.47419308,7.23116381 L3.47419308,14.0540219 C3.47419308,14.3336161 3.67818334,14.5655657 3.94545265,14.6091597 L4.03669308,14.6165219 L13.9633069,14.6165219 C14.2739671,14.6165219 14.5258069,14.3646821 14.5258069,14.0540219 L14.5251931,7.23116381 Z M10.9396331,8.75981886 C11.2502933,8.75981886 11.5021331,9.01165869 11.5021331,9.32231886 C11.5021331,9.60709069 11.2905177,9.84243709 11.015961,9.8796839 L10.9396331,9.88481886 L7.0603669,9.88481886 C6.74970673,9.88481886 6.4978669,9.63297904 6.4978669,9.32231886 C6.4978669,9.03754704 6.70948231,8.80220064 6.98403898,8.76495383 L7.0603669,8.75981886 L10.9396331,8.75981886 Z M8.43719308,3.42416381 L6.40909761,3.42416381 C6.23498792,3.42416381 6.07069207,3.50479025 5.96416642,3.64250907 L4.05719308,6.10616381 L8.43719308,6.10616381 L8.43719308,3.42416381 Z M11.5909024,3.42416381 L9.56219308,3.42416381 L9.56219308,6.10616381 L13.9411931,6.10616381 L12.0358336,3.64250907 C11.9506131,3.53233402 11.8284196,3.45869808 11.6938069,3.43365071 L11.5909024,3.42416381 Z" id="Fill-1" fill="#262626" mask="url(#mask-2)"></path>
            </g>
            <rect id="codesign_placeholder_name" x="0" y="0" width="18" height="18"></rect>
          </g>
        </g>
      </g>
    </g>
  </g>
</svg>
