<?xml version="1.0" encoding="UTF-8"?>
<svg xmlns="http://www.w3.org/2000/svg" xmlns:xlink="http://www.w3.org/1999/xlink" width="19px" height="19px" viewBox="0 0 19 19" version="1.1">
  <title>1. å›¾æ ‡/1. ä¾§è¾¹å¯¼èˆª/æŠ¥è¡¨æ€»è§ˆ</title>
  <g id="ðŸŒŸä¼šå‘˜ç®¡ç†" stroke="none" stroke-width="1" fill="none" fill-rule="evenodd">
    <g id="ä¼šå‘˜ç®¡ç†_ä¼šå‘˜åˆ†ç»„_åˆ†ç»„è¯¦æƒ…" transform="translate(-40.000000, -365.000000)">
      <g id="ä¾§è¾¹å¯¼èˆª" transform="translate(0.000000, 62.000000)">
        <g id="ä¾§è¾¹å¯¼èˆª/normal" transform="translate(0.000000, 288.000000)">
          <g id="1.-å›¾æ ‡/1.-ä¾§è¾¹å¯¼èˆª/æŠ¥è¡¨æ€»è§ˆ" transform="translate(40.000000, 15.000000)">
            <g id="ç¼–ç»„" transform="translate(1.877546, 2.016996)" fill="#3C3A35" fill-rule="nonzero">
              <path d="M6.46752472,0.197877711 L6.60027172,0.257803427 L11.666,2.717 L11.7405222,2.71747646 C13.1014528,2.71747646 14.2146156,3.77829586 14.2982303,5.11815412 L14.3032722,5.28022646 L14.3032722,11.5054974 C14.3032722,12.9208652 13.15589,14.0682474 11.7405222,14.0682474 L11.7405222,14.0682474 L2.56275,14.0682474 C1.14738226,14.0682474 0,12.9208652 0,11.5054974 L0,11.5054974 L0,5.28022646 C0,3.92751288 1.04804817,2.81958406 2.37643921,2.72414532 L3.29556937,1.22423722 C3.95894688,0.141519123 5.30923291,-0.286276738 6.46752472,0.197877711 Z M11.7405222,3.84247646 L2.56275,3.84247646 C1.7687026,3.84247646 1.125,4.48617906 1.125,5.28022646 L1.125,5.28022646 L1.125,11.5054974 C1.125,12.2995448 1.7687026,12.9432474 2.56275,12.9432474 L2.56275,12.9432474 L11.7405222,12.9432474 C12.5345696,12.9432474 13.1782722,12.2995448 13.1782722,11.5054974 L13.1782722,11.5054974 L13.1782722,5.28022646 C13.1782722,4.48617906 12.5345696,3.84247646 11.7405222,3.84247646 L11.7405222,3.84247646 Z M5.43935809,6.24437695 L5.48125834,6.30838232 L7.12245158,9.22517925 L8.76416416,6.30838232 C8.90379276,6.06019117 9.20361933,5.95883517 9.46117029,6.06099286 L9.53021118,6.09394243 C9.77840233,6.23357102 9.87975832,6.53339759 9.77760064,6.79094855 L9.74465107,6.85998945 L7.61295471,10.6491 C7.41055021,11.0088759 6.91111257,11.0300392 6.673763,10.7125898 L6.6324678,10.6491 L4.50077143,6.85998945 C4.34844933,6.58923546 4.44445734,6.24626453 4.71521132,6.09394243 C4.96340247,5.95431383 5.27227592,6.02335151 5.43935809,6.24437695 Z M4.32300097,1.7105406 L4.25483415,1.81197533 L3.699,2.717 L9.09,2.717 L6.1088331,1.26978815 C5.48034824,0.964584202 4.73001179,1.15684747 4.32300097,1.7105406 Z" id="å½¢çŠ¶ç»“åˆ"></path>
            </g>
            <rect id="çŸ©å½¢" x="0" y="0" width="18" height="18"></rect>
          </g>
        </g>
      </g>
    </g>
  </g>
</svg>
