<svg xmlns="http://www.w3.org/2000/svg" xmlns:xlink="http://www.w3.org/1999/xlink" width="24px" height="24px" viewBox="0 0 24 24">
  <title>icon 11</title>
  <g id="icon" stroke="none" stroke-width="1" fill="none" fill-rule="evenodd">
    <g id="Icon">
      <g id="&#x5360;&#x4F4D;">
        <rect id="&#x77E9;&#x5F62;" x="0" y="0" width="24" height="24"></rect>
      </g>
      <path d="M11.47812,3.93822916 C11.9909215,3.42542766 12.7194552,3.1912348 13.4350122,3.30917082 L13.4350122,3.30917082 L18.2672596,4.10560775 C19.2187956,4.26243714 19.9645768,5.00821837 20.1214062,5.95975441 L20.1214062,5.95975441 L20.9178432,10.7920018 C21.0357792,11.5075588 20.8015863,12.2360925 20.2887848,12.748894 L20.2887848,12.748894 L11.8141329,21.2235459 C10.9354533,22.1022255 9.51083205,22.1022255 8.6321524,21.2235459 L8.6321524,21.2235459 L3.00346808,15.5948616 C2.12478843,14.7161819 2.12478843,13.2915607 3.00346808,12.4128811 L3.00346808,12.4128811 Z M13.1910776,4.78920322 C12.9525586,4.74989121 12.709714,4.8279555 12.5387802,4.99888933 L12.5387802,4.99888933 L4.06412825,13.4735412 C3.77123504,13.7664345 3.77123504,14.2413082 4.06412825,14.5342014 L4.06412825,14.5342014 L9.69281257,20.1628857 C9.98570579,20.4557789 10.4605795,20.4557789 10.7534727,20.1628857 L10.7534727,20.1628857 L19.2281246,11.6882338 C19.3990585,11.5173 19.4771228,11.2744554 19.4378108,11.0359364 L19.4378108,11.0359364 L18.6413738,6.20368903 C18.5890974,5.88651035 18.3405036,5.63791661 18.0233249,5.58564015 L18.0233249,5.58564015 Z M14.3986928,7.16184156 C15.7758777,7.16184156 16.8923066,8.27827047 16.8923066,9.65545532 C16.8923066,11.0326402 15.7758777,12.1490691 14.3986928,12.1490691 C13.021508,12.1490691 11.9050791,11.0326402 11.9050791,9.65545532 C11.9050791,8.27827047 13.021508,7.16184156 14.3986928,7.16184156 Z M14.3986928,8.66184156 C13.8499351,8.66184156 13.4050791,9.1066976 13.4050791,9.65545532 C13.4050791,10.204213 13.8499351,10.6490691 14.3986928,10.6490691 C14.9474505,10.6490691 15.3923066,10.204213 15.3923066,9.65545532 C15.3923066,9.1066976 14.9474505,8.66184156 14.3986928,8.66184156 Z" id="Fill-1" fill="#262626"></path>
    </g>
  </g>
</svg>
