<svg xmlns="http://www.w3.org/2000/svg" xmlns:xlink="http://www.w3.org/1999/xlink" viewBox="0 0 18 18" class="design-iconfont">
  <defs>
    <path id="cpkr45w7l__jy1wrt55ya" d="M0 0H18V18H0z"/>
  </defs>
  <g fill="none" fill-rule="evenodd">
    <mask id="cpkr45w7l__c75ff4ay2b" fill="#fff">
      <use xlink:href="#cpkr45w7l__jy1wrt55ya"/>
    </mask>
    <path d="M13.1374628,5.12777736 L4.8625372,5.12777736 C4.05573853,5.12777736 3.35350182,5.81443086 3.24093813,6.65618327 L2.25908285,14.0570625 C2.13748762,14.9843751 2.87116832,15.7340025 3.83497949,15.7340025 L14.1650205,15.7340025 C15.1288317,15.7340025 15.8625124,14.9843751 15.7410286,14.0579075 L14.7591391,6.65676294 C14.6464982,5.81443086 13.9442615,5.12777736 13.1374628,5.12777736 Z M4.8625372,6.25277736 L13.1374628,6.25277736 C13.3522834,6.25277736 13.6028678,6.49780108 13.6439878,6.80529701 L14.6256887,14.2050169 C14.654786,14.4269256 14.4765824,14.6090025 14.1650205,14.6090025 L3.83497949,14.6090025 C3.52341756,14.6090025 3.345214,14.4269256 3.37442275,14.2041719 L4.35608937,6.80471734 C4.39713218,6.49780108 4.64771657,6.25277736 4.8625372,6.25277736 Z" fill="#262626" mask="url(#cpkr45w7l__c75ff4ay2b)"/>
    <path d="M9,2.19701635 C10.5038007,2.19701635 11.7414546,3.33363837 11.8197384,4.77562808 L11.8236691,4.92081415 L11.8236691,8.36214671 C11.8236691,8.67280689 11.5718293,8.92464671 11.2611691,8.92464671 C10.9763973,8.92464671 10.7410509,8.7130313 10.7038041,8.43847463 L10.6986691,8.36214671 L10.6986691,4.92081415 C10.6986691,4.04364859 9.943691,3.32201635 9,3.32201635 C8.09733905,3.32201635 7.3673379,3.9822621 7.3055659,4.80732982 L7.3013309,4.92081415 L7.3013309,8.36214671 C7.3013309,8.67280689 7.04949107,8.92464671 6.7388309,8.92464671 C6.45405908,8.92464671 6.21871268,8.7130313 6.18146586,8.43847463 L6.1763309,8.36214671 L6.1763309,4.92081415 C6.1763309,3.41067608 7.44607257,2.19701635 9,2.19701635 Z" fill="#FFA21A" mask="url(#cpkr45w7l__c75ff4ay2b)"/>
  </g>
</svg>
