<svg xmlns="http://www.w3.org/2000/svg" xmlns:xlink="http://www.w3.org/1999/xlink" viewBox="0 0 18 18" class="design-iconfont">
  <defs>
    <path id="r7ny7g826__vn6jyxhfha" d="M0 0H18V18H0z"/>
  </defs>
  <g fill="none" fill-rule="evenodd">
    <mask id="r7ny7g826__kg7pa7uk6b" fill="#fff">
      <use xlink:href="#r7ny7g826__vn6jyxhfha"/>
    </mask>
    <path d="M12.8281077,2.94882963 L12.9042952,3.05316871 L13.6489273,4.15813563 L14.0921942,4.15878201 C14.9649231,4.15878201 15.6811067,4.83686598 15.7540769,5.70067805 L15.7601994,5.84628201 L15.7601994,14.0043644 C15.7601994,14.8872933 15.089949,15.6118472 14.2361161,15.6856702 L14.0921942,15.6918644 L3.91893252,15.6918644 C3.04620363,15.6918644 2.33002011,15.0137804 2.2570499,14.1499683 L2.25092732,14.0043644 L2.25092732,5.84628201 C2.25092732,4.9633531 2.92117775,4.23879919 3.77501065,4.16497614 L3.91893252,4.15878201 L5.01292732,4.15813563 L11.0252646,2.37776695 C11.6903271,2.18074459 12.4033237,2.41137383 12.8281077,2.94882963 Z M14.0921942,5.28378201 L3.91893252,5.28378201 C3.64256837,5.28378201 3.41329829,5.48777227 3.37020791,5.75504159 L3.36293079,5.84628201 L3.36293079,14.0043644 C3.36293079,14.2839585 3.56456446,14.5159082 3.82874616,14.5595022 L3.91893252,14.5668644 L14.0921942,14.5668644 C14.3685584,14.5668644 14.5978285,14.3628741 14.6409189,14.0956048 L14.648196,14.0043644 L14.6479273,12.4621356 L12.0804021,12.4626363 C10.6790827,12.4626363 9.54308897,11.3266425 9.54308897,9.92532319 C9.54308897,8.5707145 10.604612,7.46403781 11.9411868,7.39176448 L12.0804021,7.38801008 L14.6479273,7.38713563 L14.648196,5.84628201 C14.648196,5.56668786 14.4465623,5.33473818 14.1823806,5.29114419 L14.0921942,5.28378201 Z M14.6479273,8.51213563 L12.0804021,8.51301008 C11.3004031,8.51301008 10.668089,9.1453242 10.668089,9.92532319 C10.668089,10.6681794 11.2416165,11.277081 11.9700306,11.3333872 L12.0804021,11.3376363 L14.6479273,11.3371356 L14.6479273,8.51213563 Z M11.9966896,9.36282319 C12.3073498,9.36282319 12.5591896,9.61466302 12.5591896,9.92532319 C12.5591896,10.2359834 12.3073498,10.4878232 11.9966896,10.4878232 C11.6860295,10.4878232 11.4341896,10.2359834 11.4341896,9.92532319 C11.4341896,9.61466302 11.6860295,9.36282319 11.9966896,9.36282319 Z M11.4238125,3.43906387 L11.3448144,3.45642949 L8.97392732,4.15813563 L12.2919273,4.15813563 L11.971158,3.68156342 C11.8491847,3.50043876 11.6352721,3.40829607 11.4238125,3.43906387 Z" fill="#262626" mask="url(#r7ny7g826__kg7pa7uk6b)"/>
  </g>
</svg>
