<svg xmlns="http://www.w3.org/2000/svg" xmlns:xlink="http://www.w3.org/1999/xlink" viewBox="0 0 48 48" class="design-iconfont">
  <defs>
    <path id="vnx09dovl__cntf2hi5ra" d="M0 0H32V32H0z"/>
  </defs>
  <g fill="none" fill-rule="evenodd">
    <path fill="#F5F5F5" d="M0 0H48V48H0z"/>
    <g transform="translate(8 8)">
      <mask id="vnx09dovl__sz8ktm2hib" fill="#fff">
        <use xlink:href="#vnx09dovl__cntf2hi5ra"/>
      </mask>
      <path d="M26.2953224,5.41392681 C27.9521767,5.41392681 29.2953224,6.75707256 29.2953224,8.41392681 L29.2953224,23.4830429 C29.2953224,25.1398971 27.9521767,26.4830429 26.2953224,26.4830429 L5.70467758,26.4830429 C4.04782333,26.4830429 2.70467758,25.1398971 2.70467758,23.4830429 L2.70467758,8.41392681 C2.70467758,6.75707256 4.04782333,5.41392681 5.70467758,5.41392681 Z M20.3746667,15.952 L16.3096308,19.7049268 L17.997435,21.083657 C18.4116065,21.4490066 18.4511845,22.0809334 18.0858348,22.495105 C17.7536988,22.8716246 17.201251,22.9385627 16.7923777,22.6731289 L16.6743868,22.5835048 L11.4533333,18.3586667 L4.71041011,23.5907476 C4.76412849,24.092381 5.18878105,24.4830429 5.70467758,24.4830429 L26.2953224,24.4830429 C26.8476072,24.4830429 27.2953224,24.0353276 27.2953224,23.4830429 L27.2946308,20.6149268 L20.3746667,15.952 Z M26.2953224,7.41392681 L5.70467758,7.41392681 C5.15239283,7.41392681 4.70467758,7.86164206 4.70467758,8.41392681 L4.70463083,21.0629268 L10.881106,16.2712845 C11.2183349,16.0096026 11.678582,15.9938337 12.0296182,16.2166685 L12.1556839,16.3114018 L14.7456308,18.4269268 L19.6002015,13.9456169 C19.9029967,13.6660681 20.3412925,13.6041029 20.7049665,13.7757689 L20.8374359,13.8511264 L27.2946308,18.2029268 L27.2953224,8.41392681 C27.2953224,7.90109097 26.9092822,7.47841965 26.4119435,7.42065454 L26.2953224,7.41392681 Z M10.9376702,8.11455367 C12.9354452,8.11455367 14.5549619,9.7340703 14.5549619,11.7318453 C14.5549619,13.7296203 12.9354452,15.349137 10.9376702,15.349137 C8.9398952,15.349137 7.32037857,13.7296203 7.32037857,11.7318453 C7.32037857,9.7340703 8.9398952,8.11455367 10.9376702,8.11455367 Z M10.9376702,10.1145537 C10.0444647,10.1145537 9.32037857,10.8386398 9.32037857,11.7318453 C9.32037857,12.6250508 10.0444647,13.349137 10.9376702,13.349137 C11.8308757,13.349137 12.5549619,12.6250508 12.5549619,11.7318453 C12.5549619,10.8386398 11.8308757,10.1145537 10.9376702,10.1145537 Z" fill="#D9D9D9" mask="url(#vnx09dovl__sz8ktm2hib)"/>
    </g>
  </g>
</svg>
