<svg xmlns="http://www.w3.org/2000/svg" viewBox="0 0 22 22" class="design-iconfont">
  <path d="M18.4897561,14.640867 C18.8378105,14.640867 19.1254561,14.899508 19.17098,15.2350773 L19.1772561,15.328367 L19.1772561,16.0541491 C19.1772561,17.7262167 17.8669601,19.0922484 16.2171527,19.1814593 L16.0453116,19.1860935 L5.95468836,19.1860935 C4.28262071,19.1860935 2.9165891,17.8757975 2.82737818,16.2259901 L2.82274392,16.0541491 L2.82274392,15.328367 C2.82274392,14.9486712 3.13054815,14.640867 3.51024392,14.640867 C3.85829837,14.640867 4.14594396,14.899508 4.19146785,15.2350773 L4.19774392,15.328367 L4.19774392,16.0541491 C4.19774392,16.9782764 4.91122312,17.7357616 5.81738419,17.8058076 L5.95468836,17.8110935 L16.0453116,17.8110935 C16.9694389,17.8110935 17.7269242,17.0976143 17.7969701,16.1914533 L17.8022561,16.0541491 L17.8022561,15.328367 C17.8022561,14.9486712 18.1100603,14.640867 18.4897561,14.640867 Z M11,2.89834017 C11.3796958,2.89834017 11.6875,3.20614441 11.6875,3.58584017 L11.6875,3.58584017 L11.6873477,13.5611245 L15.2260164,10.0223363 L15.303125,9.95576962 C15.5722688,9.7560697 15.9542105,9.77825858 16.1982882,10.0223363 C16.4667737,10.2908217 16.4667737,10.7261226 16.1982882,10.9946081 L16.1982882,10.9946081 L11.4861359,15.7067604 L11.4090273,15.773327 C11.1398835,15.973027 10.7579418,15.9508381 10.5138641,15.7067604 L10.5138641,15.7067604 L5.80171179,10.9946081 L5.73514515,10.9174995 C5.53544522,10.6483557 5.55763411,10.2664139 5.80171179,10.0223363 L5.80171179,10.0223363 L5.87882035,9.95576962 C6.14796422,9.7560697 6.52990593,9.77825858 6.77398361,10.0223363 L6.77398361,10.0223363 L10.3123477,13.5621245 L10.3125,3.58584017 L10.3187761,3.49255049 C10.3643,3.15698123 10.6519455,2.89834017 11,2.89834017 Z" fill="currentColor" fill-rule="evenodd"/>
</svg>
