<svg xmlns="http://www.w3.org/2000/svg" xmlns:xlink="http://www.w3.org/1999/xlink" viewBox="0 0 22 22" class="design-iconfont">
  <defs>
    <path id="r3voxk0bu__w0gxab63ya" d="M0 0H22V22H0z"/>
  </defs>
  <g fill="none" fill-rule="evenodd">
    <mask id="r3voxk0bu__qi2x4qqozb" fill="#fff">
      <use xlink:href="#r3voxk0bu__w0gxab63ya"/>
    </mask>
    <path d="M11,3.89583333 C11.3480545,3.89583333 11.6357,4.15447439 11.6812239,4.49004366 L11.6875,4.58333333 L11.6868333,10.3118333 L17.4166667,10.3125 C17.7963624,10.3125 18.1041667,10.6203042 18.1041667,11 C18.1041667,11.3480545 17.8455256,11.6357 17.5099563,11.6812239 L17.4166667,11.6875 L11.6868333,11.6868333 L11.6875,17.4166667 C11.6875,17.7963624 11.3796958,18.1041667 11,18.1041667 C10.6519455,18.1041667 10.3643,17.8455256 10.3187761,17.5099563 L10.3125,17.4166667 L10.3118333,11.6868333 L4.58333333,11.6875 C4.20363757,11.6875 3.89583333,11.3796958 3.89583333,11 C3.89583333,10.6519455 4.15447439,10.3643 4.49004366,10.3187761 L4.58333333,10.3125 L10.3118333,10.3118333 L10.3125,4.58333333 C10.3125,4.20363757 10.6203042,3.89583333 11,3.89583333 Z" fill="#FFF" mask="url(#r3voxk0bu__qi2x4qqozb)"/>
  </g>
</svg>
