<?xml version="1.0" encoding="UTF-8"?>
<svg width="1956px" height="1662px" viewBox="0 0 1956 1662" version="1.1" xmlns="http://www.w3.org/2000/svg" xmlns:xlink="http://www.w3.org/1999/xlink">
    <title>bg插图</title>
    <defs>
        <linearGradient x1="49.1645526%" y1="59.9344773%" x2="30.0081741%" y2="55.5958796%" id="linearGradient-1">
            <stop stop-color="#FFFFFF" stop-opacity="0" offset="0%"></stop>
            <stop stop-color="#FFFFFF" stop-opacity="0.253726986" offset="100%"></stop>
        </linearGradient>
    </defs>
    <g id="页面-1" stroke="none" stroke-width="1" fill="none" fill-rule="evenodd" opacity="0.600000024">
        <g id="登录页/账户登录" transform="translate(258.000000, 381.000000)" fill="url(#linearGradient-1)" fill-rule="nonzero">
            <g id="bg插图" transform="translate(-258.000000, -381.000000)">
                <path d="M705.005179,554 L438.995364,554 C423.478125,554 408.752582,561.137799 398.935553,573.509984 L17.8131573,1056.34243 C-5.93771908,1086.4798 -5.93771908,1129.46521 17.8131573,1159.60258 L398.935553,1642.43503 C408.594243,1654.80721 423.319786,1661.94501 438.995364,1661.94501 L705.005179,1661.94501 C721.947471,1661.94501 731.289482,1642.11779 720.680758,1628.7939 L350.325426,1159.60258 C326.57455,1129.46521 326.57455,1086.4798 350.325426,1056.34243 L720.680758,587.151111 C731.131143,573.827219 721.789132,554 705.005179,554 Z" id="路径" transform="translate(362.589129, 1107.972506) rotate(-180.000000) translate(-362.589129, -1107.972506) "></path>
                <path d="M1935.00518,0 L1668.99536,0 C1653.47813,0 1638.75258,7.13779893 1628.93555,19.5099837 L1247.81316,502.342427 C1224.06228,532.4798 1224.06228,575.465212 1247.81316,605.602585 L1628.93555,1088.43503 C1638.59424,1100.80721 1653.31979,1107.94501 1668.99536,1107.94501 L1935.00518,1107.94501 C1951.94747,1107.94501 1961.28948,1088.11779 1950.68076,1074.7939 L1580.32543,605.602585 C1556.57455,575.465212 1556.57455,532.4798 1580.32543,502.342427 L1950.68076,33.1511106 C1961.13114,19.8272193 1951.78913,0 1935.00518,0 Z" id="路径" transform="translate(1592.589129, 553.972506) scale(-1, 1) rotate(-180.000000) translate(-1592.589129, -553.972506) "></path>
            </g>
        </g>
    </g>
</svg>