<svg xmlns="http://www.w3.org/2000/svg" xmlns:xlink="http://www.w3.org/1999/xlink" viewBox="0 0 116 32" class="design-iconfont">
  <defs>
    <path id="lei797lg8a" d="M0 0L3.89113844 0 3.89113844 5.23389723 0 5.23389723z"/>
    <path id="ha3ap1fe5c" d="M0 0L17.8913743 0 17.8913743 20.8289666 0 20.8289666z"/>
    <path id="s1a37g7t0e" d="M0 0L7.5151008 0 7.5151008 20.3719024 0 20.3719024z"/>
    <path id="1ol68zlh4g" d="M0 0L7.55994542 0 7.55994542 15.1841871 0 15.1841871z"/>
  </defs>
  <g fill="none" fill-rule="evenodd">
    <path d="M19.5304671,0.131125225 L14.6389579,0.131125225 C14.3528216,0.131125225 14.0818615,0.263136859 13.9032239,0.489487743 L6.89304093,9.36434182 C6.45514162,9.91866405 6.45514162,10.706935 6.89304093,11.2615738 L13.9032239,20.1361113 C14.0818615,20.3627787 14.3528216,20.4944738 14.6389579,20.4944738 L19.5304671,20.4944738 C19.8406326,20.4944738 20.0129467,20.1310461 19.8191328,19.8857007 L13.0071902,11.2615738 C12.5689747,10.706935 12.5689747,9.91866405 13.0071902,9.36434182 L19.8191328,0.7398983 C20.0129467,0.494552937 19.8406326,0.131125225 19.5304671,0.131125225" fill="#FFA300"/>
    <path d="M88.9984965,26.9663679 C88.9545485,27.0569083 88.8957404,27.1319364 88.823653,27.1901862 C88.7503009,27.2484359 88.6646181,27.2924398 88.5694501,27.3199818 C88.4720689,27.3487901 88.3670995,27.3633525 88.2586522,27.3633525 L87.4653747,27.3633525 L87.5839395,26.1708158 L88.4021947,26.1708158 C88.640589,26.1708158 88.8135355,26.2148197 88.9153431,26.3015611 C89.015886,26.3873528 89.0645767,26.50037 89.0645767,26.6463109 C89.0645767,26.7678756 89.0421284,26.8758275 88.9984965,26.9663679 M88.9387399,29.1614966 C88.8928948,29.2488712 88.8306088,29.3213668 88.754095,29.377084 C88.6756841,29.4334342 88.5830455,29.4749055 88.4783923,29.5005481 C88.3712097,29.5271403 88.256439,29.5407531 88.1366095,29.5407531 L87.2431053,29.5407531 L87.368942,28.2877505 L88.186881,28.2877505 C88.4787085,28.2877505 88.6924413,28.336503 88.8211236,28.431792 C88.9466442,28.5254981 89.0073494,28.6562434 89.0073494,28.8313092 C89.0073494,28.9630043 88.9842688,29.074122 88.9387399,29.1614966 M89.7364438,27.4713045 C89.8189649,27.3741161 89.8938979,27.2500188 89.959978,27.1028116 C90.0270066,26.9533883 90.0611533,26.7745237 90.0611533,26.5706496 C90.0611533,26.1530876 89.9223534,25.820051 89.6485478,25.5813538 C89.3769554,25.3439228 88.9453795,25.2236244 88.3664672,25.2236244 L86.7049792,25.2236244 L86.1855073,30.4879444 L88.1223818,30.4879444 C88.4132607,30.4879444 88.6769488,30.4486892 88.9064903,30.3717615 C89.1369802,30.2942007 89.3349044,30.1824499 89.4948878,30.0396747 C89.6555036,29.8956332 89.7797595,29.7227835 89.8635453,29.5252409 C89.9470149,29.3280149 89.989382,29.1048297 89.989382,28.8613838 C89.989382,28.6391484 89.9583971,28.4492036 89.8957949,28.2966146 C89.8344574,28.1462417 89.7658479,28.0221444 89.6905988,27.9278051 C89.6219893,27.8429631 89.5480048,27.7714173 89.469594,27.7141173 C89.4809762,27.706836 89.4929908,27.6986051 89.5075347,27.6887913 C89.5777251,27.6406719 89.6548712,27.5675432 89.7364438,27.4713045" fill="#3E4644"/>
    <g transform="translate(90.246589 26.766103)">
      <mask id="7tbdixyyob" fill="#fff">
        <use xlink:href="#lei797lg8a"/>
      </mask>
      <path fill="#3E4644" mask="url(#7tbdixyyob)" d="M1.74179586 2.37209394L0.996892785 0 0 0 1.17110399 3.38354999 0.201718236 5.23392889 1.17616275 5.23392889 3.89113844 0 2.87938553 0z"/>
    </g>
    <path d="M109.312124,29.1977127 C109.051281,29.491494 108.752182,29.6339526 108.396171,29.6339526 C108.080314,29.6339526 107.818207,29.5174532 107.617437,29.28762 C107.41319,29.0543044 107.313912,28.7624226 107.313912,28.3948794 C107.313912,27.9738351 107.433109,27.6281356 107.678459,27.3378366 C107.924125,27.0507034 108.219114,26.911094 108.580816,26.911094 C108.912797,26.911094 109.176485,27.0247443 109.386424,27.2583764 C109.595731,27.4882096 109.698171,27.7800914 109.698171,28.1501672 C109.698171,28.5563325 109.571701,28.8988663 109.312124,29.1977127 M110.854098,26.1595457 L110.029836,26.1595457 C109.961859,26.1595457 109.904315,26.2108308 109.896095,26.2795275 L109.879654,26.4175541 L109.863213,26.555264 C109.857205,26.6065491 109.796816,26.6299757 109.758876,26.5957856 L109.65612,26.5039789 C109.508467,26.3719673 109.361763,26.2716131 109.219801,26.2057656 C109.010179,26.1069943 108.754079,26.0572921 108.457825,26.0572921 C107.829906,26.0572921 107.307272,26.2820601 106.904784,26.7258978 C106.509568,27.167836 106.308482,27.7430522 106.308482,28.4347678 C106.308482,29.0353099 106.484274,29.5313824 106.8308,29.909056 C107.177641,30.2873627 107.631981,30.479207 108.181174,30.479207 C108.528015,30.479207 108.871379,30.3655567 109.201779,30.142055 L109.375042,30.0249223 C109.403814,30.0052947 109.441754,30.0290378 109.437328,30.063861 L109.410769,30.2731169 L109.404446,30.3234522 C109.402233,30.3433965 109.411086,30.3573257 109.417093,30.3639738 C109.422784,30.3703053 109.435115,30.3813854 109.455034,30.3813854 L110.282774,30.3813854 C110.348854,30.3813854 110.404817,30.3313666 110.412721,30.2648859 L110.904686,26.2171623 C110.906899,26.1972181 110.898046,26.1832888 110.892355,26.1769573 C110.886664,26.1703093 110.874017,26.1595457 110.854098,26.1595457" fill="#3E4644"/>
    <path d="M115.819592,26.1853149 C115.813901,26.1758177 115.800938,26.1593558 115.775328,26.1593558 L114.801515,26.1593558 C114.749663,26.1593558 114.701921,26.1875309 114.676311,26.2331177 L113.372731,28.5653232 L113.328466,28.6451 C113.289893,28.7137967 113.189983,28.7061989 113.161843,28.632437 L113.129278,28.5472784 L112.25253,26.2524287 C112.231031,26.196395 112.177914,26.1593558 112.118473,26.1593558 L111.22402,26.1593558 C111.200307,26.1593558 111.187028,26.1739182 111.181337,26.1824657 C111.175646,26.1910132 111.167425,26.2087414 111.176278,26.2309016 L112.607909,29.7819196 L112.615813,29.8015473 C112.626563,29.8284561 112.624666,29.8588473 112.610438,29.8838567 L112.599688,29.902218 L111.568649,31.7111256 C111.555686,31.7336024 111.562958,31.7532301 111.568649,31.7630439 C111.574024,31.7725411 111.587303,31.789003 111.612913,31.789003 L112.581034,31.789003 C112.63257,31.789003 112.679996,31.7611444 112.705606,31.7158742 L115.819592,26.2372331 C115.832555,26.2147563 115.825283,26.1951287 115.819592,26.1853149" fill="#3E4644"/>
    <path d="M105.097983,27.0200273 C104.876662,27.2352981 104.55385,27.3445163 104.138082,27.3445163 L103.647382,27.3445163 C103.566442,27.3445163 103.50384,27.2726539 103.513957,27.1916108 L103.754249,25.2149186 C103.762469,25.146855 103.820013,25.0955699 103.887674,25.0955699 L104.183295,25.0955699 C105.022734,25.0955699 105.430913,25.4175264 105.430913,26.0804337 C105.430913,26.488815 105.318672,26.8050731 105.097983,27.0200273 M106.300072,25.1015849 C106.147677,24.7932411 105.934576,24.5507449 105.666778,24.3810609 C105.341436,24.1714885 104.863383,24.065436 104.24653,24.065436 L102.926825,24.065436 C102.859164,24.065436 102.801936,24.1167211 102.7934,24.1847846 L102.04818,30.2905601 C102.038379,30.3716033 102.100981,30.4431491 102.181605,30.4431491 L102.99986,30.4431491 C103.067838,30.4431491 103.124749,30.391864 103.133285,30.3238005 L103.361246,28.4484122 C103.369466,28.3800321 103.426694,28.328747 103.494355,28.328747 L104.115634,28.328747 C105.015462,28.328747 105.684167,28.0368651 106.103412,27.4613324 C106.385755,27.0735284 106.528665,26.6182941 106.528665,26.1079757 C106.528665,25.757211 106.451835,25.4187927 106.300072,25.1015849" fill="#3E4644"/>
    <path d="M97.5728179,24.0944975 L96.2493186,24.0884811 C96.1854517,24.088166 96.13107,24.1362854 96.1231657,24.2008666 L95.3592922,30.2835322 C95.349807,30.3601433 95.408299,30.4278902 95.4848128,30.4282068 L96.8079959,30.4342233 C96.872179,30.4345383 96.9265607,30.3864189 96.934465,30.3218377 L97.1940429,28.253972 L96.6442184,27.5578243 C96.5076318,27.3849746 96.5076318,27.1396292 96.6442184,26.9667794 L97.4902968,25.8954908 L97.6980223,24.2394887 C97.7078236,24.1628777 97.6490155,24.0948141 97.5728179,24.0944975" fill="#3E4644"/>
    <path d="M101.442077,24.0906353 L99.9184405,24.0906353 C99.8289636,24.0906353 99.7448616,24.13179 99.6892152,24.2023862 L97.5054098,26.9667161 C97.3691394,27.1395659 97.3691394,27.3849113 97.5054098,27.557761 L99.6892152,30.3224076 C99.7448616,30.3930037 99.8289636,30.4338418 99.9184405,30.4338418 L101.442077,30.4338418 C101.538826,30.4338418 101.592259,30.3208247 101.53187,30.2442136 L99.4100347,27.557761 C99.2737642,27.3849113 99.2737642,27.1395659 99.4100347,26.9667161 L101.53187,24.2802635 C101.592259,24.2039691 101.538826,24.0906353 101.442077,24.0906353" fill="#FFA300"/>
    <path d="M101.26872,6.91861261 C97.3484933,6.91861261 94.0062308,9.98178904 93.8649016,13.7632734 C93.72294,17.5441246 96.8574769,20.6313607 100.778336,20.6313607 C103.546112,20.6313607 105.567721,19.5401278 106.935484,17.3576621 C107.12835,17.0499515 106.994925,16.6396708 106.657885,16.50481 L104.71279,15.7266694 C104.47566,15.631697 104.201855,15.7029263 104.045349,15.904901 C103.185359,17.016078 102.072115,17.4722621 100.8969,17.4722621 C98.8171159,17.4722621 97.3456477,15.9169308 97.426588,13.7632734 C97.5062635,11.6333591 99.0713188,10.0536515 101.151103,10.0536515 C102.313038,10.0536515 103.338387,10.5769494 104.070959,11.6406403 C104.220509,11.8578105 104.503483,11.9388536 104.749466,11.8438812 L106.950977,10.9910291 C107.290546,10.8596506 107.429979,10.4481035 107.236797,10.1391266 C105.937327,8.05923112 103.804425,6.91861261 101.26872,6.91861261" fill="#252B29"/>
    <path d="M47.7326999,16.3922043 C47.0371198,17.1481846 46.1736519,17.5157278 45.0932895,17.5157278 C44.0085007,17.5157278 43.1513563,17.1798421 42.4709524,16.4855939 C41.793078,15.8106567 41.4639421,14.9346946 41.4639421,13.8070557 C41.4639421,12.6876477 41.8161586,11.7857264 42.5395619,11.0506401 C43.2623329,10.3237847 44.1548887,9.96985418 45.2678169,9.96985418 C46.3358485,9.96985418 47.1718094,10.2854791 47.8272356,10.9395224 C48.4750736,11.5622247 48.7896655,12.3948161 48.7896655,13.4844661 C48.7896655,14.6849172 48.444721,15.6352743 47.7326999,16.3922043 M45.2946916,6.93960151 C43.1788633,6.93960151 41.3883768,7.60219228 39.9728713,8.90964563 C38.5579981,10.2155161 37.840602,11.8762668 37.840602,13.8459943 C37.840602,15.7733009 38.5352336,17.3906808 39.9058427,18.6534972 C41.2593783,19.9008013 43.0226739,20.5333175 45.1470389,20.5333175 C47.1838239,20.5333175 48.9211934,19.8650284 50.3104566,18.5480778 C51.7142638,17.2247957 52.4262849,15.5691102 52.4262849,13.6266081 C52.4262849,11.656564 51.7496751,10.034752 50.4176392,8.80865832 C49.0995148,7.56800222 47.3757408,6.93960151 45.2946916,6.93960151" fill="#252B29"/>
    <path d="M60.9745852,6.89619913 C59.9125608,6.89619913 58.8536981,7.26089314 57.8188646,7.98205022 L57.8666067,7.56670426 C57.8887388,7.37422687 57.7385567,7.20580915 57.545059,7.20580915 L54.5961154,7.20580915 C54.4326541,7.20580915 54.2948028,7.32769039 54.2748839,7.49009319 L52.7174168,20.1549791 C52.6937038,20.3480897 52.844202,20.5184068 53.0383321,20.5184068 L56.0008711,20.5184068 C56.1643324,20.5184068 56.3018676,20.3965256 56.3221027,20.2341228 L57.0739615,14.1299302 C57.1346667,13.6322748 57.2058056,13.1859045 57.2848488,12.8037989 C57.3600979,12.4368889 57.4530527,12.125696 57.563397,11.8711699 C57.7568947,11.3947251 58.0597883,10.9850775 58.4682835,10.6488752 C58.959616,10.2300469 59.5331534,10.0261728 60.2220939,10.0261728 C61.2831698,10.0261728 61.7558481,10.4582972 61.7558481,11.4273323 C61.7558481,11.5919511 61.7495247,11.778097 61.7365616,11.98577 C61.7235985,12.1918601 61.6995694,12.4334065 61.6644742,12.7062939 L60.7513672,20.1549791 C60.7276542,20.3480897 60.8784686,20.5184068 61.0725987,20.5184068 L64.0212261,20.5184068 C64.1843713,20.5184068 64.3219064,20.3968422 64.3421415,20.2344394 L65.188536,13.4293504 C65.2969833,12.5242635 65.3523135,11.7331434 65.3523135,11.0775173 C65.3523135,9.7988722 64.9523549,8.77032113 64.1612906,8.01750658 C63.3601088,7.27355612 62.2879669,6.89619913 60.9745852,6.89619913" fill="#252B29"/>
    <path d="M74.4645712,6.89619913 C73.4025468,6.89619913 72.3436842,7.26089314 71.3085345,7.98205022 L71.3562766,7.56670426 C71.3787248,7.37454344 71.2285428,7.20580915 71.035045,7.20580915 L68.0857853,7.20580915 C67.922324,7.20580915 67.7847888,7.32769039 67.7645538,7.49009319 L66.2070866,20.1549791 C66.1833737,20.3480897 66.3338719,20.5184068 66.5283182,20.5184068 L69.490541,20.5184068 C69.6540023,20.5184068 69.7918536,20.3965256 69.8117725,20.2341228 L70.5636314,14.1299302 C70.6246528,13.6322748 70.6957916,13.1859045 70.7748348,12.8037989 C70.8500839,12.4368889 70.9430387,12.125696 71.053383,11.8711699 C71.2465646,11.3947251 71.5497743,10.9850775 71.9582696,10.6488752 C72.4492859,10.2300469 73.0228233,10.0261728 73.71208,10.0261728 C74.7728397,10.0261728 75.2458342,10.4582972 75.2458342,11.4273323 C75.2458342,11.5919511 75.2395107,11.778097 75.2262314,11.98577 C75.2135845,12.1918601 75.1892392,12.4334065 75.1544602,12.7062939 L74.2413532,20.1549791 C74.2176403,20.3480897 74.3681385,20.5184068 74.5625848,20.5184068 L77.510896,20.5184068 C77.6740411,20.5184068 77.8118925,20.3968422 77.8321275,20.2344394 L78.6785221,13.4293504 C78.7869693,12.5242635 78.8419834,11.7331434 78.8419834,11.0775173 C78.8419834,9.7988722 78.442341,8.77032113 77.6509605,8.01750658 C76.8500949,7.27355612 75.7776368,6.89619913 74.4645712,6.89619913" fill="#252B29"/>
    <path d="M83.6504023,12.143804 C84.1784109,10.6821788 85.1550686,9.96988584 86.6243235,9.96988584 C88.177048,9.96988584 89.1110224,10.6821788 89.4698785,12.143804 L83.6504023,12.143804 Z M86.7722924,6.93963317 C84.7481542,6.93963317 83.0487255,7.62818306 81.7204836,8.98533864 C80.3846536,10.350092 79.7074115,12.0681427 79.7074115,14.0916879 C79.7074115,16.0341901 80.328691,17.6110485 81.5538606,18.7785758 C82.7739713,19.9429374 84.4253418,20.5330326 86.4630754,20.5330326 C87.7426266,20.5330326 88.8296287,20.3180784 89.6927804,19.8938683 C90.5496086,19.4775727 91.3877826,18.7428029 92.1845381,17.7098198 L92.4166089,17.4084407 L89.6213253,15.9262381 L89.4572316,16.1468906 C88.771769,17.0681229 87.8099714,17.5157595 86.5165086,17.5157595 C85.5765269,17.5157595 84.8284621,17.2590174 84.2312117,16.7319206 C83.8378928,16.3805227 83.582109,15.970242 83.4581693,15.4906314 C83.4053684,15.285491 83.5631386,15.0838329 83.7746582,15.0838329 L93.1330564,15.0835164 L93.1504459,14.7815041 C93.1782691,14.306009 93.1915484,13.9707564 93.1915484,13.7554856 C93.1915484,11.7012327 92.6063126,10.0325676 91.4535466,8.79855959 C90.3118467,7.56486813 88.7366739,6.93963317 86.7722924,6.93963317 L86.7722924,6.93963317 Z" fill="#252B29"/>
    <g transform="translate(20.432871)">
      <mask id="6a4r7xcvrd" fill="#fff">
        <use xlink:href="#ha3ap1fe5c"/>
      </mask>
      <path d="M15.562515,15.4573277 C15.3490984,15.1242912 14.8995007,15.0454641 14.5861735,15.2863774 C13.6563093,16.0021527 11.7206995,17.2871293 9.81291297,17.2871293 C8.10210204,17.2871293 6.43397444,16.5422291 5.23567959,15.2436398 C4.03485536,13.9418848 3.45088423,12.2463109 3.59158112,10.468111 C3.88246008,6.79774441 7.30661132,3.57849667 10.9201501,3.57849667 C12.7903121,3.57849667 14.5279977,4.83086603 15.3541572,5.53176233 C15.6415582,5.7758414 16.0696562,5.73531984 16.3083666,5.44312143 L17.7396808,3.69088067 C17.965112,3.41482757 17.9353918,3.01182802 17.6764463,2.76711581 C15.8695188,1.05824578 13.5873837,0.0334935993 11.2303156,-6.33149324e-05 C5.60781496,-6.33149324e-05 0.47980859,4.77261629 0.0324241018,10.4218911 C-0.185418946,13.1688095 0.699864847,15.7707366 2.5241818,17.7483785 C4.3573516,19.7352011 6.89337349,20.8289666 9.66462794,20.8289666 C12.1061142,20.8289666 14.4732998,19.9007697 16.5847016,18.1190875 C16.8398531,17.9041333 16.8879113,17.527726 16.708009,17.2466077 L15.562515,15.4573277 Z" fill="#252B29" mask="url(#6a4r7xcvrd)"/>
    </g>
    <g transform="translate(0 .124315)">
      <mask id="mvxt15wcuf" fill="#fff">
        <use xlink:href="#s1a37g7t0e"/>
      </mask>
      <path d="M7.10958767,0.0193154006 L2.86085781,0 C2.65502933,-0.000945377798 2.48081812,0.153859632 2.45489196,0.360899461 L0.00328819694,19.8872246 C-0.0276967358,20.1335197 0.160742243,20.3513231 0.40577615,20.3525894 L4.65418983,20.3719024 C4.86001832,20.3725336 5.03422952,20.2177286 5.06015569,20.0110053 L5.89390332,13.3721181 L4.1283945,11.137101 C3.69049519,10.5824622 3.69049519,9.79419124 4.1283945,9.23986901 L6.8443187,5.80123503 L7.51175945,0.484363579 C7.54274438,0.238385067 7.3543054,0.0202651246 7.10958767,0.0193154006" fill="#252B29" mask="url(#mvxt15wcuf)"/>
    </g>
    <g transform="translate(108.440055 5.334315)">
      <mask id="o61k63gj5h" fill="#fff">
        <use xlink:href="#1ol68zlh4g"/>
      </mask>
      <path d="M7.24339323,2.69183435 L5.43899516,2.69183435 C5.25182087,2.69183435 5.10543287,2.5300647 5.12408707,2.34328565 L5.3223274,0.348232128 C5.34066542,0.161769652 5.1945936,0 5.00710314,0 L2.48910309,0 C2.32659028,0 2.19031981,0.123464118 2.174195,0.285550345 L1.96362393,2.40628401 C1.94749912,2.56837023 1.81122865,2.69183435 1.64839966,2.69183435 L0.545905169,2.69183435 C0.382760013,2.69183435 0.246489544,2.81593162 0.230680904,2.97833442 L0.00145563683,5.35042837 C-0.016250039,5.53689084 0.129821787,5.69834392 0.316679901,5.69834392 L1.29428615,5.69834392 C1.48177661,5.69834392 1.62816461,5.86011357 1.60951041,6.04689262 L0.73118242,14.8356384 C0.712528226,15.0221009 0.859232397,15.1841871 1.04640668,15.1841871 L3.56440673,15.1841871 C3.72691954,15.1841871 3.86319001,15.060723 3.87931482,14.8986368 L4.76997355,5.98357769 C4.78641453,5.82149146 4.92236883,5.69834392 5.08519781,5.69834392 L7.01416796,5.69834392 C7.17762929,5.69834392 7.31389976,5.57424665 7.32939223,5.41152727 L7.5586175,3.03943333 C7.57663934,2.85297086 7.43025135,2.69183435 7.24339323,2.69183435" fill="#252B29" mask="url(#o61k63gj5h)"/>
    </g>
  </g>
</svg>
