<svg xmlns="http://www.w3.org/2000/svg" xmlns:xlink="http://www.w3.org/1999/xlink" viewBox="0 0 145 40" class="design-iconfont">
  <defs>
    <path id="glxdax09o__4rurj8wpha" d="M0 0H145V40H0z"/>
  </defs>
  <g fill="none" fill-rule="evenodd">
    <mask id="glxdax09o__7gblw3shab" fill="#fff">
      <use xlink:href="#glxdax09o__4rurj8wpha"/>
    </mask>
    <g mask="url(#glxdax09o__7gblw3shab)">
      <path d="M3.51622966,3.62615413 C3.46129474,3.73932924 3.38778472,3.8331142 3.29767565,3.90592616 C3.20598572,3.97873812 3.0988824,4.0337428 2.97992263,4.06817019 C2.85819635,4.10418045 2.7269849,4.12238344 2.59142608,4.12238344 L1.59983114,4.12238344 L1.74803684,2.63171693 L2.77085379,2.63171693 C3.06884605,2.63171693 3.28502876,2.68672161 3.41228806,2.79514811 C3.53796649,2.90238746 3.59882964,3.04365848 3.59882964,3.22608409 C3.59882964,3.37803948 3.57076936,3.51297903 3.51622966,3.62615413 M3.44153398,6.37005687 C3.38422778,6.47927481 3.30637039,6.56989404 3.21072831,6.63954026 C3.11271494,6.70997791 2.99691688,6.76181686 2.86610065,6.79386995 C2.7321227,6.82711019 2.58865958,6.84412602 2.43887302,6.84412602 L1.32199485,6.84412602 L1.4792905,5.27787753 L2.50171223,5.27787753 C2.86649586,5.27787753 3.13366134,5.33881797 3.29451393,5.45792884 C3.45141436,5.57506111 3.52729568,5.7384923 3.52729568,5.95732388 C3.52729568,6.12194222 3.49844497,6.26083894 3.44153398,6.37005687 M4.43866194,4.25732299 C4.54181311,4.13583783 4.63547911,3.9807167 4.71807909,3.79670823 C4.80186471,3.60992973 4.84454795,3.38634954 4.84454795,3.13150769 C4.84454795,2.60955677 4.67104848,2.19326232 4.32879211,1.89489159 C3.98930226,1.59810372 3.4498335,1.44773121 2.72619447,1.44773121 L0.649338578,1.44773121 L0,8.02811175 L2.42108833,8.02811175 C2.78468632,8.02811175 3.1142958,7.97904282 3.40122203,7.88288355 C3.68933392,7.78593285 3.93673863,7.64624469 4.13671753,7.46777626 C4.33748685,7.28772495 4.49280642,7.07166339 4.59753845,6.82473588 C4.70187527,6.5782041 4.7548341,6.2992235 4.7548341,5.99491701 C4.7548341,5.71712357 4.71610301,5.47969328 4.6378504,5.28895761 C4.56117865,5.10099196 4.47541695,4.94587084 4.38135574,4.82794713 C4.29559404,4.72189493 4.20311368,4.63246285 4.10510031,4.56083805 C4.11932806,4.55173656 4.13434624,4.54144791 4.15252613,4.52918068 C4.24026391,4.46903167 4.33669642,4.37762101 4.43866194,4.25732299 M7.25358222,6.34093209 L6.3224552,3.37582346 L5.07634167,3.37582346 L6.54021878,7.6052484 L5.32848897,9.91821516 L6.54654222,9.91821516 L9.94025517,3.37582346 L8.67556652,3.37582346 L7.25358222,6.34093209 Z M27.8403421,2.48981276 C28.2106588,2.48981276 28.5307831,2.55194035 28.7928108,2.6754041 C28.9702624,2.75771327 29.1536422,2.88315561 29.3382077,3.04816966 L29.4666527,3.16292763 C29.5140785,3.20566509 29.5895646,3.17638202 29.5970737,3.11227584 L29.6176249,2.94013888 L29.6381761,2.7676062 C29.6484517,2.68173558 29.7203808,2.6176294 29.8053521,2.6176294 L30.8356781,2.6176294 C30.8605767,2.6176294 30.8763853,2.63108378 30.8834992,2.63939384 C30.8906131,2.64730818 30.9016791,2.66471974 30.8989126,2.68964992 L30.2839577,7.74928944 C30.2740773,7.83239004 30.2041243,7.89491335 30.1215243,7.89491335 L29.0868509,7.89491335 C29.0619523,7.89491335 29.0465389,7.88106325 29.0394251,7.87314891 C29.031916,7.86483885 29.0208499,7.84742729 29.0236164,7.82249711 L29.0315207,7.75957809 L29.0647188,7.49800905 C29.0702518,7.45448016 29.022826,7.42480137 28.9868614,7.44933584 L28.7702835,7.59575118 C28.3572836,7.8751275 27.9280799,8.01718995 27.4945288,8.01718995 C26.80804,8.01718995 26.2401158,7.77738536 25.8065647,7.30450336 C25.3734088,6.8324128 25.1536692,6.21232402 25.1536692,5.46164858 C25.1536692,4.5970066 25.405026,3.87798853 25.8990451,3.32556738 C26.402154,2.77077194 27.0554447,2.48981276 27.8403421,2.48981276 Z M22.5762337,0 C23.3472986,0 23.944864,0.132565246 24.3515404,0.394530002 C24.6862877,0.606634396 24.9526627,0.909753735 25.1431565,1.29518224 C25.3328598,1.69169083 25.428897,2.11471247 25.428897,2.55316707 C25.428897,3.19106312 25.2502598,3.76010439 24.8973326,4.2448579 C24.3732772,4.96427169 23.5373971,5.3291229 22.4126146,5.3291229 L21.6360167,5.3291229 C21.5514407,5.3291229 21.4799067,5.39322908 21.4696311,5.47870399 L21.184681,7.8229324 C21.1740102,7.90801159 21.1028714,7.97211777 21.0179002,7.97211777 L19.9950832,7.97211777 C19.8943034,7.97211777 19.8160507,7.88268569 19.8283024,7.7813821 L20.7598246,0.149185367 C20.7704955,0.0641061788 20.8420294,0 20.9266055,0 Z M27.9940808,3.55706192 C27.5419547,3.55706192 27.1732189,3.73157318 26.8661367,4.09048864 C26.5594497,4.45336127 26.4104535,4.8854844 26.4104535,5.41178822 C26.4104535,5.87121583 26.5345511,6.23606705 26.7898601,6.52771059 C27.0408218,6.81500124 27.3684552,6.96062515 27.7632752,6.96062515 C28.2082875,6.96062515 28.5821611,6.78255243 28.9082136,6.41532692 C29.2326853,6.04176992 29.3907714,5.61360396 29.3907714,5.10589886 C29.3907714,4.6433055 29.2627216,4.27845429 29.0010892,3.99116364 C28.7386663,3.69912438 28.4090568,3.55706192 27.9940808,3.55706192 Z M22.4971907,1.28766362 L22.1276645,1.28766362 C22.0430884,1.28766362 21.9711592,1.3517698 21.9608836,1.43684898 L21.6605201,3.90770689 C21.6478732,4.00901048 21.7261258,4.09883827 21.8273009,4.09883827 L22.4406749,4.09883827 C22.9603829,4.09883827 23.3638976,3.96231586 23.6405483,3.69322819 C23.9164085,3.42453624 24.0567099,3.02921481 24.0567099,2.51873968 C24.0567099,1.69010796 23.546487,1.28766362 22.4971907,1.28766362 Z M37.0425329,2.64984077 C37.035419,2.63796926 37.0192152,2.61739197 36.9872028,2.61739197 L35.76994,2.61739197 C35.7051247,2.61739197 35.6454472,2.65261079 35.6134347,2.70959406 L33.9839625,5.62484233 L33.9286323,5.72456305 C33.8804161,5.81043368 33.7555281,5.80093646 33.7203539,5.70873437 L33.6796467,5.60228645 L32.583715,2.73373281 C32.5568404,2.66369087 32.4904442,2.61739197 32.4161437,2.61739197 L31.2980799,2.61739197 C31.2684388,2.61739197 31.2518398,2.63559496 31.2447259,2.64627932 C31.237612,2.65696368 31.2273364,2.67912384 31.2384024,2.70682404 L33.0279369,7.14558335 L33.0378173,7.17011781 C33.0512546,7.20375377 33.0488833,7.24174262 33.0310986,7.27300427 L33.0176613,7.29595587 L31.7288645,9.55708368 C31.7126607,9.5851796 31.7217506,9.60971406 31.7288645,9.6219813 C31.7355832,9.63385281 31.7521822,9.6544301 31.7841946,9.6544301 L32.9943436,9.6544301 C33.0587637,9.6544301 33.1180459,9.61960699 33.1500584,9.56301944 L37.0425329,2.71473839 C37.0587367,2.68664247 37.0496468,2.66210801 37.0425329,2.64984077 M14.2341103,0.0363268347 L12.5797394,0.0288062676 C12.499906,0.0284124916 12.4319289,0.0885614989 12.4220486,0.169287798 L11.4672086,7.77259718 C11.4553522,7.86836073 11.528467,7.9530442 11.6241091,7.95343992 L13.2780847,7.96096049 C13.3583134,7.96135426 13.4262904,7.90120526 13.4361708,7.82047896 L13.7606424,5.23565451 L13.0733632,4.36547249 C12.9026302,4.14941093 12.9026302,3.84273013 13.0733632,3.62666857 L14.1309591,2.28756172 L14.3906155,0.217565291 C14.4028672,0.12180174 14.3293571,0.0367225518 14.2341103,0.0363268347" fill="#1A1A1A" transform="translate(107.731739 30.081785)"/>
      <path d="M19.0706749,0.0314990854 L17.1661328,0.0314990854 C17.0542869,0.0314990854 16.9491597,0.0829423153 16.8796018,0.17118724 L14.1498504,3.62658942 C13.9795126,3.84265099 13.9795126,4.14933178 14.1498504,4.36539335 L16.8796018,7.82119125 C16.9491597,7.90943617 17.0542869,7.96048369 17.1661328,7.96048369 L19.0706749,7.96048369 C19.1916107,7.96048369 19.2584021,7.81921266 19.182916,7.72344911 L16.5306268,4.36539335 C16.360289,4.14933178 16.360289,3.84265099 16.5306268,3.62658942 L19.182916,0.26853366 C19.2584021,0.173165826 19.1916107,0.0314990854 19.0706749,0.0314990854" fill="#FFA300" transform="translate(107.731739 30.081785)"/>
      <g>
        <path d="M24.4131022,0.163985188 L18.2987278,0.163985188 C17.941058,0.163985188 17.6023586,0.328999241 17.379062,0.611937006 L8.61635054,11.7054717 C8.06897748,12.3983724 8.06897748,13.3837081 8.61635054,14.0770046 L17.379062,25.1701435 C17.6023586,25.453477 17.941058,25.6180954 18.2987278,25.6180954 L24.4131022,25.6180954 C24.8008083,25.6180954 25.0162006,25.1638121 24.7739337,24.8571313 L16.2590221,14.0770046 C15.7112539,13.3837081 15.7112539,12.3983724 16.2590221,11.7054717 L24.7739337,0.924949274 C25.0162006,0.61826848 24.8008083,0.163985188 24.4131022,0.163985188" fill="#FFA300"/>
        <path d="M126.585717,8.64831924 C121.685444,8.64831924 117.507624,12.4772784 117.330963,17.2041198 C117.153511,21.9301698 121.071675,25.7892035 125.972738,25.7892035 C129.432452,25.7892035 131.959458,24.4251664 133.669159,21.6970924 C133.910241,21.3124553 133.74346,20.7996059 133.32216,20.6310304 L130.890796,19.6583576 C130.594385,19.5396424 130.252129,19.6286788 130.056497,19.8811464 C128.981512,21.2701136 127.589959,21.840342 126.120944,21.840342 C123.521219,21.840342 121.681887,19.8961836 121.783062,17.2041198 C121.882656,14.5417348 123.838972,12.5671062 126.438697,12.5671062 C127.891113,12.5671062 129.172796,13.2212267 130.08851,14.5508363 C130.275446,14.8222983 130.629164,14.9236019 130.936641,14.8048867 L133.688525,13.7388247 C134.112986,13.5746021 134.287276,13.0601698 134.045799,12.6739498 C132.421465,10.0740881 129.755343,8.64831924 126.585717,8.64831924 M39.5789718,0 C42.5253011,0.0419460182 45.3779645,1.32288244 47.6366194,3.45896364 C47.9603006,3.764853 47.9974508,4.26860093 47.7156624,4.61366629 L45.9265232,6.80396073 C45.6281357,7.16920767 45.0930143,7.21985946 44.7337637,6.91476154 C43.7010664,6.03864376 41.5289636,4.4731867 39.1912657,4.4731867 C34.6743511,4.4731867 30.3941705,8.49723443 30.0305725,13.0851791 C29.8547017,15.3079224 30.5846642,17.4273834 32.0856916,19.0545724 C33.5835572,20.6778041 35.6687126,21.6089266 37.8072221,21.6089266 C40.1919506,21.6089266 42.6114581,20.0027107 43.773786,19.1079942 C44.1654442,18.8068534 44.7274403,18.905387 44.9942105,19.3216814 L46.4260752,21.5582748 C46.6509526,21.9096716 46.5908799,22.3801793 46.2719413,22.6488713 C43.6326941,24.8759674 40.6737179,26.0362101 37.6218661,26.0362101 C34.1578049,26.0362101 30.9877837,24.6690073 28.696326,22.1854865 C26.4159343,19.7134414 25.3093317,16.4610421 25.581635,13.0274044 C26.1408645,5.9658318 32.5508599,0 39.5789718,0 Z M56.6183196,8.67455529 C59.219626,8.67455529 61.3743393,9.46005384 63.0219915,11.0108694 C64.6870332,12.5434819 65.5327937,14.5707409 65.5327937,17.0332887 C65.5327937,19.4614092 64.6427691,21.5310099 62.8880136,23.1851076 C61.151438,24.8312909 58.9797304,25.6666498 56.4337541,25.6666498 C53.7783031,25.6666498 51.5741879,24.876007 49.8822717,23.3168814 C48.1690138,21.7383657 47.300726,19.7166467 47.300726,17.3075207 C47.300726,14.8453686 48.1974693,12.7694364 49.9660573,11.1371031 C51.7354358,9.50279129 53.9735394,8.67455529 56.6183196,8.67455529 Z M56.5847263,12.4623599 C55.1935688,12.4623599 54.0778763,12.9047717 53.1744143,13.8133382 C52.2701619,14.7321935 51.8298922,15.8595916 51.8298922,17.2588475 C51.8298922,18.668392 52.2413112,19.7633414 53.0886526,20.6070103 C53.9391557,21.474818 55.0105841,21.8946739 56.3665675,21.8946739 C57.7170178,21.8946739 58.7963506,21.4352463 59.665824,20.4902738 C60.5558486,19.5441141 60.9870284,18.3561712 60.9870284,16.8556117 C60.9870284,15.4935533 60.5937893,14.4528172 59.7839934,13.6744415 C58.9647122,12.8568899 57.9197632,12.4623599 56.5847263,12.4623599 Z M76.2181481,8.62030247 C74.8906202,8.62030247 73.5670445,9.07616863 72.2735051,9.9776123 L72.3331826,9.4584314 C72.3608477,9.21783537 72.1731205,9.00731384 71.9312488,9.00731384 L68.2450766,9.00731384 C68.0407503,9.00731384 67.8684365,9.15966495 67.8435379,9.36266785 L65.8967078,25.1937283 C65.8670667,25.4351157 66.0551891,25.6480116 66.2978513,25.6480116 L70.0010177,25.6480116 C70.205344,25.6480116 70.3772626,25.4956605 70.4025564,25.2926576 L71.3423781,17.6624394 C71.4182594,17.0403721 71.5071829,16.4824109 71.6059867,16.0047803 C71.7000479,15.5461441 71.8162412,15.1571541 71.9541713,14.8389975 C72.196043,14.2434432 72.5746591,13.7313852 73.0852772,13.3111336 C73.6994416,12.7875998 74.416362,12.532758 75.2775359,12.532758 C76.6038781,12.532758 77.1947248,13.0729119 77.1947248,14.2842021 C77.1947248,14.489975 77.1868205,14.7226567 77.1706167,14.9822471 C77.1544129,15.239859 77.1243765,15.5417912 77.0805077,15.8828994 L75.9391261,25.1937283 C75.909485,25.4351157 76.0980027,25.6480116 76.3406648,25.6480116 L80.0264418,25.6480116 C80.2303728,25.6480116 80.4022914,25.4960562 80.4275852,25.2930533 L81.4855763,16.7867174 C81.6211351,15.655362 81.6902978,14.6664649 81.6902978,13.8469346 C81.6902978,12.248633 81.1903505,10.962948 80.2015221,10.0219326 C79.2000468,9.09199731 77.859872,8.62030247 76.2181481,8.62030247 M93.0805975,8.62030247 C91.7530697,8.62030247 90.4294939,9.07616863 89.1355594,9.9776123 L89.1952369,9.4584314 C89.2232971,9.21823108 89.0355699,9.00731384 88.7936982,9.00731384 L85.1071308,9.00731384 C84.9028046,9.00731384 84.7308859,9.15966495 84.7055922,9.36266785 L82.7587621,25.1937283 C82.7291209,25.4351157 82.9172434,25.6480116 83.1603007,25.6480116 L86.863072,25.6480116 C87.0673982,25.6480116 87.239712,25.4956605 87.2646106,25.2926576 L88.2044324,17.6624394 C88.2807089,17.0403721 88.3696323,16.4824109 88.4684361,16.0047803 C88.5624973,15.5461441 88.6786906,15.1571541 88.8166207,14.8389975 C89.0580972,14.2434432 89.4371086,13.7313852 89.9477266,13.3111336 C90.5614958,12.7875998 91.2784162,12.532758 92.1399853,12.532758 C93.4659323,12.532758 94.0571743,13.0729119 94.0571743,14.2842021 C94.0571743,14.489975 94.04927,14.7226567 94.032671,14.9822471 C94.0168623,15.239859 93.9864308,15.5417912 93.9429571,15.8828994 L92.8015756,25.1937283 C92.7719345,25.4351157 92.9600569,25.6480116 93.2031142,25.6480116 L96.888496,25.6480116 C97.092427,25.6480116 97.2647409,25.4960562 97.2900347,25.2930533 L98.3480257,16.7867174 C98.4835846,15.655362 98.552352,14.6664649 98.552352,13.8469346 C98.552352,12.248633 98.0528,10.962948 97.0635763,10.0219326 C96.0624962,9.09199731 94.7219263,8.62030247 93.0805975,8.62030247 M104.562864,15.1797891 C105.222873,13.352763 106.443693,12.4623995 108.280258,12.4623995 C110.22116,12.4623995 111.388626,13.352763 111.837195,15.1797891 L104.562864,15.1797891 Z M108.465219,8.67459486 C105.935051,8.67459486 103.810769,9.53527967 102.15047,11.2317191 C100.480686,12.9376558 99.6341351,15.0852127 99.6341351,17.6146368 C99.6341351,20.0427572 100.410733,22.0138244 101.942192,23.4732292 C103.467327,24.9286769 105.531536,25.6662937 108.078698,25.6662937 C109.678134,25.6662937 111.036884,25.3976018 112.115822,24.8673408 C113.186855,24.3469727 114.23457,23.4285132 115.230513,22.1372881 L115.520601,21.7605654 L112.026503,19.9078177 L111.821386,20.1836325 C110.96456,21.3351695 109.762315,21.8947135 108.14549,21.8947135 C106.970515,21.8947135 106.035436,21.5737869 105.288874,20.9149178 C104.797226,20.4756718 104.477497,19.9628224 104.322573,19.3633109 C104.256572,19.1068862 104.453784,18.8548143 104.718183,18.8548143 L116.416158,18.8544186 L116.437895,18.4769045 C116.472674,17.8825373 116.489273,17.4634728 116.489273,17.1943852 C116.489273,14.6265766 115.75773,12.5407514 114.316775,10.998246 C112.889653,9.45613624 110.920691,8.67459486 108.465219,8.67459486 L108.465219,8.67459486 Z M8.88703343,0.179616016 L3.57613154,0.155471837 C3.31884644,0.154290118 3.10108286,0.347795806 3.06867522,0.606594824 L0.00417653526,25.0144288 C-0.0345545546,25.3222968 0.200993706,25.5945502 0.507285488,25.5961331 L5.81779217,25.6202742 C6.07507726,25.6210632 6.29284084,25.4275575 6.32524849,25.1691542 L7.36743098,16.8705698 L5.16054928,14.0768067 C4.61317623,13.3835103 4.61317623,12.3981746 5.16054928,11.7052738 L8.55544788,7.4069941 L9.38974717,0.760924514 C9.42847826,0.453452286 9.19293,0.180803167 8.88703343,0.179616016 M144.604092,10.0327357 L142.348599,10.0327357 C142.114632,10.0327357 141.931647,9.83052424 141.954965,9.59705112 L142.202765,7.10324162 C142.225687,6.87016421 142.043098,6.66795275 141.808735,6.66795275 L138.661241,6.66795275 C138.4581,6.66795275 138.287763,6.82228244 138.267607,7.02488962 L138.004393,9.67579883 C137.984237,9.87840601 137.8139,10.0327357 137.610364,10.0327357 L136.232248,10.0327357 C136.028317,10.0327357 135.85798,10.1878568 135.838219,10.3908597 L135.551688,13.3559684 C135.529556,13.5890458 135.712145,13.7908615 135.945717,13.7908615 L137.167723,13.7908615 C137.402085,13.7908615 137.58507,13.993073 137.561752,14.2265461 L136.463845,25.2124457 C136.440527,25.4455231 136.623907,25.6481303 136.857874,25.6481303 L140.005368,25.6481303 C140.208509,25.6481303 140.378846,25.4938006 140.399002,25.2911934 L141.512324,14.1474027 C141.532875,13.9447955 141.702817,13.7908615 141.906353,13.7908615 L144.317561,13.7908615 C144.521887,13.7908615 144.692225,13.6357404 144.711591,13.4323418 L144.998122,10.4672331 C145.020649,10.2341557 144.837664,10.0327357 144.604092,10.0327357" fill="#1A1A1A"/>
      </g>
    </g>
  </g>
</svg>
